SplineFontDB: 3.2
FontName: RobotoLegacy-LightItalic
FullName: Roboto Legacy Light Italic
FamilyName: Roboto Legacy Light
Weight: Light
Copyright: Font data copyright Google 2011
Version: 1.00000; 2011
ItalicAngle: 0
UnderlinePosition: -200
UnderlineWidth: 100
Ascent: 1536
Descent: 512
InvalidEm: 0
sfntRevision: 0x00010000
LayerCount: 2
Layer: 0 1 "Back" 1
Layer: 1 1 "Fore" 0
XUID: [1021 474 -1613799265 13935]
StyleMap: 0x0001
FSType: 4
OS2Version: 3
OS2_WeightWidthSlopeOnly: 0
OS2_UseTypoMetrics: 0
CreationTime: 1221222574
ModificationTime: 1744077228
PfmFamily: 81
TTFWeight: 300
TTFWidth: 5
LineGap: 0
VLineGap: 0
Panose: 0 0 0 0 0 0 0 0 0 0
OS2TypoAscent: 1536
OS2TypoAOffset: 0
OS2TypoDescent: -512
OS2TypoDOffset: 0
OS2TypoLinegap: 102
OS2WinAscent: 1946
OS2WinAOffset: 0
OS2WinDescent: 512
OS2WinDOffset: 0
HheadAscent: 1900
HheadAOffset: 0
HheadDescent: -500
HheadDOffset: 0
OS2SubXSize: 1434
OS2SubYSize: 1331
OS2SubXOff: 0
OS2SubYOff: 287
OS2SupXSize: 1434
OS2SupYSize: 1331
OS2SupXOff: 0
OS2SupYOff: 977
OS2StrikeYSize: 102
OS2StrikeYPos: 512
OS2CapHeight: 1456
OS2XHeight: 1082
OS2Vendor: 'pyrs'
OS2CodePages: 2000019f.4f010000
OS2UnicodeRanges: e00002ef.5000205b.00000020.00000000
Lookup: 1 0 0 "'smcp' Lowercase to Small Capitals lookup 0" { "'smcp' Lowercase to Small Capitals lookup 0 subtable"  } ['smcp' ('DFLT' <'dflt' > ) ]
Lookup: 4 0 1 "'liga' Standard Ligatures lookup 1" { "'liga' Standard Ligatures lookup 1 subtable"  } ['liga' ('DFLT' <'dflt' > ) ]
Lookup: 258 0 0 "'kern' Horizontal Kerning lookup 0" { "'kern' Horizontal Kerning lookup 0 per glyph data 0"  "'kern' Horizontal Kerning lookup 0 per glyph data 1"  "'kern' Horizontal Kerning lookup 0 per glyph data 2"  "'kern' Horizontal Kerning lookup 0 kerning class 3"  } ['kern' ('DFLT' <'dflt' > ) ]
MarkAttachClasses: 1
DEI: 91125
KernClass2: 32+ 29 "'kern' Horizontal Kerning lookup 0 kerning class 3"

StartChar: exclam
Encoding: 33 33 4
Width: 462
GlyphClass: 1
Flags: W
LayerCount: 2
Fore
SplineSet
280 478 m 1,0,-1
 161 478 l 1,1,-1
 307 1456 l 1,2,-1
 426 1456 l 1,3,-1
 280 478 l 1,0,-1
220 0 m 1,4,-1
 78 0 l 1,5,-1
 103 167 l 1,6,-1
 245 167 l 1,7,-1
 220 0 l 1,4,-1
EndSplineSet
Validated: 1
EndChar

StartChar: quotedbl
Encoding: 34 34 5
Width: 666
GlyphClass: 1
Flags: W
LayerCount: 2
Fore
SplineSet
386 1240 m 1,0,-1
 276 979 l 1,1,-1
 204 979 l 1,2,-1
 265 1234 l 1,3,-1
 296 1456 l 1,4,-1
 416 1456 l 1,5,-1
 386 1240 l 1,0,-1
625 1240 m 1,6,-1
 515 979 l 1,7,-1
 443 979 l 1,8,-1
 505 1237 l 1,9,-1
 536 1456 l 1,10,-1
 655 1456 l 1,11,-1
 625 1240 l 1,6,-1
EndSplineSet
Validated: 1
EndChar

StartChar: numbersign
Encoding: 35 35 6
Width: 1270
GlyphClass: 1
Flags: W
LayerCount: 2
Fore
SplineSet
717 410 m 1,0,-1
 403 410 l 1,1,-1
 265 0 l 1,2,-1
 165 0 l 1,3,-1
 303 410 l 1,4,-1
 49 410 l 1,5,-1
 62 503 l 1,6,-1
 335 503 l 1,7,-1
 484 944 l 1,8,-1
 205 944 l 1,9,-1
 219 1040 l 1,10,-1
 516 1040 l 1,11,-1
 657 1456 l 1,12,-1
 757 1456 l 1,13,-1
 616 1040 l 1,14,-1
 930 1040 l 1,15,-1
 1071 1456 l 1,16,-1
 1171 1456 l 1,17,-1
 1030 1040 l 1,18,-1
 1259 1040 l 1,19,-1
 1245 944 l 1,20,-1
 997 944 l 1,21,-1
 848 503 l 1,22,-1
 1103 503 l 1,23,-1
 1090 410 l 1,24,-1
 817 410 l 1,25,-1
 678 0 l 1,26,-1
 578 0 l 1,27,-1
 717 410 l 1,0,-1
435 503 m 1,28,-1
 748 503 l 1,29,-1
 897 944 l 1,30,-1
 584 944 l 1,31,-1
 435 503 l 1,28,-1
EndSplineSet
Validated: 1
EndChar

StartChar: dollar
Encoding: 36 36 7
Width: 1154
GlyphClass: 1
Flags: W
LayerCount: 2
Fore
SplineSet
884 359 m 0,0,1
 900 473 900 473 838.5 541 c 128,-1,2
 777 609 777 609 602 674 c 1,3,4
 404 740 404 740 316.5 833 c 128,-1,5
 229 926 229 926 253 1095 c 0,6,7
 276 1264 276 1264 389.5 1363 c 128,-1,8
 503 1462 503 1462 679 1475 c 1,9,-1
 707 1677 l 1,10,-1
 809 1677 l 1,11,-1
 780 1474 l 1,12,13
 947 1457 947 1457 1031.5 1343 c 128,-1,14
 1116 1229 1116 1229 1089 1037 c 1,15,-1
 969 1037 l 1,16,17
 990 1190 990 1190 924 1280 c 128,-1,18
 858 1370 858 1370 713 1370 c 0,19,20
 570 1370 570 1370 479 1291.5 c 128,-1,21
 388 1213 388 1213 373 1097 c 0,22,23
 356 979 356 979 414 912 c 128,-1,24
 472 845 472 845 658 780 c 0,25,26
 855 711 855 711 941.5 619.5 c 128,-1,27
 1028 528 1028 528 1005 361 c 0,28,29
 980 189 980 189 864 92 c 128,-1,30
 748 -5 748 -5 568 -19 c 1,31,-1
 542 -208 l 1,32,-1
 440 -208 l 1,33,-1
 466 -19 l 1,34,35
 291 -6 291 -6 184 98.5 c 128,-1,36
 77 203 77 203 111 413 c 1,37,-1
 114 418 l 1,38,-1
 227 418 l 1,39,40
 201 233 201 233 290 159 c 128,-1,41
 379 85 379 85 525 85 c 0,42,43
 667 85 667 85 767 163.5 c 128,-1,44
 867 242 867 242 884 359 c 0,0,1
EndSplineSet
Validated: 33
EndChar

StartChar: percent
Encoding: 37 37 8
Width: 1514
GlyphClass: 1
Flags: W
LayerCount: 2
Fore
SplineSet
206 1176 m 2,0,1
 225 1307 225 1307 316.5 1392 c 128,-1,2
 408 1477 408 1477 537 1477 c 0,3,4
 659 1477 659 1477 726.5 1389 c 128,-1,5
 794 1301 794 1301 775 1176 c 2,6,-1
 764 1099 l 2,7,8
 744 968 744 968 654 884 c 128,-1,9
 564 800 564 800 437 800 c 0,10,11
 313 800 313 800 244 887 c 128,-1,12
 175 974 175 974 195 1099 c 2,13,-1
 206 1176 l 2,0,1
291 1099 m 2,14,15
 277 1008 277 1008 317 947.5 c 128,-1,16
 357 887 357 887 450 887 c 0,17,18
 535 887 535 887 595 949.5 c 128,-1,19
 655 1012 655 1012 668 1099 c 2,20,-1
 679 1176 l 2,21,22
 693 1267 693 1267 653.5 1328.5 c 128,-1,23
 614 1390 614 1390 524 1390 c 0,24,25
 438 1390 438 1390 376.5 1326 c 128,-1,26
 315 1262 315 1262 302 1176 c 2,27,-1
 291 1099 l 2,14,15
816 357 m 2,28,29
 835 487 835 487 926 572 c 128,-1,30
 1017 657 1017 657 1146 657 c 0,31,32
 1268 657 1268 657 1336 569.5 c 128,-1,33
 1404 482 1404 482 1386 357 c 2,34,-1
 1374 279 l 2,35,36
 1354 147 1354 147 1263.5 63 c 128,-1,37
 1173 -21 1173 -21 1046 -21 c 0,38,39
 922 -21 922 -21 853 66.5 c 128,-1,40
 784 154 784 154 804 279 c 2,41,-1
 816 357 l 2,28,29
901 279 m 2,42,43
 887 188 887 188 926.5 127 c 128,-1,44
 966 66 966 66 1059 66 c 0,45,46
 1144 66 1144 66 1204 129 c 128,-1,47
 1264 192 1264 192 1277 279 c 2,48,-1
 1289 357 l 2,49,50
 1303 451 1303 451 1263.5 510.5 c 128,-1,51
 1224 570 1224 570 1133 570 c 0,52,53
 1046 570 1046 570 986 508 c 128,-1,54
 926 446 926 446 913 357 c 2,55,-1
 901 279 l 2,42,43
364 121 m 1,56,-1
 297 169 l 1,57,-1
 1179 1307 l 1,58,-1
 1246 1259 l 1,59,-1
 364 121 l 1,56,-1
EndSplineSet
Validated: 33
EndChar

StartChar: ampersand
Encoding: 38 38 9
Width: 1260
GlyphClass: 1
Flags: W
LayerCount: 2
Fore
SplineSet
427 795 m 1,0,1
 361 896 361 896 334.5 978 c 128,-1,2
 308 1060 308 1060 321 1147 c 0,3,4
 345 1311 345 1311 446 1394 c 128,-1,5
 547 1477 547 1477 704 1477 c 0,6,7
 842 1477 842 1477 917 1395.5 c 128,-1,8
 992 1314 992 1314 974 1192 c 0,9,10
 959 1098 959 1098 906 1036 c 128,-1,11
 853 974 853 974 756 907 c 2,12,-1
 579 785 l 1,13,-1
 917 306 l 1,14,15
 978 378 978 378 1018.5 465 c 128,-1,16
 1059 552 1059 552 1074 651 c 1,17,-1
 1184 651 l 1,18,19
 1163 518 1163 518 1111 412.5 c 128,-1,20
 1059 307 1059 307 977 221 c 1,21,-1
 1134 0 l 1,22,-1
 990 0 l 1,23,-1
 889 141 l 1,24,25
 792 63 792 63 685 21 c 128,-1,26
 578 -21 578 -21 461 -21 c 0,27,28
 260 -21 260 -21 150 87.5 c 128,-1,29
 40 196 40 196 67 371 c 0,30,31
 85 496 85 496 170 588.5 c 128,-1,32
 255 681 255 681 411 784 c 2,33,-1
 427 795 l 1,0,1
476 80 m 0,34,35
 564 80 564 80 656.5 117 c 128,-1,36
 749 154 749 154 832 222 c 1,37,-1
 492 701 l 1,38,-1
 480 717 l 1,39,-1
 428 681 l 2,40,41
 298 587 298 587 247 511 c 128,-1,42
 196 435 196 435 187 371 c 0,43,44
 167 242 167 242 239.5 161 c 128,-1,45
 312 80 312 80 476 80 c 0,34,35
441 1149 m 0,46,47
 430 1081 430 1081 451.5 1011 c 128,-1,48
 473 941 473 941 526 861 c 1,49,-1
 723 993 l 2,50,51
 788 1038 788 1038 819.5 1087 c 128,-1,52
 851 1136 851 1136 860 1192 c 0,53,54
 872 1273 872 1273 827 1324 c 128,-1,55
 782 1375 782 1375 688 1375 c 0,56,57
 590 1375 590 1375 522.5 1309.5 c 128,-1,58
 455 1244 455 1244 441 1149 c 0,46,47
EndSplineSet
Validated: 33
EndChar

StartChar: quotesingle
Encoding: 39 39 10
Width: 423
GlyphClass: 1
Flags: W
LayerCount: 2
Fore
SplineSet
389 1261 m 1,0,-1
 277 986 l 1,1,-1
 205 986 l 1,2,-1
 267 1252 l 1,3,-1
 296 1456 l 1,4,-1
 416 1456 l 1,5,-1
 389 1261 l 1,0,-1
EndSplineSet
Validated: 1
EndChar

StartChar: parenleft
Encoding: 40 40 11
Width: 640
GlyphClass: 1
Flags: W
LayerCount: 2
Fore
SplineSet
147 588 m 2,0,1
 200 966 200 966 376.5 1245.5 c 128,-1,2
 553 1525 553 1525 741 1625 c 1,3,-1
 747 1624 l 1,4,-1
 763 1551 l 1,5,6
 604 1448 604 1448 458.5 1185 c 128,-1,7
 313 922 313 922 268 591 c 1,8,-1
 265 571 l 2,9,10
 216 227 216 227 287 -28.5 c 128,-1,11
 358 -284 358 -284 491 -393 c 1,12,-1
 455 -463 l 1,13,-1
 449 -462 l 1,14,15
 290 -363 290 -363 191 -80.5 c 128,-1,16
 92 202 92 202 145 573 c 2,17,-1
 147 588 l 2,0,1
EndSplineSet
Validated: 33
EndChar

StartChar: parenright
Encoding: 41 41 12
Width: 652
GlyphClass: 1
Flags: W
LayerCount: 2
Fore
SplineSet
503 573 m 2,0,1
 449 185 449 185 274.5 -88 c 128,-1,2
 100 -361 100 -361 -90 -463 c 1,3,-1
 -96 -462 l 1,4,-1
 -112 -393 l 1,5,6
 46 -291 46 -291 191.5 -26 c 128,-1,7
 337 239 337 239 384 571 c 2,8,-1
 387 591 l 2,9,10
 435 933 435 933 362 1191.5 c 128,-1,11
 289 1450 289 1450 161 1555 c 1,12,-1
 196 1625 l 1,13,-1
 202 1624 l 1,14,15
 358 1527 358 1527 456.5 1239 c 128,-1,16
 555 951 555 951 505 588 c 2,17,-1
 503 573 l 2,0,1
EndSplineSet
Validated: 33
EndChar

StartChar: asterisk
Encoding: 42 42 13
Width: 869
GlyphClass: 1
Flags: W
LayerCount: 2
Fore
SplineSet
387 706 m 1,0,-1
 126 782 l 1,1,-1
 173 883 l 1,2,-1
 432 791 l 1,3,-1
 467 1082 l 1,4,-1
 571 1081 l 1,5,-1
 523 787 l 1,6,-1
 802 884 l 1,7,-1
 819 783 l 1,8,-1
 534 699 l 1,9,-1
 671 469 l 1,10,-1
 577 407 l 1,11,-1
 450 648 l 1,12,-1
 255 409 l 1,13,-1
 179 469 l 1,14,-1
 387 706 l 1,0,-1
EndSplineSet
Validated: 1
EndChar

StartChar: plus
Encoding: 43 43 14
Width: 1156
GlyphClass: 1
Flags: W
LayerCount: 2
Fore
SplineSet
661 740 m 1,0,-1
 1104 740 l 1,1,-1
 1087 628 l 1,2,-1
 644 628 l 1,3,-1
 572 146 l 1,4,-1
 451 146 l 1,5,-1
 523 628 l 1,6,-1
 89 628 l 1,7,-1
 106 740 l 1,8,-1
 540 740 l 1,9,-1
 610 1206 l 1,10,-1
 731 1206 l 1,11,-1
 661 740 l 1,0,-1
EndSplineSet
Validated: 1
EndChar

StartChar: comma
Encoding: 44 44 15
Width: 392
GlyphClass: 1
Flags: W
LayerCount: 2
Fore
SplineSet
194 18 m 1,0,-1
 46 -258 l 1,1,-1
 -36 -258 l 1,2,-1
 75 21 l 1,3,-1
 100 188 l 1,4,-1
 219 188 l 1,5,-1
 194 18 l 1,0,-1
EndSplineSet
Validated: 1
EndChar

StartChar: hyphen
Encoding: 45 45 16
Width: 860
GlyphClass: 1
Flags: W
LayerCount: 2
Fore
SplineSet
726 570 m 1,0,-1
 136 570 l 1,1,-1
 151 671 l 1,2,-1
 741 671 l 1,3,-1
 726 570 l 1,0,-1
EndSplineSet
Validated: 1
EndChar

StartChar: period
Encoding: 46 46 17
Width: 489
GlyphClass: 1
Flags: W
LayerCount: 2
Fore
SplineSet
224 0 m 1,0,-1
 87 0 l 1,1,-1
 112 164 l 1,2,-1
 249 164 l 1,3,-1
 224 0 l 1,0,-1
EndSplineSet
Validated: 1
EndChar

StartChar: slash
Encoding: 47 47 18
Width: 813
GlyphClass: 1
Flags: W
LayerCount: 2
Fore
SplineSet
40 -125 m 1,0,-1
 -69 -125 l 1,1,-1
 776 1456 l 1,2,-1
 884 1456 l 1,3,-1
 40 -125 l 1,0,-1
EndSplineSet
Validated: 1
EndChar

StartChar: zero
Encoding: 48 48 19
Width: 1135
GlyphClass: 1
Flags: W
LayerCount: 2
Fore
SplineSet
1017 514 m 2,0,1
 978 255 978 255 838.5 117 c 128,-1,2
 699 -21 699 -21 486 -21 c 0,3,4
 284 -21 284 -21 179.5 124 c 128,-1,5
 75 269 75 269 112 514 c 2,6,-1
 176 942 l 2,7,8
 214 1199 214 1199 355 1338 c 128,-1,9
 496 1477 496 1477 709 1477 c 0,10,11
 911 1477 911 1477 1014.5 1331.5 c 128,-1,12
 1118 1186 1118 1186 1081 942 c 2,13,-1
 1017 514 l 2,0,1
964 961 m 2,14,15
 993 1158 993 1158 924 1266.5 c 128,-1,16
 855 1375 855 1375 693 1375 c 0,17,18
 539 1375 539 1375 432.5 1262 c 128,-1,19
 326 1149 326 1149 298 961 c 2,20,-1
 228 496 l 2,21,22
 199 300 199 300 269.5 190 c 128,-1,23
 340 80 340 80 501 80 c 0,24,25
 654 80 654 80 760 194.5 c 128,-1,26
 866 309 866 309 894 496 c 2,27,-1
 964 961 l 2,14,15
EndSplineSet
Validated: 33
EndChar

StartChar: one
Encoding: 49 49 20
Width: 1135
GlyphClass: 1
Flags: W
LayerCount: 2
Fore
SplineSet
579 0 m 1,0,-1
 459 0 l 1,1,-1
 662 1353 l 1,2,-1
 311 1311 l 1,3,-1
 325 1407 l 1,4,-1
 801 1477 l 1,5,-1
 579 0 l 1,0,-1
EndSplineSet
Validated: 1
EndChar

StartChar: two
Encoding: 50 50 21
Width: 1135
GlyphClass: 1
Flags: W
LayerCount: 2
Fore
SplineSet
964 0 m 1,0,-1
 78 0 l 1,1,-1
 91 92 l 1,2,-1
 648 651 l 2,3,4
 797 802 797 802 859 898.5 c 128,-1,5
 921 995 921 995 935 1089 c 0,6,7
 954 1227 954 1227 894.5 1301 c 128,-1,8
 835 1375 835 1375 693 1375 c 0,9,10
 543 1375 543 1375 442.5 1281.5 c 128,-1,11
 342 1188 342 1188 322 1046 c 1,12,-1
 211 1046 l 1,13,-1
 209 1052 l 1,14,15
 230 1237 230 1237 366 1357 c 128,-1,16
 502 1477 502 1477 707 1477 c 0,17,18
 887 1477 887 1477 983.5 1371 c 128,-1,19
 1080 1265 1080 1265 1055 1088 c 0,20,21
 1037 964 1037 964 953 852.5 c 128,-1,22
 869 741 869 741 702 566 c 1,23,-1
 244 107 l 1,24,-1
 246 101 l 1,25,-1
 978 101 l 1,26,-1
 964 0 l 1,0,-1
EndSplineSet
Validated: 33
EndChar

StartChar: three
Encoding: 51 51 22
Width: 1135
GlyphClass: 1
Flags: W
LayerCount: 2
Fore
SplineSet
457 798 m 1,0,-1
 591 798 l 2,1,2
 744 798 744 798 840.5 878 c 128,-1,3
 937 958 937 958 956 1081 c 0,4,5
 976 1215 976 1215 912.5 1295 c 128,-1,6
 849 1375 849 1375 699 1375 c 0,7,8
 564 1375 564 1375 456.5 1290.5 c 128,-1,9
 349 1206 349 1206 330 1075 c 1,10,-1
 219 1075 l 1,11,-1
 217 1081 l 1,12,13
 239 1258 239 1258 380.5 1367.5 c 128,-1,14
 522 1477 522 1477 715 1477 c 0,15,16
 902 1477 902 1477 1002.5 1371 c 128,-1,17
 1103 1265 1103 1265 1076 1077 c 0,18,19
 1058 964 1058 964 983 877 c 128,-1,20
 908 790 908 790 791 748 c 1,21,22
 909 707 909 707 964 616 c 128,-1,23
 1019 525 1019 525 1000 395 c 0,24,25
 970 193 970 193 832 86 c 128,-1,26
 694 -21 694 -21 495 -21 c 0,27,28
 316 -21 316 -21 187 89 c 128,-1,29
 58 199 58 199 91 389 c 1,30,-1
 94 395 l 1,31,-1
 206 395 l 1,32,33
 185 254 185 254 270.5 167 c 128,-1,34
 356 80 356 80 510 80 c 0,35,36
 656 80 656 80 757.5 165 c 128,-1,37
 859 250 859 250 881 391 c 0,38,39
 904 551 904 551 825 623.5 c 128,-1,40
 746 696 746 696 575 696 c 2,41,-1
 441 696 l 1,42,-1
 452 767 l 1,43,-1
 454 778 l 1,44,-1
 457 798 l 1,0,-1
EndSplineSet
Validated: 33
EndChar

StartChar: four
Encoding: 52 52 23
Width: 1135
GlyphClass: 1
Flags: W
LayerCount: 2
Fore
SplineSet
850 469 m 1,0,-1
 1078 469 l 1,1,-1
 1063 368 l 1,2,-1
 835 368 l 1,3,-1
 780 0 l 1,4,-1
 661 0 l 1,5,-1
 716 368 l 1,6,-1
 47 368 l 1,7,-1
 57 436 l 1,8,-1
 867 1456 l 1,9,-1
 998 1456 l 1,10,-1
 850 469 l 1,0,-1
208 474 m 1,11,-1
 211 469 l 1,12,-1
 731 469 l 1,13,-1
 855 1297 l 1,14,-1
 849 1299 l 1,15,-1
 783 1192 l 1,16,-1
 208 474 l 1,11,-1
EndSplineSet
Validated: 1
EndChar

StartChar: five
Encoding: 53 53 24
Width: 1135
GlyphClass: 1
Flags: W
LayerCount: 2
Fore
SplineSet
205 655 m 1,0,-1
 405 1456 l 1,1,-1
 1113 1456 l 1,2,-1
 1097 1345 l 1,3,-1
 492 1345 l 1,4,-1
 359 821 l 1,5,6
 422 870 422 870 492.5 898 c 128,-1,7
 563 926 563 926 675 929 c 0,8,9
 862 932 862 932 957 806 c 128,-1,10
 1052 680 1052 680 1020 464 c 0,11,12
 985 235 985 235 856.5 107 c 128,-1,13
 728 -21 728 -21 503 -21 c 0,14,15
 329 -21 329 -21 221.5 80.5 c 128,-1,16
 114 182 114 182 147 378 c 1,17,-1
 149 383 l 1,18,-1
 258 383 l 1,19,20
 235 230 235 230 306 155 c 128,-1,21
 377 80 377 80 518 80 c 0,22,23
 674 80 674 80 772.5 179 c 128,-1,24
 871 278 871 278 899 462 c 0,25,26
 924 631 924 631 858.5 724 c 128,-1,27
 793 817 793 817 646 817 c 0,28,29
 512 817 512 817 428.5 771.5 c 128,-1,30
 345 726 345 726 300 638 c 1,31,-1
 205 655 l 1,0,-1
EndSplineSet
Validated: 33
EndChar

StartChar: six
Encoding: 54 54 25
Width: 1135
GlyphClass: 1
Flags: W
LayerCount: 2
Fore
SplineSet
768 1477 m 0,0,1
 846 1477 846 1477 925 1459.5 c 128,-1,2
 1004 1442 1004 1442 1059 1411 c 1,3,-1
 1013 1313 l 1,4,5
 958 1344 958 1344 897.5 1359.5 c 128,-1,6
 837 1375 837 1375 752 1375 c 0,7,8
 605 1375 605 1375 484 1252 c 128,-1,9
 363 1129 363 1129 334 936 c 2,10,-1
 305 740 l 1,11,12
 376 823 376 823 478.5 872 c 128,-1,13
 581 921 581 921 697 921 c 0,14,15
 883 921 883 921 975.5 793.5 c 128,-1,16
 1068 666 1068 666 1036 454 c 0,17,18
 1003 233 1003 233 863.5 106 c 128,-1,19
 724 -21 724 -21 524 -21 c 0,20,21
 336 -21 336 -21 226.5 129.5 c 128,-1,22
 117 280 117 280 155 531 c 2,23,-1
 214 925 l 2,24,25
 251 1176 251 1176 408 1326.5 c 128,-1,26
 565 1477 565 1477 768 1477 c 0,0,1
649 823 m 0,27,28
 535 823 535 823 433 758 c 128,-1,29
 331 693 331 693 283 594 c 1,30,-1
 272 522 l 2,31,32
 240 313 240 313 316 196.5 c 128,-1,33
 392 80 392 80 539 80 c 0,34,35
 681 80 681 80 786.5 187 c 128,-1,36
 892 294 892 294 916 454 c 0,37,38
 943 636 943 636 876.5 729.5 c 128,-1,39
 810 823 810 823 649 823 c 0,27,28
EndSplineSet
Validated: 33
EndChar

StartChar: seven
Encoding: 55 55 26
Width: 1135
GlyphClass: 1
Flags: W
LayerCount: 2
Fore
SplineSet
1161 1354 m 1,0,1
 874 1068 874 1068 707 781.5 c 128,-1,2
 540 495 540 495 488 144 c 2,3,-1
 466 0 l 1,4,-1
 346 0 l 1,5,-1
 368 144 l 2,6,7
 421 505 421 505 590.5 790 c 128,-1,8
 760 1075 760 1075 1037 1354 c 1,9,-1
 214 1354 l 1,10,-1
 229 1456 l 1,11,-1
 1176 1456 l 1,12,-1
 1161 1354 l 1,0,1
EndSplineSet
Validated: 1
EndChar

StartChar: eight
Encoding: 56 56 27
Width: 1135
GlyphClass: 1
Flags: W
LayerCount: 2
Fore
SplineSet
1080 1090 m 0,0,1
 1061 967 1061 967 980 879 c 128,-1,2
 899 791 899 791 780 753 c 1,3,4
 901 710 901 710 967.5 614.5 c 128,-1,5
 1034 519 1034 519 1016 394 c 0,6,7
 985 189 985 189 840.5 84 c 128,-1,8
 696 -21 696 -21 496 -21 c 0,9,10
 293 -21 293 -21 171 89 c 128,-1,11
 49 199 49 199 79 394 c 0,12,13
 98 527 98 527 194.5 622 c 128,-1,14
 291 717 291 717 434 756 c 1,15,16
 323 797 323 797 265 885.5 c 128,-1,17
 207 974 207 974 225 1090 c 0,18,19
 253 1284 253 1284 388.5 1380.5 c 128,-1,20
 524 1477 524 1477 719 1477 c 0,21,22
 894 1477 894 1477 1000.5 1375.5 c 128,-1,23
 1107 1274 1107 1274 1080 1090 c 0,0,1
896 393 m 0,24,25
 917 535 917 535 832 619.5 c 128,-1,26
 747 704 747 704 603 704 c 0,27,28
 455 704 455 704 336.5 616.5 c 128,-1,29
 218 529 218 529 198 393 c 0,30,31
 175 244 175 244 264 162 c 128,-1,32
 353 80 353 80 511 80 c 0,33,34
 649 80 649 80 762 166 c 128,-1,35
 875 252 875 252 896 393 c 0,24,25
960 1091 m 0,36,37
 979 1221 979 1221 904.5 1298 c 128,-1,38
 830 1375 830 1375 703 1375 c 0,39,40
 571 1375 571 1375 467 1298 c 128,-1,41
 363 1221 363 1221 344 1091 c 0,42,43
 323 957 323 957 402 881 c 128,-1,44
 481 805 481 805 620 805 c 0,45,46
 741 805 741 805 841 884.5 c 128,-1,47
 941 964 941 964 960 1091 c 0,36,37
EndSplineSet
Validated: 33
EndChar

StartChar: nine
Encoding: 57 57 28
Width: 1135
GlyphClass: 1
Flags: W
LayerCount: 2
Fore
SplineSet
450 80 m 0,0,1
 604 80 604 80 718 187 c 128,-1,2
 832 294 832 294 860 482 c 2,3,-1
 891 689 l 1,4,5
 825 601 825 601 730 555 c 128,-1,6
 635 509 635 509 527 509 c 0,7,8
 336 509 336 509 233 642 c 128,-1,9
 130 775 130 775 161 983 c 0,10,11
 194 1204 194 1204 338.5 1340.5 c 128,-1,12
 483 1477 483 1477 674 1477 c 0,13,14
 873 1477 873 1477 982.5 1341 c 128,-1,15
 1092 1205 1092 1205 1056 958 c 2,16,-1
 985 484 l 2,17,18
 947 238 947 238 798 108.5 c 128,-1,19
 649 -21 649 -21 435 -21 c 0,20,21
 362 -21 362 -21 286 -5 c 128,-1,22
 210 11 210 11 144 42 c 1,23,-1
 181 139 l 1,24,25
 243 107 243 107 304 93.5 c 128,-1,26
 365 80 365 80 450 80 c 0,0,1
543 610 m 0,27,28
 667 610 667 610 765 676.5 c 128,-1,29
 863 743 863 743 914 838 c 1,30,-1
 934 971 l 2,31,32
 964 1173 964 1173 890 1274 c 128,-1,33
 816 1375 816 1375 663 1375 c 0,34,35
 528 1375 528 1375 418.5 1261 c 128,-1,36
 309 1147 309 1147 285 983 c 0,37,38
 260 817 260 817 328 713.5 c 128,-1,39
 396 610 396 610 543 610 c 0,27,28
EndSplineSet
Validated: 33
EndChar

StartChar: less
Encoding: 60 60 31
Width: 1047
GlyphClass: 1
Flags: W
LayerCount: 2
Fore
SplineSet
297 578 m 1,0,-1
 184 550 l 1,1,-1
 184 544 l 1,2,-1
 287 516 l 1,3,-1
 861 248 l 1,4,-1
 842 122 l 1,5,-1
 72 501 l 1,6,-1
 83 572 l 1,7,-1
 87 598 l 1,8,-1
 970 976 l 1,9,-1
 952 850 l 1,10,-1
 297 578 l 1,0,-1
EndSplineSet
Validated: 1
EndChar

StartChar: equal
Encoding: 61 61 32
Width: 1147
GlyphClass: 1
Flags: W
LayerCount: 2
Fore
SplineSet
1028 833 m 1,0,-1
 194 833 l 1,1,-1
 210 939 l 1,2,-1
 1044 939 l 1,3,-1
 1028 833 l 1,0,-1
966 422 m 1,4,-1
 132 422 l 1,5,-1
 148 528 l 1,6,-1
 982 528 l 1,7,-1
 966 422 l 1,4,-1
EndSplineSet
Validated: 1
EndChar

StartChar: greater
Encoding: 62 62 33
Width: 1061
GlyphClass: 1
Flags: W
LayerCount: 2
Fore
SplineSet
171 844 m 1,0,-1
 189 967 l 1,1,-1
 977 589 l 1,2,-1
 973 565 l 1,3,-1
 974 565 l 1,4,-1
 967 517 l 1,5,-1
 963 492 l 1,6,-1
 61 113 l 1,7,-1
 80 237 l 1,8,-1
 753 511 l 1,9,-1
 865 538 l 1,10,-1
 866 544 l 1,11,-1
 762 573 l 1,12,-1
 171 844 l 1,0,-1
EndSplineSet
Validated: 1
EndChar

StartChar: question
Encoding: 63 63 34
Width: 930
GlyphClass: 1
Flags: W
LayerCount: 2
Fore
SplineSet
358 404 m 1,0,1
 378 535 378 535 407 586.5 c 128,-1,2
 436 638 436 638 541 723 c 1,3,4
 666 835 666 835 726.5 910.5 c 128,-1,5
 787 986 787 986 805 1102 c 0,6,7
 825 1235 825 1235 768 1302.5 c 128,-1,8
 711 1370 711 1370 584 1370 c 0,9,10
 471 1370 471 1370 386 1301 c 128,-1,11
 301 1232 301 1232 282 1116 c 1,12,-1
 171 1116 l 1,13,-1
 169 1122 l 1,14,15
 192 1287 192 1287 313 1382 c 128,-1,16
 434 1477 434 1477 600 1477 c 0,17,18
 773 1477 773 1477 862 1375 c 128,-1,19
 951 1273 951 1273 925 1103 c 0,20,21
 904 962 904 962 824.5 862 c 128,-1,22
 745 762 745 762 602 645 c 0,23,24
 532 591 532 591 511 545 c 128,-1,25
 490 499 490 499 477 404 c 1,26,-1
 358 404 l 1,0,1
432 0 m 1,27,-1
 293 0 l 1,28,-1
 316 154 l 1,29,-1
 455 154 l 1,30,-1
 432 0 l 1,27,-1
EndSplineSet
Validated: 33
EndChar

StartChar: at
Encoding: 64 64 35
Width: 1870
GlyphClass: 1
Flags: W
LayerCount: 2
Fore
SplineSet
1748 513 m 0,0,1
 1705 296 1705 296 1574 137.5 c 128,-1,2
 1443 -21 1443 -21 1238 -21 c 0,3,4
 1163 -21 1163 -21 1117 30.5 c 128,-1,5
 1071 82 1071 82 1068 172 c 1,6,7
 1000 76 1000 76 914.5 27.5 c 128,-1,8
 829 -21 829 -21 727 -21 c 0,9,10
 601 -21 601 -21 549 100 c 128,-1,11
 497 221 497 221 544 416 c 0,12,13
 605 670 605 670 746.5 823.5 c 128,-1,14
 888 977 888 977 1056 977 c 0,15,16
 1146 977 1146 977 1201.5 949.5 c 128,-1,17
 1257 922 1257 922 1316 869 c 1,18,-1
 1313 867 l 1,19,-1
 1317 867 l 1,20,-1
 1181 293 l 2,21,22
 1151 161 1151 161 1184 113 c 128,-1,23
 1217 65 1217 65 1272 65 c 0,24,25
 1408 65 1408 65 1512.5 191 c 128,-1,26
 1617 317 1617 317 1657 513 c 0,27,28
 1734 902 1734 902 1598 1117.5 c 128,-1,29
 1462 1333 1462 1333 1100 1333 c 0,30,31
 789 1333 789 1333 537.5 1095.5 c 128,-1,32
 286 858 286 858 212 478 c 0,33,34
 136 99 136 99 283 -134.5 c 128,-1,35
 430 -368 430 -368 768 -368 c 0,36,37
 852 -368 852 -368 947.5 -346 c 128,-1,38
 1043 -324 1043 -324 1110 -289 c 1,39,-1
 1129 -364 l 1,40,41
 1059 -405 1059 -405 952.5 -429 c 128,-1,42
 846 -453 846 -453 751 -453 c 0,43,44
 385 -453 385 -453 208.5 -201 c 128,-1,45
 32 51 32 51 114 478 c 0,46,47
 196 902 196 902 468.5 1161 c 128,-1,48
 741 1420 741 1420 1117 1420 c 256,49,50
 1493 1420 1493 1420 1660.5 1175.5 c 128,-1,51
 1828 931 1828 931 1748 513 c 0,0,1
654 416 m 0,52,53
 615 261 615 261 643.5 169 c 128,-1,54
 672 77 672 77 768 77 c 0,55,56
 851 77 851 77 929 121 c 128,-1,57
 1007 165 1007 165 1077 278 c 1,58,-1
 1080 293 l 1,59,-1
 1209 837 l 1,60,61
 1180 860 1180 860 1142.5 873 c 128,-1,62
 1105 886 1105 886 1058 886 c 0,63,64
 929 886 929 886 820 766 c 128,-1,65
 711 646 711 646 654 416 c 0,52,53
EndSplineSet
Validated: 33
EndChar

StartChar: A
Encoding: 65 65 36
Width: 1256
GlyphClass: 1
Flags: W
LayerCount: 2
Fore
SplineSet
928 406 m 1,0,-1
 290 406 l 1,1,-1
 82 0 l 1,2,-1
 -42 0 l 1,3,-1
 711 1456 l 1,4,-1
 824 1456 l 1,5,-1
 1137 0 l 1,6,-1
 1013 0 l 1,7,-1
 928 406 l 1,0,-1
345 513 m 1,8,-1
 906 513 l 1,9,-1
 746 1284 l 1,10,-1
 740 1285 l 1,11,-1
 345 513 l 1,8,-1
EndSplineSet
Validated: 1
Substitution2: "'smcp' Lowercase to Small Capitals lookup 0 subtable" A.smcp
EndChar

StartChar: B
Encoding: 66 66 37
Width: 1263
GlyphClass: 1
Flags: W
LayerCount: 2
Fore
SplineSet
106 0 m 1,0,-1
 324 1456 l 1,1,-1
 749 1456 l 2,2,3
 967 1456 967 1456 1084 1359.5 c 128,-1,4
 1201 1263 1201 1263 1173 1073 c 0,5,6
 1156 959 1156 959 1083.5 879 c 128,-1,7
 1011 799 1011 799 902 766 c 1,8,9
 1037 749 1037 749 1108 645.5 c 128,-1,10
 1179 542 1179 542 1159 405 c 0,11,12
 1128 203 1128 203 988 101.5 c 128,-1,13
 848 0 848 0 633 0 c 2,14,-1
 106 0 l 1,0,-1
331 702 m 1,15,-1
 241 101 l 1,16,-1
 648 101 l 2,17,18
 803 101 803 101 910 181.5 c 128,-1,19
 1017 262 1017 262 1038 403 c 0,20,21
 1058 539 1058 539 981 618 c 128,-1,22
 904 697 904 697 750 702 c 1,23,-1
 734 702 l 1,24,-1
 331 702 l 1,15,-1
346 803 m 1,25,-1
 696 803 l 2,26,27
 842 806 842 806 937.5 876 c 128,-1,28
 1033 946 1033 946 1054 1077 c 0,29,30
 1075 1220 1075 1220 994 1287 c 128,-1,31
 913 1354 913 1354 734 1354 c 2,32,-1
 429 1354 l 1,33,-1
 346 803 l 1,25,-1
EndSplineSet
Validated: 33
Substitution2: "'smcp' Lowercase to Small Capitals lookup 0 subtable" B.smcp
EndChar

StartChar: C
Encoding: 67 67 38
Width: 1313
GlyphClass: 1
Flags: W
LayerCount: 2
Fore
SplineSet
1176 455 m 1,0,-1
 1178 449 l 1,1,2
 1149 226 1149 226 988.5 102.5 c 128,-1,3
 828 -21 828 -21 590 -21 c 0,4,5
 356 -21 356 -21 228.5 156 c 128,-1,6
 101 333 101 333 143 609 c 2,7,-1
 179 846 l 2,8,9
 222 1134 222 1134 395.5 1305.5 c 128,-1,10
 569 1477 569 1477 815 1477 c 0,11,12
 1043 1477 1043 1477 1171 1351 c 128,-1,13
 1299 1225 1299 1225 1262 1008 c 1,14,-1
 1259 1002 l 1,15,-1
 1147 1002 l 1,16,17
 1175 1184 1175 1184 1082.5 1279.5 c 128,-1,18
 990 1375 990 1375 799 1375 c 0,19,20
 616 1375 616 1375 474 1226 c 128,-1,21
 332 1077 332 1077 298 848 c 2,22,-1
 262 609 l 2,23,24
 226 367 226 367 319 223.5 c 128,-1,25
 412 80 412 80 605 80 c 0,26,27
 787 80 787 80 912 177 c 128,-1,28
 1037 274 1037 274 1065 455 c 1,29,-1
 1176 455 l 1,0,-1
EndSplineSet
Validated: 33
Substitution2: "'smcp' Lowercase to Small Capitals lookup 0 subtable" C.smcp
EndChar

StartChar: D
Encoding: 68 68 39
Width: 1378
GlyphClass: 1
Flags: W
LayerCount: 2
Fore
SplineSet
106 0 m 1,0,-1
 324 1456 l 1,1,-1
 768 1456 l 2,2,3
 1025 1456 1025 1456 1177.5 1276 c 128,-1,4
 1330 1096 1330 1096 1289 821 c 2,5,-1
 1261 634 l 2,6,7
 1217 344 1217 344 1019 172 c 128,-1,8
 821 0 821 0 550 0 c 2,9,-1
 106 0 l 1,0,-1
428 1354 m 1,10,-1
 241 101 l 1,11,-1
 565 101 l 2,12,13
 773 101 773 101 939.5 253 c 128,-1,14
 1106 405 1106 405 1141 634 c 2,15,-1
 1170 824 l 2,16,17
 1204 1061 1204 1061 1087.5 1207.5 c 128,-1,18
 971 1354 971 1354 753 1354 c 2,19,-1
 428 1354 l 1,10,-1
EndSplineSet
Validated: 33
Substitution2: "'smcp' Lowercase to Small Capitals lookup 0 subtable" D.smcp
EndChar

StartChar: E
Encoding: 69 69 40
Width: 1129
GlyphClass: 1
Flags: W
LayerCount: 2
Fore
SplineSet
985 705 m 1,0,-1
 331 705 l 1,1,-1
 241 101 l 1,2,-1
 996 101 l 1,3,-1
 981 0 l 1,4,-1
 106 0 l 1,5,-1
 324 1456 l 1,6,-1
 1194 1456 l 1,7,-1
 1179 1354 l 1,8,-1
 429 1354 l 1,9,-1
 347 807 l 1,10,-1
 1000 807 l 1,11,-1
 985 705 l 1,0,-1
EndSplineSet
Validated: 1
Substitution2: "'smcp' Lowercase to Small Capitals lookup 0 subtable" E.smcp
EndChar

StartChar: F
Encoding: 70 70 41
Width: 1128
GlyphClass: 1
Flags: W
LayerCount: 2
Fore
SplineSet
997 682 m 1,0,-1
 328 682 l 1,1,-1
 226 0 l 1,2,-1
 106 0 l 1,3,-1
 324 1456 l 1,4,-1
 1215 1456 l 1,5,-1
 1200 1354 l 1,6,-1
 428 1354 l 1,7,-1
 343 785 l 1,8,-1
 1013 785 l 1,9,-1
 997 682 l 1,0,-1
EndSplineSet
Validated: 1
Substitution2: "'smcp' Lowercase to Small Capitals lookup 0 subtable" F.smcp
EndChar

StartChar: G
Encoding: 71 71 42
Width: 1410
GlyphClass: 1
Flags: W
LayerCount: 2
Fore
SplineSet
1170 196 m 1,0,1
 1110 117 1110 117 970.5 48 c 128,-1,2
 831 -21 831 -21 634 -21 c 0,3,4
 393 -21 393 -21 254 153.5 c 128,-1,5
 115 328 115 328 156 600 c 2,6,-1
 196 867 l 2,7,8
 238 1147 238 1147 416.5 1312 c 128,-1,9
 595 1477 595 1477 844 1477 c 0,10,11
 1072 1477 1072 1477 1196.5 1351 c 128,-1,12
 1321 1225 1321 1225 1288 1034 c 1,13,-1
 1286 1028 l 1,14,-1
 1175 1028 l 1,15,16
 1199 1184 1199 1184 1110 1279.5 c 128,-1,17
 1021 1375 1021 1375 828 1375 c 0,18,19
 639 1375 639 1375 493.5 1231.5 c 128,-1,20
 348 1088 348 1088 316 869 c 2,21,-1
 276 600 l 2,22,23
 240 363 240 363 343 221.5 c 128,-1,24
 446 80 446 80 649 80 c 0,25,26
 796 80 796 80 903 127 c 128,-1,27
 1010 174 1010 174 1057 233 c 1,28,-1
 1113 606 l 1,29,-1
 721 606 l 1,30,-1
 736 708 l 1,31,-1
 1247 708 l 1,32,-1
 1170 196 l 1,0,1
EndSplineSet
Validated: 33
Substitution2: "'smcp' Lowercase to Small Capitals lookup 0 subtable" G.smcp
EndChar

StartChar: H
Encoding: 72 72 43
Width: 1439
GlyphClass: 1
Flags: W
LayerCount: 2
Fore
SplineSet
1173 0 m 1,0,-1
 1053 0 l 1,1,-1
 1153 670 l 1,2,-1
 326 670 l 1,3,-1
 226 0 l 1,4,-1
 106 0 l 1,5,-1
 324 1456 l 1,6,-1
 444 1456 l 1,7,-1
 341 772 l 1,8,-1
 1168 772 l 1,9,-1
 1271 1456 l 1,10,-1
 1391 1456 l 1,11,-1
 1173 0 l 1,0,-1
EndSplineSet
Validated: 1
Substitution2: "'smcp' Lowercase to Small Capitals lookup 0 subtable" H.smcp
EndChar

StartChar: I
Encoding: 73 73 44
Width: 554
GlyphClass: 1
Flags: W
LayerCount: 2
Fore
SplineSet
257 0 m 1,0,-1
 137 0 l 1,1,-1
 355 1456 l 1,2,-1
 475 1456 l 1,3,-1
 257 0 l 1,0,-1
EndSplineSet
Validated: 1
Substitution2: "'smcp' Lowercase to Small Capitals lookup 0 subtable" I.smcp
EndChar

StartChar: J
Encoding: 74 74 45
Width: 1122
GlyphClass: 1
Flags: W
LayerCount: 2
Fore
SplineSet
958 1456 m 1,0,-1
 1078 1456 l 1,1,-1
 923 422 l 2,2,3
 891 211 891 211 757 95 c 128,-1,4
 623 -21 623 -21 432 -21 c 0,5,6
 239 -21 239 -21 134.5 86.5 c 128,-1,7
 30 194 30 194 65 396 c 1,8,-1
 67 401 l 1,9,-1
 180 401 l 1,10,11
 154 231 154 231 222.5 155.5 c 128,-1,12
 291 80 291 80 447 80 c 0,13,14
 575 80 575 80 677.5 173.5 c 128,-1,15
 780 267 780 267 803 422 c 2,16,-1
 958 1456 l 1,0,-1
EndSplineSet
Validated: 33
Substitution2: "'smcp' Lowercase to Small Capitals lookup 0 subtable" J.smcp
EndChar

StartChar: K
Encoding: 75 75 46
Width: 1198
GlyphClass: 1
Flags: W
LayerCount: 2
Fore
SplineSet
480 691 m 1,0,-1
 311 691 l 1,1,-1
 208 0 l 1,2,-1
 88 0 l 1,3,-1
 306 1456 l 1,4,-1
 426 1456 l 1,5,-1
 327 797 l 1,6,-1
 501 797 l 1,7,-1
 1119 1456 l 1,8,-1
 1267 1456 l 1,9,-1
 1270 1450 l 1,10,-1
 587 734 l 1,11,-1
 1085 0 l 1,12,-1
 945 0 l 1,13,-1
 480 691 l 1,0,-1
EndSplineSet
Validated: 1
Substitution2: "'smcp' Lowercase to Small Capitals lookup 0 subtable" K.smcp
EndChar

StartChar: L
Encoding: 76 76 47
Width: 1128
GlyphClass: 1
Flags: W
LayerCount: 2
Fore
SplineSet
241 101 m 1,0,-1
 993 101 l 1,1,-1
 978 0 l 1,2,-1
 106 0 l 1,3,-1
 324 1456 l 1,4,-1
 444 1456 l 1,5,-1
 241 101 l 1,0,-1
EndSplineSet
Validated: 1
Substitution2: "'smcp' Lowercase to Small Capitals lookup 0 subtable" L.smcp
EndChar

StartChar: M
Encoding: 77 77 48
Width: 1766
GlyphClass: 1
Flags: W
LayerCount: 2
Fore
SplineSet
832 175 m 1,0,-1
 838 174 l 1,1,-1
 1572 1456 l 1,2,-1
 1718 1456 l 1,3,-1
 1500 0 l 1,4,-1
 1380 0 l 1,5,-1
 1563 1222 l 1,6,-1
 1557 1224 l 1,7,-1
 852 0 l 1,8,-1
 766 0 l 1,9,-1
 420 1254 l 1,10,-1
 414 1254 l 1,11,-1
 226 0 l 1,12,-1
 106 0 l 1,13,-1
 324 1456 l 1,14,-1
 484 1456 l 1,15,-1
 832 175 l 1,0,-1
EndSplineSet
Validated: 1
Substitution2: "'smcp' Lowercase to Small Capitals lookup 0 subtable" M.smcp
EndChar

StartChar: N
Encoding: 78 78 49
Width: 1445
GlyphClass: 1
Flags: W
LayerCount: 2
Fore
SplineSet
1179 0 m 1,0,-1
 1059 0 l 1,1,-1
 418 1246 l 1,2,-1
 413 1245 l 1,3,-1
 226 0 l 1,4,-1
 106 0 l 1,5,-1
 324 1456 l 1,6,-1
 444 1456 l 1,7,-1
 1085 213 l 1,8,-1
 1090 214 l 1,9,-1
 1277 1456 l 1,10,-1
 1397 1456 l 1,11,-1
 1179 0 l 1,0,-1
EndSplineSet
Validated: 1
Substitution2: "'smcp' Lowercase to Small Capitals lookup 0 subtable" N.smcp
EndChar

StartChar: O
Encoding: 79 79 50
Width: 1378
GlyphClass: 1
Flags: W
LayerCount: 2
Fore
SplineSet
1265 609 m 2,0,1
 1221 316 1221 316 1043 147.5 c 128,-1,2
 865 -21 865 -21 602 -21 c 0,3,4
 356 -21 356 -21 224.5 154.5 c 128,-1,5
 93 330 93 330 135 609 c 2,6,-1
 171 846 l 2,7,8
 215 1138 215 1138 391 1307.5 c 128,-1,9
 567 1477 567 1477 826 1477 c 0,10,11
 1076 1477 1076 1477 1209 1300.5 c 128,-1,12
 1342 1124 1342 1124 1301 846 c 2,13,-1
 1265 609 l 2,0,1
1182 848 m 2,14,15
 1219 1093 1219 1093 1121.5 1232.5 c 128,-1,16
 1024 1372 1024 1372 810 1372 c 0,17,18
 610 1372 610 1372 468 1226.5 c 128,-1,19
 326 1081 326 1081 291 848 c 2,20,-1
 255 609 l 2,21,22
 217 362 217 362 311.5 222.5 c 128,-1,23
 406 83 406 83 617 83 c 0,24,25
 822 83 822 83 966.5 228 c 128,-1,26
 1111 373 1111 373 1146 609 c 2,27,-1
 1182 848 l 2,14,15
EndSplineSet
Validated: 33
Substitution2: "'smcp' Lowercase to Small Capitals lookup 0 subtable" O.smcp
EndChar

StartChar: P
Encoding: 80 80 51
Width: 1263
GlyphClass: 1
Flags: W
LayerCount: 2
Fore
SplineSet
316 605 m 1,0,-1
 226 0 l 1,1,-1
 106 0 l 1,2,-1
 324 1456 l 1,3,-1
 826 1456 l 2,4,5
 1045 1456 1045 1456 1158 1338 c 128,-1,6
 1271 1220 1271 1220 1243 1031 c 0,7,8
 1212 830 1212 830 1071.5 717.5 c 128,-1,9
 931 605 931 605 699 605 c 2,10,-1
 316 605 l 1,0,-1
332 707 m 1,11,-1
 714 707 l 2,12,13
 886 707 886 707 993.5 800 c 128,-1,14
 1101 893 1101 893 1122 1029 c 0,15,16
 1144 1174 1144 1174 1068.5 1264 c 128,-1,17
 993 1354 993 1354 811 1354 c 2,18,-1
 429 1354 l 1,19,-1
 332 707 l 1,11,-1
EndSplineSet
Validated: 33
Substitution2: "'smcp' Lowercase to Small Capitals lookup 0 subtable" P.smcp
EndChar

StartChar: Q
Encoding: 81 81 52
Width: 1393
GlyphClass: 1
Flags: W
LayerCount: 2
Fore
SplineSet
1265 609 m 2,0,1
 1244 471 1244 471 1192 358.5 c 128,-1,2
 1140 246 1140 246 1061 165 c 1,3,-1
 1256 -58 l 1,4,-1
 1161 -138 l 1,5,-1
 963 84 l 1,6,7
 885 32 885 32 794 5.5 c 128,-1,8
 703 -21 703 -21 602 -21 c 0,9,10
 356 -21 356 -21 224.5 154.5 c 128,-1,11
 93 330 93 330 135 609 c 2,12,-1
 171 846 l 2,13,14
 215 1138 215 1138 391 1307.5 c 128,-1,15
 567 1477 567 1477 826 1477 c 0,16,17
 1076 1477 1076 1477 1209 1300.5 c 128,-1,18
 1342 1124 1342 1124 1301 846 c 2,19,-1
 1265 609 l 2,0,1
1182 848 m 2,20,21
 1219 1093 1219 1093 1121.5 1232.5 c 128,-1,22
 1024 1372 1024 1372 810 1372 c 0,23,24
 610 1372 610 1372 468 1226.5 c 128,-1,25
 326 1081 326 1081 291 848 c 2,26,-1
 255 609 l 2,27,28
 217 362 217 362 311.5 222.5 c 128,-1,29
 406 83 406 83 617 83 c 0,30,31
 822 83 822 83 966.5 228 c 128,-1,32
 1111 373 1111 373 1146 609 c 2,33,-1
 1182 848 l 2,20,21
EndSplineSet
Validated: 33
Substitution2: "'smcp' Lowercase to Small Capitals lookup 0 subtable" Q.smcp
EndChar

StartChar: R
Encoding: 82 82 53
Width: 1336
GlyphClass: 1
Flags: W
LayerCount: 2
Fore
SplineSet
321 658 m 1,0,-1
 223 0 l 1,1,-1
 103 0 l 1,2,-1
 321 1455 l 1,3,-1
 806 1455 l 2,4,5
 1031 1455 1031 1455 1145 1351.5 c 128,-1,6
 1259 1248 1259 1248 1230 1053 c 0,7,8
 1211 932 1211 932 1131 842 c 128,-1,9
 1051 752 1051 752 921 711 c 1,10,11
 1048 676 1048 676 1096.5 588 c 128,-1,12
 1145 500 1145 500 1127 371 c 2,13,-1
 1106 234 l 2,14,15
 1095 164 1095 164 1103 111 c 128,-1,16
 1111 58 1111 58 1144 24 c 1,17,-1
 1140 0 l 1,18,-1
 1018 0 l 1,19,20
 987 36 987 36 981.5 101 c 128,-1,21
 976 166 976 166 986 236 c 2,22,-1
 1006 369 l 2,23,24
 1026 508 1026 508 952.5 583 c 128,-1,25
 879 658 879 658 722 658 c 2,26,-1
 321 658 l 1,0,-1
337 760 m 1,27,-1
 688 760 l 2,28,29
 877 760 877 760 984 841 c 128,-1,30
 1091 922 1091 922 1111 1054 c 0,31,32
 1133 1203 1133 1203 1055 1278 c 128,-1,33
 977 1353 977 1353 791 1353 c 2,34,-1
 426 1353 l 1,35,-1
 337 760 l 1,27,-1
EndSplineSet
Validated: 33
Substitution2: "'smcp' Lowercase to Small Capitals lookup 0 subtable" R.smcp
EndChar

StartChar: S
Encoding: 83 83 54
Width: 1232
GlyphClass: 1
Flags: W
LayerCount: 2
Fore
SplineSet
1005 317 m 0,0,1
 1024 449 1024 449 947.5 524.5 c 128,-1,2
 871 600 871 600 652 676 c 0,3,4
 420 753 420 753 315.5 851 c 128,-1,5
 211 949 211 949 239 1136 c 0,6,7
 263 1296 263 1296 398 1386.5 c 128,-1,8
 533 1477 533 1477 726 1477 c 0,9,10
 946 1477 946 1477 1071 1360.5 c 128,-1,11
 1196 1244 1196 1244 1162 1043 c 1,12,-1
 1160 1037 l 1,13,-1
 1048 1037 l 1,14,15
 1070 1188 1070 1188 977 1281.5 c 128,-1,16
 884 1375 884 1375 710 1375 c 0,17,18
 571 1375 571 1375 472 1305 c 128,-1,19
 373 1235 373 1235 359 1138 c 0,20,21
 338 1005 338 1005 409 931 c 128,-1,22
 480 857 480 857 704 780 c 0,23,24
 937 702 937 702 1044.5 601 c 128,-1,25
 1152 500 1152 500 1125 319 c 0,26,27
 1100 154 1100 154 958 66.5 c 128,-1,28
 816 -21 816 -21 609 -21 c 0,29,30
 392 -21 392 -21 243.5 84.5 c 128,-1,31
 95 190 95 190 134 412 c 1,32,-1
 136 418 l 1,33,-1
 247 418 l 1,34,35
 219 234 219 234 335 157 c 128,-1,36
 451 80 451 80 624 80 c 0,37,38
 768 80 768 80 878.5 149 c 128,-1,39
 989 218 989 218 1005 317 c 0,0,1
EndSplineSet
Validated: 33
Substitution2: "'smcp' Lowercase to Small Capitals lookup 0 subtable" S.smcp
EndChar

StartChar: T
Encoding: 84 84 55
Width: 1224
GlyphClass: 1
Flags: W
LayerCount: 2
Fore
SplineSet
1299 1354 m 1,0,-1
 802 1354 l 1,1,-1
 600 0 l 1,2,-1
 481 0 l 1,3,-1
 683 1354 l 1,4,-1
 171 1354 l 1,5,-1
 186 1456 l 1,6,-1
 1314 1456 l 1,7,-1
 1299 1354 l 1,0,-1
EndSplineSet
Validated: 1
Substitution2: "'smcp' Lowercase to Small Capitals lookup 0 subtable" T.smcp
EndChar

StartChar: U
Encoding: 85 85 56
Width: 1374
GlyphClass: 1
Flags: W
LayerCount: 2
Fore
SplineSet
1347 1456 m 1,0,-1
 1202 489 l 2,1,2
 1165 240 1165 240 1000.5 109.5 c 128,-1,3
 836 -21 836 -21 601 -21 c 0,4,5
 382 -21 382 -21 253 115.5 c 128,-1,6
 124 252 124 252 160 489 c 2,7,-1
 305 1456 l 1,8,-1
 425 1456 l 1,9,-1
 280 489 l 2,10,11
 250 293 250 293 344.5 186.5 c 128,-1,12
 439 80 439 80 616 80 c 0,13,14
 787 80 787 80 921 191 c 128,-1,15
 1055 302 1055 302 1083 489 c 2,16,-1
 1228 1456 l 1,17,-1
 1347 1456 l 1,0,-1
EndSplineSet
Validated: 33
Substitution2: "'smcp' Lowercase to Small Capitals lookup 0 subtable" U.smcp
EndChar

StartChar: V
Encoding: 86 86 57
Width: 1256
GlyphClass: 1
Flags: W
LayerCount: 2
Fore
SplineSet
554 255 m 1,0,-1
 568 154 l 1,1,-1
 573 153 l 1,2,-1
 618 255 l 1,3,-1
 1236 1456 l 1,4,-1
 1365 1456 l 1,5,-1
 605 0 l 1,6,-1
 491 0 l 1,7,-1
 167 1456 l 1,8,-1
 297 1456 l 1,9,-1
 554 255 l 1,0,-1
EndSplineSet
Validated: 1
Substitution2: "'smcp' Lowercase to Small Capitals lookup 0 subtable" V.smcp
EndChar

StartChar: W
Encoding: 87 87 58
Width: 1813
GlyphClass: 1
Flags: W
LayerCount: 2
Fore
SplineSet
423 418 m 1,0,-1
 432 183 l 1,1,-1
 438 182 l 1,2,-1
 525 418 l 1,3,-1
 984 1456 l 1,4,-1
 1105 1456 l 1,5,-1
 1255 418 l 1,6,-1
 1269 182 l 1,7,-1
 1275 181 l 1,8,-1
 1358 418 l 1,9,-1
 1770 1456 l 1,10,-1
 1900 1456 l 1,11,-1
 1309 0 l 1,12,-1
 1195 0 l 1,13,-1
 1034 1117 l 1,14,-1
 1021 1273 l 1,15,-1
 1015 1274 l 1,16,-1
 958 1117 l 1,17,-1
 457 0 l 1,18,-1
 343 0 l 1,19,-1
 188 1456 l 1,20,-1
 318 1456 l 1,21,-1
 423 418 l 1,0,-1
EndSplineSet
Validated: 1
Substitution2: "'smcp' Lowercase to Small Capitals lookup 0 subtable" W.smcp
EndChar

StartChar: X
Encoding: 88 88 59
Width: 1256
GlyphClass: 1
Flags: W
LayerCount: 2
Fore
SplineSet
673 834 m 1,0,-1
 1177 1456 l 1,1,-1
 1315 1456 l 1,2,-1
 1318 1451 l 1,3,-1
 731 738 l 1,4,-1
 1120 0 l 1,5,-1
 977 0 l 1,6,-1
 646 642 l 1,7,-1
 124 0 l 1,8,-1
 -14 0 l 1,9,-1
 -17 5 l 1,10,-1
 590 738 l 1,11,-1
 212 1456 l 1,12,-1
 357 1456 l 1,13,-1
 673 834 l 1,0,-1
EndSplineSet
Validated: 1
Substitution2: "'smcp' Lowercase to Small Capitals lookup 0 subtable" X.smcp
EndChar

StartChar: Y
Encoding: 89 89 60
Width: 1256
GlyphClass: 1
Flags: W
LayerCount: 2
Fore
SplineSet
643 647 m 1,0,-1
 1214 1456 l 1,1,-1
 1353 1456 l 1,2,-1
 684 533 l 1,3,-1
 604 0 l 1,4,-1
 485 0 l 1,5,-1
 565 536 l 1,6,-1
 176 1456 l 1,7,-1
 315 1456 l 1,8,-1
 643 647 l 1,0,-1
EndSplineSet
Validated: 1
Substitution2: "'smcp' Lowercase to Small Capitals lookup 0 subtable" Y.smcp
EndChar

StartChar: Z
Encoding: 90 90 61
Width: 1121
GlyphClass: 1
Flags: W
LayerCount: 2
Fore
SplineSet
170 101 m 1,0,-1
 994 101 l 1,1,-1
 979 0 l 1,2,-1
 22 0 l 1,3,-1
 24 92 l 1,4,-1
 940 1354 l 1,5,-1
 194 1354 l 1,6,-1
 209 1456 l 1,7,-1
 1103 1456 l 1,8,-1
 1090 1369 l 1,9,-1
 170 101 l 1,0,-1
EndSplineSet
Validated: 1
Substitution2: "'smcp' Lowercase to Small Capitals lookup 0 subtable" Z.smcp
EndChar

StartChar: bracketleft
Encoding: 91 91 62
Width: 491
GlyphClass: 1
Flags: W
LayerCount: 2
Fore
SplineSet
637 1562 m 1,0,-1
 427 1562 l 1,1,-1
 179 -210 l 1,2,-1
 389 -210 l 1,3,-1
 374 -312 l 1,4,-1
 44 -312 l 1,5,-1
 321 1664 l 1,6,-1
 651 1664 l 1,7,-1
 637 1562 l 1,0,-1
EndSplineSet
Validated: 1
EndChar

StartChar: backslash
Encoding: 92 92 63
Width: 807
GlyphClass: 1
Flags: W
LayerCount: 2
Fore
SplineSet
186 1456 m 1,0,-1
 303 1456 l 1,1,-1
 674 -125 l 1,2,-1
 557 -125 l 1,3,-1
 186 1456 l 1,0,-1
EndSplineSet
Validated: 1
EndChar

StartChar: bracketright
Encoding: 93 93 64
Width: 491
GlyphClass: 1
Flags: W
LayerCount: 2
Fore
SplineSet
158 1664 m 1,0,-1
 489 1664 l 1,1,-1
 212 -312 l 1,2,-1
 -119 -312 l 1,3,-1
 -104 -210 l 1,4,-1
 107 -210 l 1,5,-1
 355 1562 l 1,6,-1
 144 1562 l 1,7,-1
 158 1664 l 1,0,-1
EndSplineSet
Validated: 1
EndChar

StartChar: asciicircum
Encoding: 94 94 65
Width: 852
GlyphClass: 1
Flags: W
LayerCount: 2
Fore
SplineSet
222 729 m 1,0,-1
 106 729 l 1,1,-1
 514 1456 l 1,2,-1
 604 1456 l 1,3,-1
 793 729 l 1,4,-1
 677 729 l 1,5,-1
 554 1213 l 1,6,-1
 540 1319 l 1,7,-1
 534 1320 l 1,8,-1
 488 1213 l 1,9,-1
 222 729 l 1,0,-1
EndSplineSet
Validated: 1
EndChar

StartChar: underscore
Encoding: 95 95 66
Width: 884
GlyphClass: 1
Flags: W
LayerCount: 2
Fore
SplineSet
787 -101 m 1,0,-1
 -94 -101 l 1,1,-1
 -79 0 l 1,2,-1
 802 0 l 1,3,-1
 787 -101 l 1,0,-1
EndSplineSet
Validated: 1
EndChar

StartChar: grave
Encoding: 96 96 67
Width: 585
GlyphClass: 1
Flags: W
LayerCount: 2
Fore
SplineSet
551 1252 m 1,0,-1
 434 1252 l 1,1,-1
 226 1518 l 1,2,-1
 387 1518 l 1,3,-1
 551 1252 l 1,0,-1
EndSplineSet
Validated: 1
EndChar

StartChar: a
Encoding: 97 97 68
Width: 1101
GlyphClass: 1
Flags: W
LayerCount: 2
Fore
SplineSet
763 0 m 1,0,1
 761 62 761 62 761 101 c 128,-1,2
 761 140 761 140 767 181 c 1,3,4
 698 94 698 94 588.5 36.5 c 128,-1,5
 479 -21 479 -21 349 -21 c 0,6,7
 196 -21 196 -21 118 64.5 c 128,-1,8
 40 150 40 150 62 293 c 0,9,10
 84 444 84 444 223.5 531 c 128,-1,11
 363 618 363 618 568 618 c 2,12,-1
 834 618 l 1,13,-1
 854 752 l 2,14,15
 871 873 871 873 808.5 936.5 c 128,-1,16
 746 1000 746 1000 610 1000 c 0,17,18
 492 1000 492 1000 405 939.5 c 128,-1,19
 318 879 318 879 304 789 c 1,20,-1
 194 789 l 1,21,-1
 192 795 l 1,22,23
 205 921 205 921 328.5 1011.5 c 128,-1,24
 452 1102 452 1102 631 1102 c 0,25,26
 803 1102 803 1102 900.5 1010 c 128,-1,27
 998 918 998 918 973 750 c 2,28,-1
 893 218 l 2,29,30
 884 159 884 159 882 106 c 128,-1,31
 880 53 880 53 888 0 c 1,32,-1
 763 0 l 1,0,1
378 85 m 0,33,34
 510 85 510 85 623 151 c 128,-1,35
 736 217 736 217 788 318 c 1,36,-1
 820 526 l 1,37,-1
 553 526 l 2,38,39
 413 526 413 526 304.5 456 c 128,-1,40
 196 386 196 386 181 289 c 0,41,42
 167 194 167 194 218.5 139.5 c 128,-1,43
 270 85 270 85 378 85 c 0,33,34
EndSplineSet
Validated: 33
Substitution2: "'smcp' Lowercase to Small Capitals lookup 0 subtable" A.smcp
EndChar

StartChar: b
Encoding: 98 98 69
Width: 1140
GlyphClass: 1
Flags: W
LayerCount: 2
Fore
SplineSet
1027 511 m 2,0,1
 989 259 989 259 859.5 119 c 128,-1,2
 730 -21 730 -21 534 -21 c 0,3,4
 420 -21 420 -21 340 27.5 c 128,-1,5
 260 76 260 76 218 166 c 1,6,-1
 172 0 l 1,7,-1
 78 0 l 1,8,-1
 312 1560 l 1,9,-1
 432 1560 l 1,10,-1
 335 916 l 1,11,12
 402 1005 402 1005 493.5 1053.5 c 128,-1,13
 585 1102 585 1102 700 1102 c 0,14,15
 887 1102 887 1102 977.5 945 c 128,-1,16
 1068 788 1068 788 1030 532 c 2,17,-1
 1027 511 l 2,0,1
909 532 m 2,18,19
 941 746 941 746 880.5 872 c 128,-1,20
 820 998 820 998 662 998 c 0,21,22
 543 998 543 998 456 936 c 128,-1,23
 369 874 369 874 315 778 c 1,24,-1
 241 284 l 1,25,26
 268 191 268 191 337.5 137 c 128,-1,27
 407 83 407 83 526 83 c 0,28,29
 676 83 676 83 776 200.5 c 128,-1,30
 876 318 876 318 906 511 c 2,31,-1
 909 532 l 2,18,19
EndSplineSet
Validated: 33
Substitution2: "'smcp' Lowercase to Small Capitals lookup 0 subtable" B.smcp
EndChar

StartChar: c
Encoding: 99 99 70
Width: 1054
GlyphClass: 1
Flags: W
LayerCount: 2
Fore
SplineSet
486 80 m 0,0,1
 597 80 597 80 697.5 148.5 c 128,-1,2
 798 217 798 217 817 337 c 1,3,-1
 923 337 l 1,4,-1
 925 331 l 1,5,6
 905 174 905 174 769.5 76.5 c 128,-1,7
 634 -21 634 -21 471 -21 c 0,8,9
 263 -21 263 -21 161 132.5 c 128,-1,10
 59 286 59 286 95 520 c 2,11,-1
 101 562 l 2,12,13
 137 806 137 806 278.5 954 c 128,-1,14
 420 1102 420 1102 638 1102 c 0,15,16
 806 1102 806 1102 909 996 c 128,-1,17
 1012 890 1012 890 983 720 c 1,18,-1
 981 715 l 1,19,-1
 873 715 l 1,20,21
 893 850 893 850 820.5 925 c 128,-1,22
 748 1000 748 1000 623 1000 c 0,23,24
 460 1000 460 1000 354.5 873 c 128,-1,25
 249 746 249 746 221 562 c 2,26,-1
 215 520 l 2,27,28
 185 323 185 323 249 201.5 c 128,-1,29
 313 80 313 80 486 80 c 0,0,1
EndSplineSet
Validated: 33
Substitution2: "'smcp' Lowercase to Small Capitals lookup 0 subtable" C.smcp
EndChar

StartChar: d
Encoding: 100 100 71
Width: 1140
GlyphClass: 1
Flags: W
LayerCount: 2
Fore
SplineSet
111 532 m 2,0,1
 151 801 151 801 282 951.5 c 128,-1,2
 413 1102 413 1102 611 1102 c 0,3,4
 719 1102 719 1102 796 1053.5 c 128,-1,5
 873 1005 873 1005 917 916 c 1,6,-1
 1013 1560 l 1,7,-1
 1133 1560 l 1,8,-1
 899 0 l 1,9,-1
 801 0 l 1,10,-1
 808 157 l 1,11,12
 741 71 741 71 648.5 25 c 128,-1,13
 556 -21 556 -21 441 -21 c 0,14,15
 254 -21 254 -21 162.5 125.5 c 128,-1,16
 71 272 71 272 108 511 c 2,17,-1
 111 532 l 2,0,1
228 511 m 2,18,19
 197 308 197 308 258 195.5 c 128,-1,20
 319 83 319 83 478 83 c 0,21,22
 589 83 589 83 676 136 c 128,-1,23
 763 189 763 189 821 280 c 1,24,-1
 898 789 l 1,25,26
 871 882 871 882 804.5 940 c 128,-1,27
 738 998 738 998 618 998 c 0,28,29
 466 998 466 998 363.5 866.5 c 128,-1,30
 261 735 261 735 231 532 c 2,31,-1
 228 511 l 2,18,19
EndSplineSet
Validated: 33
Substitution2: "'smcp' Lowercase to Small Capitals lookup 0 subtable" D.smcp
EndChar

StartChar: e
Encoding: 101 101 72
Width: 1054
GlyphClass: 1
Flags: W
LayerCount: 2
Fore
SplineSet
486 -21 m 0,0,1
 284 -21 284 -21 171 129 c 128,-1,2
 58 279 58 279 93 509 c 2,3,-1
 102 564 l 1,4,5
 137 807 137 807 290.5 954.5 c 128,-1,6
 444 1102 444 1102 643 1102 c 0,7,8
 833 1102 833 1102 924.5 974 c 128,-1,9
 1016 846 1016 846 985 635 c 2,10,-1
 971 542 l 1,11,-1
 218 542 l 1,12,-1
 213 509 l 2,13,14
 184 317 184 317 259.5 198.5 c 128,-1,15
 335 80 335 80 501 80 c 0,16,17
 596 80 596 80 686.5 113 c 128,-1,18
 777 146 777 146 839 200 c 1,19,-1
 878 118 l 1,20,21
 812 58 812 58 713.5 18.5 c 128,-1,22
 615 -21 615 -21 486 -21 c 0,0,1
628 1000 m 0,23,24
 496 1000 496 1000 390 900 c 128,-1,25
 284 800 284 800 245 650 c 1,26,-1
 247 644 l 1,27,-1
 867 644 l 1,28,-1
 870 669 l 1,29,30
 892 818 892 818 831 909 c 128,-1,31
 770 1000 770 1000 628 1000 c 0,23,24
EndSplineSet
Validated: 33
Substitution2: "'smcp' Lowercase to Small Capitals lookup 0 subtable" E.smcp
EndChar

StartChar: f
Encoding: 102 102 73
Width: 658
GlyphClass: 1
Flags: W
LayerCount: 2
Fore
SplineSet
160 0 m 1,0,-1
 307 984 l 1,1,-1
 129 984 l 1,2,-1
 143 1082 l 1,3,-1
 322 1082 l 1,4,-1
 346 1240 l 2,5,6
 371 1409 371 1409 465 1495 c 128,-1,7
 559 1581 559 1581 708 1581 c 0,8,9
 739 1581 739 1581 773 1576 c 128,-1,10
 807 1571 807 1571 841 1562 c 1,11,-1
 810 1463 l 1,12,13
 788 1469 788 1469 763 1472.5 c 128,-1,14
 738 1476 738 1476 704 1476 c 0,15,16
 610 1476 610 1476 546.5 1413.5 c 128,-1,17
 483 1351 483 1351 466 1240 c 2,18,-1
 442 1082 l 1,19,-1
 687 1082 l 1,20,-1
 673 984 l 1,21,-1
 428 984 l 1,22,-1
 280 0 l 1,23,-1
 160 0 l 1,0,-1
EndSplineSet
Validated: 1
Substitution2: "'smcp' Lowercase to Small Capitals lookup 0 subtable" F.smcp
EndChar

StartChar: g
Encoding: 103 103 74
Width: 1140
GlyphClass: 1
Flags: W
LayerCount: 2
Fore
SplineSet
115 532 m 2,0,1
 155 801 155 801 286 951.5 c 128,-1,2
 417 1102 417 1102 615 1102 c 0,3,4
 726 1102 726 1102 804.5 1051 c 128,-1,5
 883 1000 883 1000 925 907 c 1,6,-1
 969 1082 l 1,7,-1
 1066 1082 l 1,8,-1
 903 -6 l 2,9,10
 870 -221 870 -221 741 -329 c 128,-1,11
 612 -437 612 -437 401 -437 c 0,12,13
 325 -437 325 -437 238.5 -418 c 128,-1,14
 152 -399 152 -399 91 -366 c 1,15,-1
 129 -265 l 1,16,17
 190 -297 190 -297 261 -313.5 c 128,-1,18
 332 -330 332 -330 416 -330 c 0,19,20
 570 -330 570 -330 664 -247 c 128,-1,21
 758 -164 758 -164 782 -6 c 2,22,-1
 805 147 l 1,23,24
 738 66 738 66 647 22.5 c 128,-1,25
 556 -21 556 -21 445 -21 c 0,26,27
 259 -21 259 -21 167 125.5 c 128,-1,28
 75 272 75 272 112 511 c 2,29,-1
 115 532 l 2,0,1
232 511 m 2,30,31
 201 309 201 309 262.5 196 c 128,-1,32
 324 83 324 83 483 83 c 0,33,34
 593 83 593 83 679.5 135.5 c 128,-1,35
 766 188 766 188 825 278 c 1,36,-1
 902 792 l 1,37,38
 875 883 875 883 808.5 940.5 c 128,-1,39
 742 998 742 998 623 998 c 0,40,41
 471 998 471 998 368 866.5 c 128,-1,42
 265 735 265 735 235 532 c 2,43,-1
 232 511 l 2,30,31
EndSplineSet
Validated: 33
Substitution2: "'smcp' Lowercase to Small Capitals lookup 0 subtable" G.smcp
EndChar

StartChar: h
Encoding: 104 104 75
Width: 1140
GlyphClass: 1
Flags: W
LayerCount: 2
Fore
SplineSet
333 905 m 1,0,1
 402 1000 402 1000 499.5 1051 c 128,-1,2
 597 1102 597 1102 717 1102 c 0,3,4
 882 1102 882 1102 960.5 995 c 128,-1,5
 1039 888 1039 888 1006 667 c 2,6,-1
 906 0 l 1,7,-1
 786 0 l 1,8,-1
 886 669 l 2,9,10
 913 852 913 852 856.5 925 c 128,-1,11
 800 998 800 998 675 998 c 0,12,13
 552 998 552 998 460 934 c 128,-1,14
 368 870 368 870 312 764 c 1,15,-1
 198 0 l 1,16,-1
 78 0 l 1,17,-1
 312 1560 l 1,18,-1
 432 1560 l 1,19,-1
 333 905 l 1,0,1
EndSplineSet
Validated: 33
Substitution2: "'smcp' Lowercase to Small Capitals lookup 0 subtable" H.smcp
EndChar

StartChar: i
Encoding: 105 105 76
Width: 465
GlyphClass: 1
Flags: W
LayerCount: 2
Fore
SplineSet
212 0 m 1,0,-1
 93 0 l 1,1,-1
 255 1082 l 1,2,-1
 374 1082 l 1,3,-1
 212 0 l 1,0,-1
421 1392 m 1,4,-1
 302 1392 l 1,5,-1
 327 1560 l 1,6,-1
 446 1560 l 1,7,-1
 421 1392 l 1,4,-1
EndSplineSet
Validated: 1
Substitution2: "'smcp' Lowercase to Small Capitals lookup 0 subtable" I.smcp
EndChar

StartChar: j
Encoding: 106 106 77
Width: 484
GlyphClass: 1
Flags: W
LayerCount: 2
Fore
SplineSet
381 1082 m 1,0,-1
 206 -89 l 2,1,2
 179 -262 179 -262 87.5 -349.5 c 128,-1,3
 -4 -437 -4 -437 -149 -437 c 0,4,5
 -178 -437 -178 -437 -204 -432 c 128,-1,6
 -230 -427 -230 -427 -258 -418 c 1,7,-1
 -230 -317 l 1,8,9
 -215 -322 -215 -322 -187.5 -327 c 128,-1,10
 -160 -332 -160 -332 -139 -332 c 0,11,12
 -53 -332 -53 -332 7.5 -270 c 128,-1,13
 68 -208 68 -208 87 -89 c 2,14,-1
 262 1082 l 1,15,-1
 381 1082 l 1,0,-1
422 1396 m 1,16,-1
 303 1396 l 1,17,-1
 328 1560 l 1,18,-1
 447 1560 l 1,19,-1
 422 1396 l 1,16,-1
EndSplineSet
Validated: 1
Substitution2: "'smcp' Lowercase to Small Capitals lookup 0 subtable" J.smcp
EndChar

StartChar: k
Encoding: 107 107 78
Width: 1006
GlyphClass: 1
Flags: W
LayerCount: 2
Fore
SplineSet
404 527 m 1,0,-1
 278 527 l 1,1,-1
 199 0 l 1,2,-1
 79 0 l 1,3,-1
 313 1560 l 1,4,-1
 433 1560 l 1,5,-1
 293 630 l 1,6,-1
 408 630 l 1,7,-1
 890 1082 l 1,8,-1
 1029 1082 l 1,9,-1
 1031 1076 l 1,10,-1
 514 586 l 1,11,-1
 910 0 l 1,12,-1
 766 0 l 1,13,-1
 404 527 l 1,0,-1
EndSplineSet
Validated: 1
Substitution2: "'smcp' Lowercase to Small Capitals lookup 0 subtable" K.smcp
EndChar

StartChar: l
Encoding: 108 108 79
Width: 465
GlyphClass: 1
Flags: W
LayerCount: 2
Fore
SplineSet
212 0 m 1,0,-1
 93 0 l 1,1,-1
 327 1560 l 1,2,-1
 446 1560 l 1,3,-1
 212 0 l 1,0,-1
EndSplineSet
Validated: 1
Substitution2: "'smcp' Lowercase to Small Capitals lookup 0 subtable" L.smcp
EndChar

StartChar: m
Encoding: 109 109 80
Width: 1815
GlyphClass: 1
Flags: W
LayerCount: 2
Fore
SplineSet
327 911 m 1,0,1
 392 1003 392 1003 486 1052.5 c 128,-1,2
 580 1102 580 1102 700 1102 c 0,3,4
 818 1102 818 1102 893 1043 c 128,-1,5
 968 984 968 984 988 863 c 1,6,7
 1053 976 1053 976 1153.5 1039 c 128,-1,8
 1254 1102 1254 1102 1384 1102 c 0,9,10
 1551 1102 1551 1102 1631 985.5 c 128,-1,11
 1711 869 1711 869 1676 631 c 2,12,-1
 1581 0 l 1,13,-1
 1461 0 l 1,14,-1
 1556 633 l 2,15,16
 1587 841 1587 841 1529.5 919.5 c 128,-1,17
 1472 998 1472 998 1344 998 c 0,18,19
 1212 998 1212 998 1122 912 c 128,-1,20
 1032 826 1032 826 991 693 c 1,21,-1
 985 649 l 1,22,-1
 888 0 l 1,23,-1
 767 0 l 1,24,-1
 862 633 l 2,25,26
 892 837 892 837 834.5 917.5 c 128,-1,27
 777 998 777 998 649 998 c 0,28,29
 526 998 526 998 441 932 c 128,-1,30
 356 866 356 866 307 756 c 1,31,-1
 194 0 l 1,32,-1
 74 0 l 1,33,-1
 236 1082 l 1,34,-1
 342 1082 l 1,35,-1
 327 911 l 1,0,1
EndSplineSet
Validated: 33
Substitution2: "'smcp' Lowercase to Small Capitals lookup 0 subtable" M.smcp
EndChar

StartChar: n
Encoding: 110 110 81
Width: 1140
GlyphClass: 1
Flags: W
LayerCount: 2
Fore
SplineSet
330 901 m 1,0,1
 397 998 397 998 492.5 1050 c 128,-1,2
 588 1102 588 1102 710 1102 c 0,3,4
 880 1102 880 1102 959 993.5 c 128,-1,5
 1038 885 1038 885 1004 659 c 2,6,-1
 905 0 l 1,7,-1
 785 0 l 1,8,-1
 884 658 l 2,9,10
 912 851 912 851 855.5 924.5 c 128,-1,11
 799 998 799 998 668 998 c 0,12,13
 544 998 544 998 454.5 932.5 c 128,-1,14
 365 867 365 867 312 759 c 1,15,-1
 198 0 l 1,16,-1
 78 0 l 1,17,-1
 240 1082 l 1,18,-1
 346 1082 l 1,19,-1
 330 901 l 1,0,1
EndSplineSet
Validated: 33
Substitution2: "'smcp' Lowercase to Small Capitals lookup 0 subtable" N.smcp
EndChar

StartChar: o
Encoding: 111 111 82
Width: 1140
GlyphClass: 1
Flags: W
LayerCount: 2
Fore
SplineSet
95 557 m 2,0,1
 131 805 131 805 283 953.5 c 128,-1,2
 435 1102 435 1102 654 1102 c 0,3,4
 862 1102 862 1102 974.5 947.5 c 128,-1,5
 1087 793 1087 793 1052 557 c 2,6,-1
 1047 524 l 2,7,8
 1009 275 1009 275 857.5 127 c 128,-1,9
 706 -21 706 -21 488 -21 c 0,10,11
 279 -21 279 -21 166.5 133 c 128,-1,12
 54 287 54 287 90 524 c 2,13,-1
 95 557 l 2,0,1
210 524 m 2,14,15
 180 329 180 329 255.5 204.5 c 128,-1,16
 331 80 331 80 503 80 c 0,17,18
 663 80 663 80 781 209.5 c 128,-1,19
 899 339 899 339 928 524 c 2,20,-1
 933 557 l 2,21,22
 961 749 961 749 884.5 874.5 c 128,-1,23
 808 1000 808 1000 639 1000 c 0,24,25
 478 1000 478 1000 360 869.5 c 128,-1,26
 242 739 242 739 215 557 c 2,27,-1
 210 524 l 2,14,15
EndSplineSet
Validated: 33
Substitution2: "'smcp' Lowercase to Small Capitals lookup 0 subtable" O.smcp
EndChar

StartChar: p
Encoding: 112 112 83
Width: 1140
GlyphClass: 1
Flags: W
LayerCount: 2
Fore
SplineSet
1026 511 m 2,0,1
 988 259 988 259 858.5 119 c 128,-1,2
 729 -21 729 -21 533 -21 c 0,3,4
 423 -21 423 -21 343.5 23.5 c 128,-1,5
 264 68 264 68 220 149 c 1,6,-1
 136 -416 l 1,7,-1
 16 -416 l 1,8,-1
 240 1082 l 1,9,-1
 332 1082 l 1,10,-1
 329 913 l 1,11,12
 397 1004 397 1004 490 1053 c 128,-1,13
 583 1102 583 1102 699 1102 c 0,14,15
 887 1102 887 1102 977 945 c 128,-1,16
 1067 788 1067 788 1029 532 c 2,17,-1
 1026 511 l 2,0,1
909 532 m 2,18,19
 941 745 941 745 878.5 871.5 c 128,-1,20
 816 998 816 998 657 998 c 0,21,22
 541 998 541 998 455.5 939 c 128,-1,23
 370 880 370 880 316 788 c 1,24,-1
 238 269 l 1,25,26
 267 181 267 181 336.5 130.5 c 128,-1,27
 406 80 406 80 521 80 c 0,28,29
 672 80 672 80 774 199.5 c 128,-1,30
 876 319 876 319 906 511 c 2,31,-1
 909 532 l 2,18,19
EndSplineSet
Validated: 33
Substitution2: "'smcp' Lowercase to Small Capitals lookup 0 subtable" P.smcp
EndChar

StartChar: q
Encoding: 113 113 84
Width: 1140
GlyphClass: 1
Flags: W
LayerCount: 2
Fore
SplineSet
111 532 m 2,0,1
 151 801 151 801 282 951.5 c 128,-1,2
 413 1102 413 1102 611 1102 c 0,3,4
 719 1102 719 1102 796 1053.5 c 128,-1,5
 873 1005 873 1005 916 917 c 1,6,-1
 960 1082 l 1,7,-1
 1056 1082 l 1,8,-1
 832 -416 l 1,9,-1
 712 -416 l 1,10,-1
 795 141 l 1,11,12
 729 63 729 63 639.5 21 c 128,-1,13
 550 -21 550 -21 441 -21 c 0,14,15
 254 -21 254 -21 162.5 125.5 c 128,-1,16
 71 272 71 272 108 511 c 2,17,-1
 111 532 l 2,0,1
228 511 m 2,18,19
 197 308 197 308 258 194 c 128,-1,20
 319 80 319 80 478 80 c 0,21,22
 586 80 586 80 671 131 c 128,-1,23
 756 182 756 182 814 269 c 1,24,-1
 894 802 l 1,25,26
 866 890 866 890 800 945 c 128,-1,27
 734 1000 734 1000 618 1000 c 0,28,29
 466 1000 466 1000 363.5 868 c 128,-1,30
 261 736 261 736 231 532 c 2,31,-1
 228 511 l 2,18,19
EndSplineSet
Validated: 33
Substitution2: "'smcp' Lowercase to Small Capitals lookup 0 subtable" Q.smcp
EndChar

StartChar: r
Encoding: 114 114 85
Width: 699
GlyphClass: 1
Flags: W
LayerCount: 2
Fore
SplineSet
719 979 m 1,0,-1
 635 985 l 1,1,2
 526 985 526 985 442 919 c 128,-1,3
 358 853 358 853 309 740 c 1,4,-1
 198 0 l 1,5,-1
 78 0 l 1,6,-1
 240 1082 l 1,7,-1
 345 1082 l 1,8,-1
 333 902 l 1,9,-1
 332 896 l 1,10,11
 393 994 393 994 480 1048 c 128,-1,12
 567 1102 567 1102 677 1102 c 0,13,14
 698 1102 698 1102 718.5 1098.5 c 128,-1,15
 739 1095 739 1095 751 1091 c 1,16,-1
 719 979 l 1,0,-1
EndSplineSet
Validated: 1
Substitution2: "'smcp' Lowercase to Small Capitals lookup 0 subtable" R.smcp
EndChar

StartChar: s
Encoding: 115 115 86
Width: 1043
GlyphClass: 1
Flags: W
LayerCount: 2
Fore
SplineSet
770 277 m 0,0,1
 780 356 780 356 726 411 c 128,-1,2
 672 466 672 466 513 502 c 0,3,4
 327 542 327 542 243 611.5 c 128,-1,5
 159 681 159 681 177 806 c 0,6,7
 195 935 195 935 310 1018.5 c 128,-1,8
 425 1102 425 1102 599 1102 c 256,9,10
 773 1102 773 1102 871.5 1009.5 c 128,-1,11
 970 917 970 917 947 785 c 1,12,-1
 945 779 l 1,13,-1
 833 779 l 1,14,15
 846 871 846 871 779.5 935.5 c 128,-1,16
 713 1000 713 1000 585 1000 c 0,17,18
 460 1000 460 1000 383 942 c 128,-1,19
 306 884 306 884 296 810 c 0,20,21
 286 733 286 733 335 686 c 128,-1,22
 384 639 384 639 549 602 c 0,23,24
 733 560 733 560 820 485 c 128,-1,25
 907 410 907 410 890 283 c 0,26,27
 869 143 869 143 749.5 61 c 128,-1,28
 630 -21 630 -21 448 -21 c 0,29,30
 259 -21 259 -21 156 74 c 128,-1,31
 53 169 53 169 77 297 c 1,32,-1
 79 303 l 1,33,-1
 189 303 l 1,34,35
 180 186 180 186 261.5 133 c 128,-1,36
 343 80 343 80 462 80 c 0,37,38
 586 80 586 80 672 138.5 c 128,-1,39
 758 197 758 197 770 277 c 0,0,1
EndSplineSet
Validated: 33
Substitution2: "'smcp' Lowercase to Small Capitals lookup 0 subtable" S.smcp
EndChar

StartChar: t
Encoding: 116 116 87
Width: 659
GlyphClass: 1
Flags: W
LayerCount: 2
Fore
SplineSet
469 1359 m 1,0,-1
 427 1082 l 1,1,-1
 665 1082 l 1,2,-1
 651 984 l 1,3,-1
 412 984 l 1,4,-1
 307 279 l 2,5,6
 290 168 290 168 322 126 c 128,-1,7
 354 84 354 84 419 84 c 0,8,9
 440 84 440 84 462.5 87 c 128,-1,10
 485 90 485 90 511 95 c 1,11,-1
 516 6 l 1,12,13
 489 -7 489 -7 453 -14 c 128,-1,14
 417 -21 417 -21 382 -21 c 0,15,16
 272 -21 272 -21 217 51.5 c 128,-1,17
 162 124 162 124 186 279 c 2,18,-1
 291 984 l 1,19,-1
 105 984 l 1,20,-1
 119 1082 l 1,21,-1
 306 1082 l 1,22,-1
 348 1359 l 1,23,-1
 469 1359 l 1,0,-1
EndSplineSet
Validated: 33
Substitution2: "'smcp' Lowercase to Small Capitals lookup 0 subtable" T.smcp
EndChar

StartChar: u
Encoding: 117 117 88
Width: 1140
GlyphClass: 1
Flags: W
LayerCount: 2
Fore
SplineSet
796 0 m 1,0,-1
 812 171 l 1,1,2
 746 78 746 78 651 28.5 c 128,-1,3
 556 -21 556 -21 436 -21 c 0,4,5
 271 -21 271 -21 188.5 96 c 128,-1,6
 106 213 106 213 142 455 c 2,7,-1
 236 1082 l 1,8,-1
 356 1082 l 1,9,-1
 262 453 l 2,10,11
 230 247 230 247 284 165 c 128,-1,12
 338 83 338 83 465 83 c 0,13,14
 597 83 597 83 688.5 146 c 128,-1,15
 780 209 780 209 830 317 c 1,16,-1
 944 1082 l 1,17,-1
 1064 1082 l 1,18,-1
 902 0 l 1,19,-1
 796 0 l 1,0,-1
EndSplineSet
Validated: 33
Substitution2: "'smcp' Lowercase to Small Capitals lookup 0 subtable" U.smcp
EndChar

StartChar: v
Encoding: 118 118 89
Width: 1002
GlyphClass: 1
Flags: W
LayerCount: 2
Fore
SplineSet
427 271 m 1,0,-1
 444 145 l 1,1,-1
 449 144 l 1,2,-1
 506 271 l 1,3,-1
 921 1082 l 1,4,-1
 1045 1082 l 1,5,-1
 472 0 l 1,6,-1
 376 0 l 1,7,-1
 126 1082 l 1,8,-1
 250 1082 l 1,9,-1
 427 271 l 1,0,-1
EndSplineSet
Validated: 1
Substitution2: "'smcp' Lowercase to Small Capitals lookup 0 subtable" V.smcp
EndChar

StartChar: w
Encoding: 119 119 90
Width: 1550
GlyphClass: 1
Flags: W
LayerCount: 2
Fore
SplineSet
364 351 m 1,0,-1
 376 154 l 1,1,-1
 382 153 l 1,2,-1
 462 351 l 1,3,-1
 801 1082 l 1,4,-1
 904 1082 l 1,5,-1
 1025 351 l 1,6,-1
 1045 147 l 1,7,-1
 1051 146 l 1,8,-1
 1128 351 l 1,9,-1
 1430 1082 l 1,10,-1
 1558 1082 l 1,11,-1
 1081 0 l 1,12,-1
 979 0 l 1,13,-1
 845 740 l 1,14,-1
 828 914 l 1,15,-1
 822 915 l 1,16,-1
 753 740 l 1,17,-1
 402 0 l 1,18,-1
 299 0 l 1,19,-1
 147 1082 l 1,20,-1
 275 1082 l 1,21,-1
 364 351 l 1,0,-1
EndSplineSet
Validated: 1
Substitution2: "'smcp' Lowercase to Small Capitals lookup 0 subtable" W.smcp
EndChar

StartChar: x
Encoding: 120 120 91
Width: 1002
GlyphClass: 1
Flags: W
LayerCount: 2
Fore
SplineSet
514 640 m 1,0,-1
 873 1082 l 1,1,-1
 1008 1082 l 1,2,-1
 1010 1077 l 1,3,-1
 569 551 l 1,4,-1
 868 0 l 1,5,-1
 728 0 l 1,6,-1
 489 461 l 1,7,-1
 112 0 l 1,8,-1
 -23 0 l 1,9,-1
 -25 5 l 1,10,-1
 436 551 l 1,11,-1
 148 1082 l 1,12,-1
 289 1082 l 1,13,-1
 514 640 l 1,0,-1
EndSplineSet
Validated: 1
Substitution2: "'smcp' Lowercase to Small Capitals lookup 0 subtable" X.smcp
EndChar

StartChar: y
Encoding: 121 121 92
Width: 1002
GlyphClass: 1
Flags: W
LayerCount: 2
Fore
SplineSet
429 293 m 1,0,-1
 448 164 l 1,1,-1
 454 163 l 1,2,-1
 918 1082 l 1,3,-1
 1052 1082 l 1,4,-1
 394 -173 l 2,5,6
 335 -283 335 -283 256.5 -360 c 128,-1,7
 178 -437 178 -437 49 -437 c 0,8,9
 29 -437 29 -437 0 -432.5 c 128,-1,10
 -29 -428 -29 -428 -43 -423 c 1,11,-1
 -14 -323 l 1,12,13
 -2 -325 -2 -325 24 -327.5 c 128,-1,14
 50 -330 50 -330 62 -330 c 0,15,16
 137 -330 137 -330 194.5 -273 c 128,-1,17
 252 -216 252 -216 296 -132 c 2,18,-1
 375 14 l 1,19,-1
 117 1082 l 1,20,-1
 250 1082 l 1,21,-1
 429 293 l 1,0,-1
EndSplineSet
Validated: 1
Substitution2: "'smcp' Lowercase to Small Capitals lookup 0 subtable" Y.smcp
EndChar

StartChar: z
Encoding: 122 122 93
Width: 1002
GlyphClass: 1
Flags: W
LayerCount: 2
Fore
SplineSet
178 106 m 1,0,-1
 180 101 l 1,1,-1
 876 101 l 1,2,-1
 861 0 l 1,3,-1
 10 0 l 1,4,-1
 23 88 l 1,5,-1
 804 974 l 1,6,-1
 802 979 l 1,7,-1
 177 979 l 1,8,-1
 192 1082 l 1,9,-1
 975 1082 l 1,10,-1
 962 993 l 1,11,-1
 178 106 l 1,0,-1
EndSplineSet
Validated: 1
Substitution2: "'smcp' Lowercase to Small Capitals lookup 0 subtable" Z.smcp
EndChar

StartChar: braceleft
Encoding: 123 123 94
Width: 676
GlyphClass: 1
Flags: W
LayerCount: 2
Fore
SplineSet
505 -404 m 1,0,1
 330 -349 330 -349 269 -230.5 c 128,-1,2
 208 -112 208 -112 232 58 c 2,3,-1
 264 284 l 2,4,5
 281 411 281 411 234.5 477 c 128,-1,6
 188 543 188 543 69 543 c 1,7,-1
 72 566 l 1,8,-1
 80 624 l 1,9,-1
 84 647 l 1,10,11
 198 647 198 647 266 715 c 128,-1,12
 334 783 334 783 351 904 c 2,13,-1
 382 1132 l 2,14,15
 406 1309 406 1309 500 1425.5 c 128,-1,16
 594 1542 594 1542 786 1597 c 1,17,-1
 801 1518 l 1,18,19
 668 1477 668 1477 595 1376.5 c 128,-1,20
 522 1276 522 1276 502 1132 c 2,21,-1
 471 904 l 2,22,23
 454 789 454 789 397.5 709 c 128,-1,24
 341 629 341 629 242 593 c 1,25,26
 327 554 327 554 362.5 472 c 128,-1,27
 398 390 398 390 384 284 c 2,28,-1
 352 58 l 2,29,30
 331 -89 331 -89 376.5 -185 c 128,-1,31
 422 -281 422 -281 546 -324 c 1,32,-1
 505 -404 l 1,0,1
EndSplineSet
Validated: 33
EndChar

StartChar: bar
Encoding: 124 124 95
Width: 452
GlyphClass: 1
Flags: W
LayerCount: 2
Fore
SplineSet
164 -270 m 1,0,-1
 44 -270 l 1,1,-1
 302 1456 l 1,2,-1
 422 1456 l 1,3,-1
 164 -270 l 1,0,-1
EndSplineSet
Validated: 1
EndChar

StartChar: braceright
Encoding: 125 125 96
Width: 676
GlyphClass: 1
Flags: W
LayerCount: 2
Fore
SplineSet
-111 -324 m 1,0,1
 22 -282 22 -282 95.5 -183 c 128,-1,2
 169 -84 169 -84 189 58 c 2,3,-1
 221 284 l 2,4,5
 237 401 237 401 295.5 481 c 128,-1,6
 354 561 354 561 459 596 c 1,7,8
 368 631 368 631 330 712.5 c 128,-1,9
 292 794 292 794 308 904 c 2,10,-1
 339 1132 l 2,11,12
 360 1281 360 1281 316 1378.5 c 128,-1,13
 272 1476 272 1476 150 1518 c 1,14,-1
 187 1597 l 1,15,16
 362 1542 362 1542 422.5 1422.5 c 128,-1,17
 483 1303 483 1303 459 1132 c 2,18,-1
 428 904 l 2,19,20
 410 777 410 777 456.5 712 c 128,-1,21
 503 647 503 647 623 647 c 1,22,-1
 612 570 l 1,23,-1
 608 543 l 1,24,25
 494 543 494 543 425.5 473.5 c 128,-1,26
 357 404 357 404 341 284 c 2,27,-1
 309 58 l 2,28,29
 284 -118 284 -118 191 -233.5 c 128,-1,30
 98 -349 98 -349 -94 -404 c 1,31,-1
 -111 -324 l 1,0,1
EndSplineSet
Validated: 33
EndChar

StartChar: asciitilde
Encoding: 126 126 97
Width: 1402
GlyphClass: 1
Flags: W
LayerCount: 2
Fore
SplineSet
1286 740 m 1,0,1
 1266 606 1266 606 1173 514.5 c 128,-1,2
 1080 423 1080 423 958 423 c 0,3,4
 873 423 873 423 803.5 459.5 c 128,-1,5
 734 496 734 496 658 573 c 0,6,7
 602 627 602 627 551 653.5 c 128,-1,8
 500 680 500 680 444 680 c 0,9,10
 368 680 368 680 305 619 c 128,-1,11
 242 558 242 558 229 459 c 1,12,-1
 134 474 l 1,13,14
 153 611 153 611 244 699 c 128,-1,15
 335 787 335 787 459 787 c 0,16,17
 542 787 542 787 613 749 c 128,-1,18
 684 711 684 711 761 637 c 0,19,20
 817 580 817 580 866.5 554.5 c 128,-1,21
 916 529 916 529 973 529 c 0,22,23
 1047 529 1047 529 1111.5 593.5 c 128,-1,24
 1176 658 1176 658 1190 755 c 1,25,-1
 1286 740 l 1,0,1
EndSplineSet
Validated: 1
EndChar

StartChar: exclamdown
Encoding: 161 161 99
Width: 452
GlyphClass: 1
Flags: W
LayerCount: 2
Fore
SplineSet
140 -374 m 1,0,-1
 20 -374 l 1,1,-1
 167 604 l 1,2,-1
 287 604 l 1,3,-1
 140 -374 l 1,0,-1
342 898 m 1,4,-1
 200 898 l 1,5,-1
 227 1082 l 1,6,-1
 369 1082 l 1,7,-1
 342 898 l 1,4,-1
EndSplineSet
Validated: 1
EndChar

StartChar: cent
Encoding: 162 162 100
Width: 1115
GlyphClass: 1
Flags: W
LayerCount: 2
Fore
SplineSet
486 80 m 0,0,1
 597 80 597 80 697.5 148.5 c 128,-1,2
 798 217 798 217 817 337 c 1,3,-1
 924 337 l 1,4,-1
 926 331 l 1,5,6
 908 196 908 196 801.5 102.5 c 128,-1,7
 695 9 695 9 554 -14 c 1,8,-1
 520 -245 l 1,9,-1
 400 -245 l 1,10,-1
 434 -19 l 1,11,12
 244 -4 244 -4 152.5 146.5 c 128,-1,13
 61 297 61 297 95 520 c 2,14,-1
 101 562 l 2,15,16
 136 796 136 796 267.5 942 c 128,-1,17
 399 1088 399 1088 602 1101 c 1,18,-1
 635 1318 l 1,19,-1
 755 1318 l 1,20,-1
 721 1094 l 1,21,22
 857 1067 857 1067 933.5 966 c 128,-1,23
 1010 865 1010 865 988 715 c 1,24,-1
 873 715 l 1,25,26
 893 850 893 850 820.5 925 c 128,-1,27
 748 1000 748 1000 623 1000 c 0,28,29
 460 1000 460 1000 354.5 873 c 128,-1,30
 249 746 249 746 221 562 c 2,31,-1
 215 520 l 2,32,33
 185 323 185 323 249 201.5 c 128,-1,34
 313 80 313 80 486 80 c 0,0,1
EndSplineSet
Validated: 33
EndChar

StartChar: sterling
Encoding: 163 163 101
Width: 1170
GlyphClass: 1
Flags: W
LayerCount: 2
Fore
SplineSet
410 642 m 1,0,-1
 390 466 l 1,1,2
 373 354 373 354 334 259 c 128,-1,3
 295 164 295 164 239 101 c 1,4,-1
 1007 101 l 1,5,-1
 992 0 l 1,6,-1
 51 0 l 1,7,-1
 66 101 l 1,8,-1
 76 101 l 1,9,10
 148 116 148 116 200.5 231 c 128,-1,11
 253 346 253 346 271 466 c 1,12,-1
 290 642 l 1,13,-1
 83 642 l 1,14,-1
 99 744 l 1,15,-1
 302 744 l 1,16,-1
 335 1040 l 1,17,18
 367 1252 367 1252 489 1364.5 c 128,-1,19
 611 1477 611 1477 791 1477 c 0,20,21
 970 1477 970 1477 1052.5 1372.5 c 128,-1,22
 1135 1268 1135 1268 1106 1095 c 1,23,-1
 1103 1090 l 1,24,-1
 990 1090 l 1,25,26
 1012 1244 1012 1244 954.5 1309.5 c 128,-1,27
 897 1375 897 1375 775 1375 c 0,28,29
 655 1375 655 1375 566.5 1286 c 128,-1,30
 478 1197 478 1197 455 1040 c 1,31,-1
 421 744 l 1,32,-1
 872 744 l 1,33,-1
 856 642 l 1,34,-1
 410 642 l 1,0,-1
EndSplineSet
Validated: 33
EndChar

StartChar: currency
Encoding: 164 164 102
Width: 1481
GlyphClass: 1
Flags: W
LayerCount: 2
Fore
SplineSet
1074 130 m 1,0,1
 983 58 983 58 876 19 c 128,-1,2
 769 -20 769 -20 657 -20 c 0,3,4
 550 -20 550 -20 455.5 20.5 c 128,-1,5
 361 61 361 61 292 135 c 1,6,-1
 110 -26 l 1,7,-1
 38 60 l 1,8,-1
 224 224 l 1,9,10
 175 304 175 304 156.5 402 c 128,-1,11
 138 500 138 500 155 608 c 0,12,13
 172 724 172 724 221 826 c 128,-1,14
 270 928 270 928 345 1009 c 1,15,-1
 206 1177 l 1,16,-1
 304 1264 l 1,17,-1
 442 1097 l 1,18,19
 530 1163 530 1163 633 1198.5 c 128,-1,20
 736 1234 736 1234 845 1234 c 0,21,22
 947 1234 947 1234 1038.5 1196 c 128,-1,23
 1130 1158 1130 1158 1200 1089 c 1,24,-1
 1399 1265 l 1,25,-1
 1472 1177 l 1,26,-1
 1271 999 l 1,27,28
 1321 917 1321 917 1341 817.5 c 128,-1,29
 1361 718 1361 718 1345 608 c 0,30,31
 1328 497 1328 497 1282.5 398.5 c 128,-1,32
 1237 300 1237 300 1169 221 c 1,33,-1
 1304 60 l 1,34,-1
 1205 -27 l 1,35,-1
 1074 130 l 1,0,1
268 608 m 0,36,37
 234 385 234 385 353 238 c 128,-1,38
 472 91 472 91 674 91 c 0,39,40
 864 91 864 91 1032 243.5 c 128,-1,41
 1200 396 1200 396 1232 608 c 0,42,43
 1265 829 1265 829 1146.5 975.5 c 128,-1,44
 1028 1122 1028 1122 828 1122 c 0,45,46
 636 1122 636 1122 467.5 970 c 128,-1,47
 299 818 299 818 268 608 c 0,36,37
EndSplineSet
Validated: 33
EndChar

StartChar: yen
Encoding: 165 165 103
Width: 1223
GlyphClass: 1
Flags: W
LayerCount: 2
Fore
SplineSet
637 734 m 1,0,-1
 1169 1456 l 1,1,-1
 1308 1456 l 1,2,-1
 741 705 l 1,3,-1
 1112 705 l 1,4,-1
 1099 618 l 1,5,-1
 678 618 l 1,6,-1
 647 412 l 1,7,-1
 1068 412 l 1,8,-1
 1055 326 l 1,9,-1
 634 326 l 1,10,-1
 585 0 l 1,11,-1
 466 0 l 1,12,-1
 515 326 l 1,13,-1
 99 326 l 1,14,-1
 112 412 l 1,15,-1
 528 412 l 1,16,-1
 559 618 l 1,17,-1
 143 618 l 1,18,-1
 156 705 l 1,19,-1
 526 705 l 1,20,-1
 183 1456 l 1,21,-1
 322 1456 l 1,22,-1
 637 734 l 1,0,-1
EndSplineSet
Validated: 1
EndChar

StartChar: brokenbar
Encoding: 166 166 104
Width: 444
GlyphClass: 1
Flags: W
LayerCount: 2
Fore
SplineSet
39 -270 m 1,0,-1
 154 501 l 1,1,-1
 274 501 l 1,2,-1
 159 -270 l 1,3,-1
 39 -270 l 1,0,-1
304 698 m 1,4,-1
 184 698 l 1,5,-1
 297 1456 l 1,6,-1
 417 1456 l 1,7,-1
 304 698 l 1,4,-1
EndSplineSet
Validated: 1
EndChar

StartChar: section
Encoding: 167 167 105
Width: 1239
GlyphClass: 1
Flags: W
LayerCount: 2
Fore
SplineSet
1104 431 m 0,0,1
 1088 329 1088 329 1017 259.5 c 128,-1,2
 946 190 946 190 832 158 c 1,3,4
 918 109 918 109 954 38.5 c 128,-1,5
 990 -32 990 -32 974 -139 c 0,6,7
 948 -311 948 -311 808.5 -403 c 128,-1,8
 669 -495 669 -495 452 -495 c 0,9,10
 246 -495 246 -495 113.5 -391.5 c 128,-1,11
 -19 -288 -19 -288 18 -69 c 1,12,-1
 20 -64 l 1,13,-1
 133 -62 l 1,14,15
 105 -242 105 -242 205 -317.5 c 128,-1,16
 305 -393 305 -393 467 -393 c 0,17,18
 623 -393 623 -393 729.5 -321.5 c 128,-1,19
 836 -250 836 -250 853 -141 c 0,20,21
 869 -31 869 -31 802.5 27 c 128,-1,22
 736 85 736 85 527 146 c 1,23,24
 293 207 293 207 189 295.5 c 128,-1,25
 85 384 85 384 111 551 c 0,26,27
 125 652 125 652 193.5 722.5 c 128,-1,28
 262 793 262 793 373 825 c 1,29,30
 292 874 292 874 258.5 945 c 128,-1,31
 225 1016 225 1016 241 1120 c 0,32,33
 266 1287 266 1287 407.5 1382 c 128,-1,34
 549 1477 549 1477 766 1477 c 0,35,36
 980 1477 980 1477 1091.5 1364 c 128,-1,37
 1203 1251 1203 1251 1169 1052 c 1,38,-1
 1166 1046 l 1,39,-1
 1054 1046 l 1,40,41
 1075 1192 1075 1192 996 1283.5 c 128,-1,42
 917 1375 917 1375 750 1375 c 0,43,44
 584 1375 584 1375 480.5 1303 c 128,-1,45
 377 1231 377 1231 361 1123 c 0,46,47
 343 1006 343 1006 407.5 949 c 128,-1,48
 472 892 472 892 690 828 c 1,49,50
 928 763 928 763 1028 679.5 c 128,-1,51
 1128 596 1128 596 1104 431 c 0,0,1
625 729 m 0,52,53
 588 738 588 738 554 748.5 c 128,-1,54
 520 759 520 759 490 771 c 1,55,56
 379 757 379 757 311.5 697.5 c 128,-1,57
 244 638 244 638 231 553 c 0,58,59
 213 432 213 432 281.5 376 c 128,-1,60
 350 320 350 320 588 251 c 0,61,62
 621 241 621 241 650 232 c 128,-1,63
 679 223 679 223 707 214 c 1,64,65
 820 228 820 228 895 286.5 c 128,-1,66
 970 345 970 345 983 428 c 0,67,68
 999 539 999 539 925 599.5 c 128,-1,69
 851 660 851 660 625 729 c 0,52,53
EndSplineSet
Validated: 33
EndChar

StartChar: dieresis
Encoding: 168 168 106
Width: 959
GlyphClass: 1
Flags: W
LayerCount: 2
Fore
SplineSet
912 1299 m 1,0,-1
 739 1299 l 1,1,-1
 761 1456 l 1,2,-1
 934 1456 l 1,3,-1
 912 1299 l 1,0,-1
443 1299 m 1,4,-1
 269 1299 l 1,5,-1
 291 1456 l 1,6,-1
 465 1456 l 1,7,-1
 443 1299 l 1,4,-1
EndSplineSet
Validated: 1
EndChar

StartChar: copyright
Encoding: 169 169 107
Width: 1637
GlyphClass: 1
Flags: W
LayerCount: 2
Fore
SplineSet
1121 596 m 1,0,-1
 1124 590 l 1,1,2
 1104 434 1104 434 1011 358 c 128,-1,3
 918 282 918 282 769 282 c 0,4,5
 624 282 624 282 546 389.5 c 128,-1,6
 468 497 468 497 494 669 c 2,7,-1
 512 788 l 2,8,9
 538 967 538 967 644 1071 c 128,-1,10
 750 1175 750 1175 903 1175 c 0,11,12
 1044 1175 1044 1175 1118 1095 c 128,-1,13
 1192 1015 1192 1015 1166 867 c 1,14,-1
 1164 862 l 1,15,-1
 1072 862 l 1,16,17
 1089 979 1089 979 1043.5 1032 c 128,-1,18
 998 1085 998 1085 890 1085 c 0,19,20
 784 1085 784 1085 707 1000.5 c 128,-1,21
 630 916 630 916 611 789 c 2,22,-1
 593 669 l 2,23,24
 573 532 573 532 622 452 c 128,-1,25
 671 372 671 372 783 372 c 0,26,27
 886 372 886 372 950 426.5 c 128,-1,28
 1014 481 1014 481 1031 596 c 1,29,-1
 1121 596 l 1,0,-1
221 729 m 0,30,31
 178 439 178 439 331 252 c 128,-1,32
 484 65 484 65 747 65 c 0,33,34
 995 65 995 65 1211.5 259 c 128,-1,35
 1428 453 1428 453 1470 729 c 0,36,37
 1513 1017 1513 1017 1359.5 1203 c 128,-1,38
 1206 1389 1206 1389 945 1389 c 0,39,40
 695 1389 695 1389 478.5 1196 c 128,-1,41
 262 1003 262 1003 221 729 c 0,30,31
136 729 m 0,42,43
 185 1056 185 1056 421.5 1266 c 128,-1,44
 658 1476 658 1476 958 1476 c 0,45,46
 1241 1476 1241 1476 1421.5 1258 c 128,-1,47
 1602 1040 1602 1040 1555 729 c 0,48,49
 1506 401 1506 401 1269 190 c 128,-1,50
 1032 -21 1032 -21 734 -21 c 0,51,52
 450 -21 450 -21 269.5 197.5 c 128,-1,53
 89 416 89 416 136 729 c 0,42,43
EndSplineSet
Validated: 33
EndChar

StartChar: ordfeminine
Encoding: 170 170 108
Width: 906
GlyphClass: 1
Flags: W
LayerCount: 2
Fore
SplineSet
675 706 m 1,0,1
 670 730 670 730 668.5 757 c 128,-1,2
 667 784 667 784 669 813 c 1,3,4
 624 760 624 760 557 726 c 128,-1,5
 490 692 490 692 408 692 c 0,6,7
 294 692 294 692 235.5 754 c 128,-1,8
 177 816 177 816 193 920 c 0,9,10
 209 1029 209 1029 295.5 1085 c 128,-1,11
 382 1141 382 1141 534 1141 c 2,12,-1
 715 1141 l 1,13,-1
 725 1202 l 2,14,15
 738 1290 738 1290 704.5 1335 c 128,-1,16
 671 1380 671 1380 591 1380 c 0,17,18
 502 1380 502 1380 444 1342 c 128,-1,19
 386 1304 386 1304 376 1234 c 1,20,-1
 280 1243 l 1,21,-1
 278 1249 l 1,22,23
 288 1351 288 1351 378.5 1414 c 128,-1,24
 469 1477 469 1477 606 1477 c 0,25,26
 725 1477 725 1477 789.5 1405 c 128,-1,27
 854 1333 854 1333 834 1201 c 2,28,-1
 787 887 l 2,29,30
 779 837 779 837 779 794 c 128,-1,31
 779 751 779 751 786 706 c 1,32,-1
 675 706 l 1,0,1
442 787 m 0,33,34
 509 787 509 787 580.5 825 c 128,-1,35
 652 863 652 863 681 909 c 1,36,-1
 703 1057 l 1,37,-1
 523 1057 l 2,38,39
 431 1057 431 1057 370 1018 c 128,-1,40
 309 979 309 979 302 924 c 0,41,42
 291 856 291 856 325 821.5 c 128,-1,43
 359 787 359 787 442 787 c 0,33,34
EndSplineSet
Validated: 33
EndChar

StartChar: logicalnot
Encoding: 172 172 110
Width: 1117
GlyphClass: 1
Flags: W
LayerCount: 2
Fore
SplineSet
957 670 m 1,0,-1
 956 670 l 1,1,-1
 914 386 l 1,2,-1
 794 386 l 1,3,-1
 836 670 l 1,4,-1
 145 670 l 1,5,-1
 160 776 l 1,6,-1
 972 776 l 1,7,-1
 957 670 l 1,0,-1
EndSplineSet
Validated: 1
EndChar

StartChar: registered
Encoding: 174 174 112
Width: 1642
GlyphClass: 1
Flags: W
LayerCount: 2
Fore
SplineSet
131 729 m 0,0,1
 180 1056 180 1056 416.5 1266 c 128,-1,2
 653 1476 653 1476 953 1476 c 0,3,4
 1237 1476 1237 1476 1417.5 1258 c 128,-1,5
 1598 1040 1598 1040 1551 729 c 0,6,7
 1502 401 1502 401 1265 190 c 128,-1,8
 1028 -21 1028 -21 729 -21 c 0,9,10
 445 -21 445 -21 264.5 197.5 c 128,-1,11
 84 416 84 416 131 729 c 0,0,1
216 729 m 0,12,13
 173 439 173 439 326.5 252 c 128,-1,14
 480 65 480 65 742 65 c 0,15,16
 990 65 990 65 1206.5 259 c 128,-1,17
 1423 453 1423 453 1465 729 c 0,18,19
 1508 1017 1508 1017 1355 1203 c 128,-1,20
 1202 1389 1202 1389 940 1389 c 0,21,22
 690 1389 690 1389 473.5 1196 c 128,-1,23
 257 1003 257 1003 216 729 c 0,12,13
670 672 m 1,24,-1
 617 316 l 1,25,-1
 519 316 l 1,26,-1
 647 1166 l 1,27,-1
 905 1166 l 2,28,29
 1046 1166 1046 1166 1118 1102.5 c 128,-1,30
 1190 1039 1190 1039 1173 918 c 0,31,32
 1161 847 1161 847 1117.5 798 c 128,-1,33
 1074 749 1074 749 1000 720 c 1,34,35
 1063 694 1063 694 1086.5 640.5 c 128,-1,36
 1110 587 1110 587 1099 515 c 2,37,-1
 1091 459 l 2,38,39
 1084 418 1084 418 1083.5 385.5 c 128,-1,40
 1083 353 1083 353 1089 332 c 1,41,-1
 1086 316 l 1,42,-1
 984 316 l 1,43,44
 978 337 978 337 981.5 375 c 128,-1,45
 985 413 985 413 992 460 c 2,46,-1
 1000 514 l 2,47,48
 1013 601 1013 601 981.5 636.5 c 128,-1,49
 950 672 950 672 859 672 c 2,50,-1
 670 672 l 1,24,-1
684 763 m 1,51,-1
 865 763 l 2,52,53
 944 763 944 763 1003.5 803.5 c 128,-1,54
 1063 844 1063 844 1074 916 c 0,55,56
 1087 1004 1087 1004 1047 1039.5 c 128,-1,57
 1007 1075 1007 1075 891 1075 c 2,58,-1
 731 1075 l 1,59,-1
 684 763 l 1,51,-1
EndSplineSet
Validated: 33
EndChar

StartChar: macron
Encoding: 175 175 113
AltUni2: 0002c9.ffffffff.0 0002c9.ffffffff.0
Width: 874
GlyphClass: 1
Flags: W
LayerCount: 2
Fore
SplineSet
891 1359 m 1,0,-1
 221 1359 l 1,1,-1
 235 1456 l 1,2,-1
 905 1456 l 1,3,-1
 891 1359 l 1,0,-1
EndSplineSet
Validated: 1
EndChar

StartChar: degree
Encoding: 176 176 114
Width: 774
GlyphClass: 1
Flags: W
LayerCount: 2
Fore
SplineSet
247 1227 m 0,0,1
 263 1333 263 1333 345.5 1405 c 128,-1,2
 428 1477 428 1477 530 1477 c 0,3,4
 625 1477 625 1477 686.5 1402.5 c 128,-1,5
 748 1328 748 1328 734 1227 c 0,6,7
 717 1119 717 1119 636.5 1049.5 c 128,-1,8
 556 980 556 980 455 980 c 0,9,10
 357 980 357 980 294 1052.5 c 128,-1,11
 231 1125 231 1125 247 1227 c 0,0,1
337 1227 m 0,12,13
 326 1157 326 1157 364 1114 c 128,-1,14
 402 1071 402 1071 469 1071 c 0,15,16
 532 1071 532 1071 583 1115.5 c 128,-1,17
 634 1160 634 1160 644 1227 c 0,18,19
 654 1298 654 1298 618 1342 c 128,-1,20
 582 1386 582 1386 516 1386 c 0,21,22
 452 1386 452 1386 399.5 1340 c 128,-1,23
 347 1294 347 1294 337 1227 c 0,12,13
EndSplineSet
Validated: 33
EndChar

StartChar: plusminus
Encoding: 177 177 115
Width: 1086
GlyphClass: 1
Flags: W
LayerCount: 2
Fore
SplineSet
649 829 m 1,0,-1
 1042 829 l 1,1,-1
 1028 728 l 1,2,-1
 635 728 l 1,3,-1
 574 289 l 1,4,-1
 464 289 l 1,5,-1
 525 728 l 1,6,-1
 112 728 l 1,7,-1
 126 829 l 1,8,-1
 539 829 l 1,9,-1
 601 1267 l 1,10,-1
 711 1267 l 1,11,-1
 649 829 l 1,0,-1
901 42 m 1,12,-1
 66 42 l 1,13,-1
 81 144 l 1,14,-1
 916 144 l 1,15,-1
 901 42 l 1,12,-1
EndSplineSet
Validated: 1
EndChar

StartChar: twosuperior
Encoding: 178 178 116
Width: 835
GlyphClass: 1
Flags: W
LayerCount: 2
Fore
SplineSet
707 667 m 1,0,-1
 138 667 l 1,1,-1
 152 757 l 1,2,-1
 509 1039 l 2,3,4
 596 1110 596 1110 629.5 1154.5 c 128,-1,5
 663 1199 663 1199 671 1246 c 0,6,7
 681 1313 681 1313 647.5 1350.5 c 128,-1,8
 614 1388 614 1388 535 1388 c 0,9,10
 451 1388 451 1388 396 1345.5 c 128,-1,11
 341 1303 341 1303 332 1238 c 1,12,-1
 233 1238 l 1,13,-1
 231 1244 l 1,14,15
 240 1345 240 1345 328 1412 c 128,-1,16
 416 1479 416 1479 549 1479 c 0,17,18
 668 1479 668 1479 732 1417.5 c 128,-1,19
 796 1356 796 1356 780 1245 c 0,20,21
 768 1167 768 1167 714.5 1109.5 c 128,-1,22
 661 1052 661 1052 539 951 c 1,23,-1
 297 763 l 1,24,-1
 299 757 l 1,25,-1
 721 757 l 1,26,-1
 707 667 l 1,0,-1
EndSplineSet
Validated: 33
EndChar

StartChar: threesuperior
Encoding: 179 179 117
Width: 852
GlyphClass: 1
Flags: W
LayerCount: 2
Fore
SplineSet
380 1119 m 1,0,-1
 502 1119 l 2,1,2
 587 1119 587 1119 636 1154.5 c 128,-1,3
 685 1190 685 1190 695 1253 c 0,4,5
 704 1314 704 1314 665 1350.5 c 128,-1,6
 626 1387 626 1387 537 1387 c 0,7,8
 465 1387 465 1387 408.5 1351 c 128,-1,9
 352 1315 352 1315 344 1258 c 1,10,-1
 246 1258 l 1,11,-1
 244 1264 l 1,12,13
 253 1362 253 1362 341.5 1420 c 128,-1,14
 430 1478 430 1478 551 1478 c 0,15,16
 678 1478 678 1478 748.5 1419 c 128,-1,17
 819 1360 819 1360 803 1253 c 0,18,19
 793 1192 793 1192 751 1145.5 c 128,-1,20
 709 1099 709 1099 642 1075 c 1,21,22
 709 1052 709 1052 740.5 1004 c 128,-1,23
 772 956 772 956 762 886 c 0,24,25
 745 773 745 773 653.5 714 c 128,-1,26
 562 655 562 655 427 655 c 0,27,28
 310 655 310 655 230.5 713.5 c 128,-1,29
 151 772 151 772 172 882 c 1,30,-1
 174 888 l 1,31,-1
 276 888 l 1,32,33
 266 823 266 823 311 784 c 128,-1,34
 356 745 356 745 441 745 c 0,35,36
 528 745 528 745 585.5 783 c 128,-1,37
 643 821 643 821 653 886 c 0,38,39
 664 963 664 963 623.5 996.5 c 128,-1,40
 583 1030 583 1030 489 1030 c 2,41,-1
 367 1030 l 1,42,-1
 370 1053 l 1,43,-1
 373 1074 l 1,44,-1
 376 1094 l 1,45,-1
 380 1119 l 1,0,-1
EndSplineSet
Validated: 33
EndChar

StartChar: acute
Encoding: 180 180 118
Width: 576
GlyphClass: 1
Flags: W
LayerCount: 2
Fore
SplineSet
466 1518 m 1,0,-1
 613 1518 l 1,1,-1
 615 1512 l 1,2,-1
 329 1252 l 1,3,-1
 229 1252 l 1,4,-1
 227 1257 l 1,5,-1
 466 1518 l 1,0,-1
EndSplineSet
Validated: 1
EndChar

StartChar: mu
Encoding: 181 181 119
Width: 1140
GlyphClass: 1
Flags: W
LayerCount: 2
Fore
SplineSet
363 1082 m 1,0,-1
 264 421 l 1,1,2
 239 222 239 222 297.5 151 c 128,-1,3
 356 80 356 80 476 80 c 0,4,5
 610 80 610 80 695.5 143 c 128,-1,6
 781 206 781 206 828 322 c 1,7,-1
 941 1082 l 1,8,-1
 1061 1082 l 1,9,-1
 899 0 l 1,10,-1
 796 0 l 1,11,-1
 808 151 l 1,12,13
 748 67 748 67 663.5 23 c 128,-1,14
 579 -21 579 -21 469 -21 c 0,15,16
 384 -21 384 -21 318.5 9.5 c 128,-1,17
 253 40 253 40 217 108 c 1,18,-1
 139 -416 l 1,19,-1
 20 -416 l 1,20,-1
 244 1082 l 1,21,-1
 363 1082 l 1,0,-1
EndSplineSet
Validated: 33
EndChar

StartChar: paragraph
Encoding: 182 182 120
Width: 973
GlyphClass: 1
Flags: W
LayerCount: 2
Fore
SplineSet
600 0 m 1,0,-1
 678 520 l 1,1,-1
 572 520 l 2,2,3
 348 520 348 520 233.5 651 c 128,-1,4
 119 782 119 782 150 988 c 0,5,6
 182 1202 182 1202 329.5 1329 c 128,-1,7
 477 1456 477 1456 712 1456 c 2,8,-1
 938 1456 l 1,9,-1
 720 0 l 1,10,-1
 600 0 l 1,0,-1
EndSplineSet
Validated: 33
EndChar

StartChar: periodcentered
Encoding: 183 183 121
Width: 503
GlyphClass: 1
Flags: W
LayerCount: 2
Fore
SplineSet
335 624 m 1,0,-1
 180 624 l 1,1,-1
 207 804 l 1,2,-1
 362 804 l 1,3,-1
 335 624 l 1,0,-1
EndSplineSet
Validated: 1
EndChar

StartChar: cedilla
Encoding: 184 184 122
Width: 498
GlyphClass: 1
Flags: W
LayerCount: 2
Fore
SplineSet
166 0 m 1,0,-1
 144 -64 l 1,1,2
 222 -73 222 -73 264 -112.5 c 128,-1,3
 306 -152 306 -152 295 -235 c 0,4,5
 280 -330 280 -330 194 -382.5 c 128,-1,6
 108 -435 108 -435 -40 -435 c 1,7,-1
 -36 -357 l 1,8,9
 51 -357 51 -357 118.5 -326.5 c 128,-1,10
 186 -296 186 -296 195 -237 c 256,11,12
 204 -178 204 -178 167 -156.5 c 128,-1,13
 130 -135 130 -135 25 -127 c 1,14,-1
 73 0 l 1,15,-1
 166 0 l 1,0,-1
EndSplineSet
Validated: 33
EndChar

StartChar: onesuperior
Encoding: 185 185 123
Width: 511
GlyphClass: 1
Flags: W
LayerCount: 2
Fore
SplineSet
365 665 m 1,0,-1
 256 665 l 1,1,-1
 361 1368 l 1,2,-1
 212 1361 l 1,3,-1
 226 1454 l 1,4,-1
 487 1477 l 1,5,-1
 365 665 l 1,0,-1
EndSplineSet
Validated: 1
EndChar

StartChar: ordmasculine
Encoding: 186 186 124
Width: 922
GlyphClass: 1
Flags: W
LayerCount: 2
Fore
SplineSet
226 1142 m 2,0,1
 249 1295 249 1295 349.5 1386 c 128,-1,2
 450 1477 450 1477 600 1477 c 0,3,4
 742 1477 742 1477 818.5 1382.5 c 128,-1,5
 895 1288 895 1288 873 1142 c 2,6,-1
 856 1025 l 2,7,8
 832 870 832 870 732 780.5 c 128,-1,9
 632 691 632 691 484 691 c 0,10,11
 341 691 341 691 264 784.5 c 128,-1,12
 187 878 187 878 209 1025 c 2,13,-1
 226 1142 l 2,0,1
317 1025 m 2,14,15
 300 914 300 914 344.5 850 c 128,-1,16
 389 786 389 786 498 786 c 0,17,18
 597 786 597 786 664.5 853.5 c 128,-1,19
 732 921 732 921 748 1025 c 2,20,-1
 765 1142 l 2,21,22
 781 1250 781 1250 735.5 1315 c 128,-1,23
 690 1380 690 1380 585 1380 c 0,24,25
 485 1380 485 1380 417 1312 c 128,-1,26
 349 1244 349 1244 334 1142 c 2,27,-1
 317 1025 l 2,14,15
EndSplineSet
Validated: 33
EndChar

StartChar: questiondown
Encoding: 191 191 129
Width: 958
GlyphClass: 1
Flags: W
LayerCount: 2
Fore
SplineSet
594 678 m 1,0,1
 572 547 572 547 542.5 495 c 128,-1,2
 513 443 513 443 409 359 c 1,3,4
 283 246 283 246 222.5 170.5 c 128,-1,5
 162 95 162 95 145 -19 c 0,6,7
 124 -152 124 -152 181.5 -219.5 c 128,-1,8
 239 -287 239 -287 367 -287 c 0,9,10
 480 -287 480 -287 564 -218 c 128,-1,11
 648 -149 648 -149 668 -33 c 1,12,-1
 779 -33 l 1,13,-1
 781 -39 l 1,14,15
 758 -204 758 -204 637 -299 c 128,-1,16
 516 -394 516 -394 351 -394 c 0,17,18
 178 -394 178 -394 89 -292 c 128,-1,19
 0 -190 0 -190 25 -20 c 0,20,21
 45 119 45 119 124.5 218.5 c 128,-1,22
 204 318 204 318 349 437 c 0,23,24
 417 489 417 489 438 535 c 128,-1,25
 459 581 459 581 474 678 c 1,26,-1
 594 678 l 1,0,1
518 1083 m 1,27,-1
 657 1083 l 1,28,-1
 634 928 l 1,29,-1
 495 928 l 1,30,-1
 518 1083 l 1,27,-1
EndSplineSet
Validated: 33
EndChar

StartChar: AE
Encoding: 198 198 136
Width: 1900
GlyphClass: 1
Flags: W
LayerCount: 2
Fore
SplineSet
1759 0 m 1,0,-1
 942 0 l 1,1,-1
 984 389 l 1,2,-1
 387 389 l 1,3,-1
 99 0 l 1,4,-1
 -47 0 l 1,5,-1
 1052 1456 l 1,6,-1
 1916 1456 l 1,7,-1
 1901 1354 l 1,8,-1
 1207 1354 l 1,9,-1
 1148 809 l 1,10,-1
 1737 809 l 1,11,-1
 1722 707 l 1,12,-1
 1137 707 l 1,13,-1
 1072 101 l 1,14,-1
 1774 101 l 1,15,-1
 1759 0 l 1,0,-1
470 502 m 1,16,-1
 996 502 l 1,17,-1
 1086 1339 l 1,18,-1
 1080 1341 l 1,19,-1
 1060 1298 l 1,20,-1
 470 502 l 1,16,-1
EndSplineSet
Validated: 1
EndChar

StartChar: Eth
Encoding: 208 208 146
Width: 1378
GlyphClass: 1
Flags: W
LayerCount: 2
Fore
SplineSet
106 0 m 1,0,-1
 209 689 l 1,1,-1
 56 689 l 1,2,-1
 72 791 l 1,3,-1
 224 791 l 1,4,-1
 324 1456 l 1,5,-1
 768 1456 l 2,6,7
 1025 1456 1025 1456 1177.5 1276 c 128,-1,8
 1330 1096 1330 1096 1289 821 c 2,9,-1
 1261 634 l 2,10,11
 1217 344 1217 344 1019 172 c 128,-1,12
 821 0 821 0 550 0 c 2,13,-1
 106 0 l 1,0,-1
668 689 m 1,14,-1
 329 689 l 1,15,-1
 241 101 l 1,16,-1
 565 101 l 2,17,18
 773 101 773 101 939.5 253 c 128,-1,19
 1106 405 1106 405 1141 634 c 2,20,-1
 1170 824 l 2,21,22
 1204 1061 1204 1061 1087.5 1207.5 c 128,-1,23
 971 1354 971 1354 753 1354 c 2,24,-1
 428 1354 l 1,25,-1
 344 791 l 1,26,-1
 684 791 l 1,27,-1
 668 689 l 1,14,-1
EndSplineSet
Validated: 33
Substitution2: "'smcp' Lowercase to Small Capitals lookup 0 subtable" Eth.smcp
EndChar

StartChar: multiply
Encoding: 215 215 153
Width: 1072
GlyphClass: 1
Flags: W
LayerCount: 2
Fore
SplineSet
61 318 m 1,0,-1
 473 683 l 1,1,-1
 183 1033 l 1,2,-1
 274 1113 l 1,3,-1
 564 763 l 1,4,-1
 959 1113 l 1,5,-1
 1026 1033 l 1,6,-1
 630 683 l 1,7,-1
 934 318 l 1,8,-1
 843 239 l 1,9,-1
 540 603 l 1,10,-1
 128 239 l 1,11,-1
 61 318 l 1,0,-1
EndSplineSet
Validated: 1
EndChar

StartChar: Oslash
Encoding: 216 216 154
Width: 1379
GlyphClass: 1
Flags: W
LayerCount: 2
Fore
SplineSet
1265 609 m 2,0,1
 1221 316 1221 316 1043 147.5 c 128,-1,2
 865 -21 865 -21 602 -21 c 0,3,4
 512 -21 512 -21 436.5 3.5 c 128,-1,5
 361 28 361 28 302 75 c 1,6,-1
 180 -84 l 1,7,-1
 76 -84 l 1,8,-1
 242 133 l 1,9,10
 169 217 169 217 140.5 339.5 c 128,-1,11
 112 462 112 462 135 609 c 2,12,-1
 171 846 l 2,13,14
 215 1138 215 1138 391 1307.5 c 128,-1,15
 567 1477 567 1477 826 1477 c 0,16,17
 931 1477 931 1477 1019 1442.5 c 128,-1,18
 1107 1408 1107 1408 1171 1345 c 1,19,-1
 1293 1505 l 1,20,-1
 1397 1505 l 1,21,-1
 1224 1279 l 1,22,23
 1279 1195 1279 1195 1299.5 1084.5 c 128,-1,24
 1320 974 1320 974 1301 846 c 2,25,-1
 1265 609 l 2,0,1
255 609 m 2,26,27
 236 486 236 486 250.5 389.5 c 128,-1,28
 265 293 265 293 311 231 c 1,29,-1
 317 229 l 1,30,-1
 1103 1257 l 1,31,32
 1053 1313 1053 1313 979.5 1342.5 c 128,-1,33
 906 1372 906 1372 810 1372 c 0,34,35
 610 1372 610 1372 468 1226.5 c 128,-1,36
 326 1081 326 1081 291 848 c 2,37,-1
 255 609 l 2,26,27
1182 848 m 2,38,39
 1196 949 1196 949 1188.5 1032 c 128,-1,40
 1181 1115 1181 1115 1151 1175 c 1,41,-1
 1145 1176 l 1,42,-1
 367 161 l 1,43,44
 413 122 413 122 475.5 102.5 c 128,-1,45
 538 83 538 83 617 83 c 0,46,47
 822 83 822 83 966.5 228 c 128,-1,48
 1111 373 1111 373 1146 609 c 2,49,-1
 1182 848 l 2,38,39
EndSplineSet
Validated: 33
EndChar

StartChar: Thorn
Encoding: 222 222 160
Width: 1214
GlyphClass: 1
Flags: W
LayerCount: 2
Fore
SplineSet
441 1456 m 1,0,-1
 395 1152 l 1,1,-1
 720 1152 l 2,2,3
 932 1152 932 1152 1042.5 1035.5 c 128,-1,4
 1153 919 1153 919 1127 738 c 0,5,6
 1098 546 1098 546 958.5 435 c 128,-1,7
 819 324 819 324 596 324 c 2,8,-1
 271 324 l 1,9,-1
 223 0 l 1,10,-1
 103 0 l 1,11,-1
 321 1456 l 1,12,-1
 441 1456 l 1,0,-1
380 1051 m 1,13,-1
 286 425 l 1,14,-1
 611 425 l 2,15,16
 777 425 777 425 882 518 c 128,-1,17
 987 611 987 611 1006 736 c 0,18,19
 1026 870 1026 870 952.5 960.5 c 128,-1,20
 879 1051 879 1051 705 1051 c 2,21,-1
 380 1051 l 1,13,-1
EndSplineSet
Validated: 33
EndChar

StartChar: germandbls
Encoding: 223 223 161
Width: 1200
GlyphClass: 1
Flags: W
LayerCount: 2
Fore
SplineSet
191 0 m 1,0,-1
 71 0 l 1,1,-1
 233 1082 l 2,2,3
 265 1294 265 1294 382.5 1403 c 128,-1,4
 500 1512 500 1512 674 1512 c 0,5,6
 808 1512 808 1512 890.5 1432 c 128,-1,7
 973 1352 973 1352 953 1210 c 0,8,9
 935 1095 935 1095 858 991 c 128,-1,10
 781 887 781 887 770 810 c 0,11,12
 755 718 755 718 918 578.5 c 128,-1,13
 1081 439 1081 439 1060 295 c 0,14,15
 1036 136 1036 136 916 57.5 c 128,-1,16
 796 -21 796 -21 637 -21 c 0,17,18
 555 -21 555 -21 465.5 2.5 c 128,-1,19
 376 26 376 26 343 59 c 1,20,-1
 392 160 l 1,21,22
 428 129 428 129 498 104.5 c 128,-1,23
 568 80 568 80 638 80 c 0,24,25
 758 80 758 80 842 140.5 c 128,-1,26
 926 201 926 201 940 295 c 0,27,28
 956 401 956 401 792.5 539.5 c 128,-1,29
 629 678 629 678 650 812 c 0,30,31
 664 911 664 911 743 1017 c 128,-1,32
 822 1123 822 1123 835 1204 c 0,33,34
 849 1299 849 1299 798.5 1355 c 128,-1,35
 748 1411 748 1411 669 1411 c 0,36,37
 553 1411 553 1411 464.5 1325 c 128,-1,38
 376 1239 376 1239 353 1082 c 2,39,-1
 191 0 l 1,0,-1
EndSplineSet
Validated: 33
Substitution2: "'smcp' Lowercase to Small Capitals lookup 0 subtable" germandbls.smcp
EndChar

StartChar: ae
Encoding: 230 230 168
Width: 1796
GlyphClass: 1
Flags: W
LayerCount: 2
Fore
SplineSet
1212 -21 m 0,0,1
 1079 -21 1079 -21 984.5 35.5 c 128,-1,2
 890 92 890 92 843 196 c 1,3,4
 781 108 781 108 660.5 43.5 c 128,-1,5
 540 -21 540 -21 379 -21 c 0,6,7
 215 -21 215 -21 132 64.5 c 128,-1,8
 49 150 49 150 71 293 c 0,9,10
 94 446 94 446 217.5 527.5 c 128,-1,11
 341 609 341 609 557 609 c 2,12,-1
 819 609 l 1,13,-1
 836 720 l 2,14,15
 856 858 856 858 804.5 929 c 128,-1,16
 753 1000 753 1000 633 1000 c 0,17,18
 508 1000 508 1000 420 932.5 c 128,-1,19
 332 865 332 865 318 765 c 1,20,-1
 209 777 l 1,21,-1
 208 783 l 1,22,23
 224 926 224 926 344.5 1014 c 128,-1,24
 465 1102 465 1102 648 1102 c 0,25,26
 763 1102 763 1102 843 1048.5 c 128,-1,27
 923 995 923 995 950 894 c 1,28,29
 1025 993 1025 993 1129 1047.5 c 128,-1,30
 1233 1102 1233 1102 1350 1102 c 0,31,32
 1543 1102 1543 1102 1639.5 976.5 c 128,-1,33
 1736 851 1736 851 1704 638 c 2,34,-1
 1689 538 l 1,35,-1
 934 538 l 1,36,-1
 930 509 l 2,37,38
 900 311 900 311 971.5 195.5 c 128,-1,39
 1043 80 1043 80 1227 80 c 0,40,41
 1326 80 1326 80 1412.5 113 c 128,-1,42
 1499 146 1499 146 1569 199 c 1,43,-1
 1603 112 l 1,44,45
 1535 57 1535 57 1440.5 18 c 128,-1,46
 1346 -21 1346 -21 1212 -21 c 0,0,1
411 79 m 0,47,48
 509 79 509 79 614 132.5 c 128,-1,49
 719 186 719 186 765 248 c 1,50,-1
 804 512 l 1,51,-1
 545 512 l 2,52,53
 396 512 396 512 300 447.5 c 128,-1,54
 204 383 204 383 190 289 c 0,55,56
 175 189 175 189 231.5 134 c 128,-1,57
 288 79 288 79 411 79 c 0,47,48
1335 1000 m 0,58,59
 1203 1000 1203 1000 1099.5 897.5 c 128,-1,60
 996 795 996 795 960 642 c 1,61,-1
 962 636 l 1,62,-1
 1584 636 l 1,63,-1
 1589 667 l 2,64,65
 1611 818 1611 818 1548 909 c 128,-1,66
 1485 1000 1485 1000 1335 1000 c 0,58,59
EndSplineSet
Validated: 33
EndChar

StartChar: eth
Encoding: 240 240 178
Width: 1191
GlyphClass: 1
Flags: W
LayerCount: 2
Fore
SplineSet
966 1311 m 1,0,1
 1051 1209 1051 1209 1082.5 1070 c 128,-1,2
 1114 931 1114 931 1088 755 c 2,3,-1
 1055 535 l 2,4,5
 1017 281 1017 281 859 130 c 128,-1,6
 701 -21 701 -21 491 -21 c 0,7,8
 291 -21 291 -21 174 117 c 128,-1,9
 57 255 57 255 87 455 c 0,10,11
 123 699 123 699 269.5 832 c 128,-1,12
 416 965 416 965 631 965 c 0,13,14
 741 965 741 965 832 918.5 c 128,-1,15
 923 872 923 872 967 796 c 1,16,-1
 971 800 l 1,17,18
 991 952 991 952 959.5 1063.5 c 128,-1,19
 928 1175 928 1175 855 1253 c 1,20,-1
 494 1063 l 1,21,-1
 456 1137 l 1,22,-1
 787 1311 l 1,23,24
 745 1341 745 1341 695 1366 c 128,-1,25
 645 1391 645 1391 586 1413 c 1,26,-1
 641 1517 l 1,27,28
 719 1490 719 1490 785 1454 c 128,-1,29
 851 1418 851 1418 904 1373 c 1,30,-1
 1165 1511 l 1,31,-1
 1205 1437 l 1,32,-1
 966 1311 l 1,0,1
510 82 m 0,33,34
 662 82 662 82 783.5 211 c 128,-1,35
 905 340 905 340 935 535 c 2,36,-1
 956 676 l 1,37,38
 929 753 929 753 842 807 c 128,-1,39
 755 861 755 861 615 861 c 0,40,41
 455 861 455 861 344 744.5 c 128,-1,42
 233 628 233 628 207 455 c 0,43,44
 183 301 183 301 263.5 191.5 c 128,-1,45
 344 82 344 82 510 82 c 0,33,34
EndSplineSet
Validated: 33
Substitution2: "'smcp' Lowercase to Small Capitals lookup 0 subtable" Eth.smcp
EndChar

StartChar: divide
Encoding: 247 247 185
Width: 1164
GlyphClass: 1
Flags: W
LayerCount: 2
Fore
SplineSet
1087 644 m 1,0,-1
 89 644 l 1,1,-1
 106 760 l 1,2,-1
 1104 760 l 1,3,-1
 1087 644 l 1,0,-1
720 1010 m 1,4,-1
 578 1010 l 1,5,-1
 602 1170 l 1,6,-1
 744 1170 l 1,7,-1
 720 1010 l 1,4,-1
600 212 m 1,8,-1
 458 212 l 1,9,-1
 482 372 l 1,10,-1
 624 372 l 1,11,-1
 600 212 l 1,8,-1
EndSplineSet
Validated: 1
EndChar

StartChar: oslash
Encoding: 248 248 186
Width: 1141
GlyphClass: 1
Flags: W
LayerCount: 2
Fore
SplineSet
95 557 m 2,0,1
 131 805 131 805 283 953.5 c 128,-1,2
 435 1102 435 1102 654 1102 c 0,3,4
 712 1102 712 1102 764 1088.5 c 128,-1,5
 816 1075 816 1075 861 1050 c 1,6,-1
 966 1214 l 1,7,-1
 1059 1214 l 1,8,-1
 924 1004 l 1,9,10
 1004 931 1004 931 1038 814.5 c 128,-1,11
 1072 698 1072 698 1052 557 c 2,12,-1
 1047 524 l 2,13,14
 1009 275 1009 275 857.5 127 c 128,-1,15
 706 -21 706 -21 488 -21 c 0,16,17
 435 -21 435 -21 387 -10 c 128,-1,18
 339 1 339 1 297 22 c 1,19,-1
 193 -140 l 1,20,-1
 100 -140 l 1,21,-1
 231 65 l 1,22,23
 142 136 142 136 104.5 256 c 128,-1,24
 67 376 67 376 90 524 c 2,25,-1
 95 557 l 2,0,1
210 524 m 2,26,27
 191 408 191 408 211.5 314 c 128,-1,28
 232 220 232 220 289 168 c 1,29,-1
 295 167 l 1,30,-1
 802 957 l 1,31,32
 768 977 768 977 727 988.5 c 128,-1,33
 686 1000 686 1000 639 1000 c 0,34,35
 478 1000 478 1000 360 869.5 c 128,-1,36
 242 739 242 739 215 557 c 2,37,-1
 210 524 l 2,26,27
933 557 m 2,38,39
 948 664 948 664 930.5 753.5 c 128,-1,40
 913 843 913 843 864 898 c 1,41,-1
 858 899 l 1,42,-1
 355 113 l 1,43,44
 385 96 385 96 422 88 c 128,-1,45
 459 80 459 80 503 80 c 0,46,47
 663 80 663 80 781 209.5 c 128,-1,48
 899 339 899 339 928 524 c 2,49,-1
 933 557 l 2,38,39
EndSplineSet
Validated: 33
EndChar

StartChar: thorn
Encoding: 254 254 192
Width: 1151
GlyphClass: 1
Flags: W
LayerCount: 2
Fore
SplineSet
1036 511 m 2,0,1
 998 259 998 259 868.5 119 c 128,-1,2
 739 -21 739 -21 543 -21 c 0,3,4
 433 -21 433 -21 353.5 23.5 c 128,-1,5
 274 68 274 68 230 149 c 1,6,-1
 146 -416 l 1,7,-1
 26 -416 l 1,8,-1
 88 0 l 1,9,-1
 87 0 l 1,10,-1
 321 1560 l 1,11,-1
 440 1560 l 1,12,-1
 343 918 l 1,13,14
 411 1006 411 1006 502.5 1054 c 128,-1,15
 594 1102 594 1102 709 1102 c 0,16,17
 897 1102 897 1102 987 945 c 128,-1,18
 1077 788 1077 788 1039 532 c 2,19,-1
 1036 511 l 2,0,1
919 532 m 2,20,21
 951 745 951 745 888.5 871.5 c 128,-1,22
 826 998 826 998 667 998 c 0,23,24
 551 998 551 998 465.5 939 c 128,-1,25
 380 880 380 880 326 788 c 1,26,-1
 248 269 l 1,27,28
 277 181 277 181 346.5 130.5 c 128,-1,29
 416 80 416 80 531 80 c 0,30,31
 682 80 682 80 784 199.5 c 128,-1,32
 886 319 886 319 916 511 c 2,33,-1
 919 532 l 2,20,21
EndSplineSet
Validated: 33
EndChar

StartChar: Dcroat
Encoding: 272 272 210
Width: 1378
GlyphClass: 1
Flags: W
LayerCount: 2
Fore
SplineSet
106 0 m 1,0,-1
 209 689 l 1,1,-1
 56 689 l 1,2,-1
 72 791 l 1,3,-1
 224 791 l 1,4,-1
 324 1456 l 1,5,-1
 768 1456 l 2,6,7
 1025 1456 1025 1456 1177.5 1276 c 128,-1,8
 1330 1096 1330 1096 1289 821 c 2,9,-1
 1261 634 l 2,10,11
 1217 344 1217 344 1019 172 c 128,-1,12
 821 0 821 0 550 0 c 2,13,-1
 106 0 l 1,0,-1
668 689 m 1,14,-1
 329 689 l 1,15,-1
 241 101 l 1,16,-1
 565 101 l 2,17,18
 773 101 773 101 939.5 253 c 128,-1,19
 1106 405 1106 405 1141 634 c 2,20,-1
 1170 824 l 2,21,22
 1204 1061 1204 1061 1087.5 1207.5 c 128,-1,23
 971 1354 971 1354 753 1354 c 2,24,-1
 428 1354 l 1,25,-1
 344 791 l 1,26,-1
 684 791 l 1,27,-1
 668 689 l 1,14,-1
EndSplineSet
Validated: 33
Substitution2: "'smcp' Lowercase to Small Capitals lookup 0 subtable" Dcroat.smcp
EndChar

StartChar: dcroat
Encoding: 273 273 211
Width: 1140
GlyphClass: 1
Flags: W
LayerCount: 2
Fore
SplineSet
1265 1257 m 1,0,-1
 1087 1257 l 1,1,-1
 899 0 l 1,2,-1
 801 0 l 1,3,-1
 808 157 l 1,4,5
 741 71 741 71 648.5 25 c 128,-1,6
 556 -21 556 -21 441 -21 c 0,7,8
 254 -21 254 -21 162.5 125.5 c 128,-1,9
 71 272 71 272 108 511 c 2,10,-1
 111 532 l 2,11,12
 151 801 151 801 282 951.5 c 128,-1,13
 413 1102 413 1102 611 1102 c 0,14,15
 719 1102 719 1102 796 1053.5 c 128,-1,16
 873 1005 873 1005 917 916 c 1,17,-1
 968 1257 l 1,18,-1
 653 1257 l 1,19,-1
 668 1359 l 1,20,-1
 983 1359 l 1,21,-1
 1013 1560 l 1,22,-1
 1133 1560 l 1,23,-1
 1103 1359 l 1,24,-1
 1280 1359 l 1,25,-1
 1265 1257 l 1,0,-1
228 511 m 2,26,27
 197 308 197 308 258 195.5 c 128,-1,28
 319 83 319 83 478 83 c 0,29,30
 589 83 589 83 676 136 c 128,-1,31
 763 189 763 189 821 280 c 1,32,-1
 898 789 l 1,33,34
 871 882 871 882 804.5 940 c 128,-1,35
 738 998 738 998 618 998 c 0,36,37
 466 998 466 998 363.5 866.5 c 128,-1,38
 261 735 261 735 231 532 c 2,39,-1
 228 511 l 2,26,27
EndSplineSet
Validated: 33
Substitution2: "'smcp' Lowercase to Small Capitals lookup 0 subtable" Dcroat.smcp
EndChar

StartChar: Hbar
Encoding: 294 294 232
Width: 1412
GlyphClass: 1
Flags: W
LayerCount: 2
Fore
SplineSet
1349 1123 m 1,0,-1
 1472 1123 l 1,1,-1
 1458 1026 l 1,2,-1
 1334 1026 l 1,3,-1
 1181 0 l 1,4,-1
 1061 0 l 1,5,-1
 1161 670 l 1,6,-1
 334 670 l 1,7,-1
 234 0 l 1,8,-1
 114 0 l 1,9,-1
 267 1026 l 1,10,-1
 99 1026 l 1,11,-1
 113 1123 l 1,12,-1
 282 1123 l 1,13,-1
 332 1456 l 1,14,-1
 452 1456 l 1,15,-1
 402 1123 l 1,16,-1
 1229 1123 l 1,17,-1
 1279 1456 l 1,18,-1
 1399 1456 l 1,19,-1
 1349 1123 l 1,0,-1
349 772 m 1,20,-1
 1176 772 l 1,21,-1
 1214 1026 l 1,22,-1
 387 1026 l 1,23,-1
 349 772 l 1,20,-1
EndSplineSet
Validated: 1
EndChar

StartChar: hbar
Encoding: 295 295 233
Width: 1140
GlyphClass: 1
Flags: W
LayerCount: 2
Fore
SplineSet
743 1257 m 1,0,-1
 386 1257 l 1,1,-1
 333 905 l 1,2,3
 402 1000 402 1000 499.5 1051 c 128,-1,4
 597 1102 597 1102 717 1102 c 0,5,6
 882 1102 882 1102 960.5 995 c 128,-1,7
 1039 888 1039 888 1006 667 c 2,8,-1
 906 0 l 1,9,-1
 786 0 l 1,10,-1
 886 669 l 2,11,12
 913 852 913 852 856.5 925 c 128,-1,13
 800 998 800 998 675 998 c 0,14,15
 552 998 552 998 460 934 c 128,-1,16
 368 870 368 870 312 764 c 1,17,-1
 198 0 l 1,18,-1
 78 0 l 1,19,-1
 266 1257 l 1,20,-1
 131 1257 l 1,21,-1
 146 1359 l 1,22,-1
 282 1359 l 1,23,-1
 312 1560 l 1,24,-1
 432 1560 l 1,25,-1
 402 1359 l 1,26,-1
 758 1359 l 1,27,-1
 743 1257 l 1,0,-1
EndSplineSet
Validated: 33
EndChar

StartChar: dotlessi
Encoding: 305 305 243
Width: 456
GlyphClass: 1
Flags: W
LayerCount: 2
Fore
SplineSet
208 0 m 1,0,-1
 88 0 l 1,1,-1
 250 1082 l 1,2,-1
 370 1082 l 1,3,-1
 208 0 l 1,0,-1
EndSplineSet
Validated: 1
EndChar

StartChar: kgreenlandic
Encoding: 312 312 250
Width: 1111
GlyphClass: 1
Flags: W
LayerCount: 2
Fore
SplineSet
415 496 m 1,0,-1
 277 496 l 1,1,-1
 203 0 l 1,2,-1
 82 0 l 1,3,-1
 244 1082 l 1,4,-1
 365 1082 l 1,5,-1
 293 602 l 1,6,-1
 427 602 l 1,7,-1
 942 1082 l 1,8,-1
 1080 1082 l 1,9,-1
 1082 1076 l 1,10,-1
 528 557 l 1,11,-1
 972 5 l 1,12,-1
 969 0 l 1,13,-1
 824 0 l 1,14,-1
 415 496 l 1,0,-1
EndSplineSet
Validated: 1
EndChar

StartChar: Lslash
Encoding: 321 321 259
Width: 1068
GlyphClass: 1
Flags: W
LayerCount: 2
Fore
SplineSet
341 815 m 1,0,-1
 669 915 l 1,1,-1
 653 806 l 1,2,-1
 324 706 l 1,3,-1
 234 101 l 1,4,-1
 986 101 l 1,5,-1
 971 0 l 1,6,-1
 99 0 l 1,7,-1
 199 668 l 1,8,-1
 36 619 l 1,9,-1
 52 728 l 1,10,-1
 215 777 l 1,11,-1
 317 1456 l 1,12,-1
 437 1456 l 1,13,-1
 341 815 l 1,0,-1
EndSplineSet
Validated: 1
EndChar

StartChar: lslash
Encoding: 322 322 260
Width: 529
GlyphClass: 1
Flags: W
LayerCount: 2
Fore
SplineSet
360 855 m 1,0,-1
 565 930 l 1,1,-1
 548 821 l 1,2,-1
 344 745 l 1,3,-1
 232 0 l 1,4,-1
 113 0 l 1,5,-1
 218 699 l 1,6,-1
 41 634 l 1,7,-1
 57 743 l 1,8,-1
 234 808 l 1,9,-1
 347 1560 l 1,10,-1
 466 1560 l 1,11,-1
 360 855 l 1,0,-1
EndSplineSet
Validated: 1
EndChar

StartChar: Eng
Encoding: 330 330 268
Width: 1434
GlyphClass: 1
Flags: W
LayerCount: 2
Fore
SplineSet
1393 1456 m 1,0,-1
 1162 -89 l 2,1,2
 1135 -262 1135 -262 1042.5 -349.5 c 128,-1,3
 950 -437 950 -437 805 -437 c 0,4,5
 776 -437 776 -437 750 -432 c 128,-1,6
 724 -427 724 -427 696 -418 c 1,7,-1
 725 -319 l 1,8,9
 740 -325 740 -325 770 -330 c 128,-1,10
 800 -335 800 -335 821 -335 c 0,11,12
 905 -335 905 -335 965 -269.5 c 128,-1,13
 1025 -204 1025 -204 1043 -89 c 2,14,-1
 1056 0 l 1,15,-1
 414 1245 l 1,16,-1
 409 1244 l 1,17,-1
 222 0 l 1,18,-1
 102 0 l 1,19,-1
 320 1456 l 1,20,-1
 440 1456 l 1,21,-1
 1082 209 l 1,22,-1
 1087 210 l 1,23,-1
 1274 1456 l 1,24,-1
 1393 1456 l 1,0,-1
EndSplineSet
Validated: 1
EndChar

StartChar: eng
Encoding: 331 331 269
Width: 1140
GlyphClass: 1
Flags: W
LayerCount: 2
Fore
SplineSet
331 906 m 1,0,1
 397 1001 397 1001 491.5 1051.5 c 128,-1,2
 586 1102 586 1102 706 1102 c 0,3,4
 876 1102 876 1102 955 993.5 c 128,-1,5
 1034 885 1034 885 1000 659 c 2,6,-1
 888 -89 l 2,7,8
 861 -262 861 -262 768.5 -349.5 c 128,-1,9
 676 -437 676 -437 531 -437 c 0,10,11
 498 -437 498 -437 469 -432 c 128,-1,12
 440 -427 440 -427 410 -418 c 1,13,-1
 440 -315 l 1,14,15
 456 -320 456 -320 489.5 -325 c 128,-1,16
 523 -330 523 -330 548 -330 c 0,17,18
 632 -330 632 -330 691 -267 c 128,-1,19
 750 -204 750 -204 768 -89 c 2,20,-1
 880 658 l 2,21,22
 908 851 908 851 851.5 924.5 c 128,-1,23
 795 998 795 998 664 998 c 0,24,25
 543 998 543 998 454.5 935.5 c 128,-1,26
 366 873 366 873 313 769 c 1,27,-1
 198 0 l 1,28,-1
 78 0 l 1,29,-1
 240 1082 l 1,30,-1
 346 1082 l 1,31,-1
 331 906 l 1,0,1
EndSplineSet
Validated: 33
EndChar

StartChar: OE
Encoding: 338 338 276
Width: 1913
GlyphClass: 1
Flags: W
LayerCount: 2
Fore
SplineSet
1716 0 m 1,0,-1
 877 0 l 1,1,2
 780 -10 780 -10 708 -15.5 c 128,-1,3
 636 -21 636 -21 563 -21 c 0,4,5
 333 -21 333 -21 203.5 146.5 c 128,-1,6
 74 314 74 314 114 576 c 2,7,-1
 160 880 l 2,8,9
 201 1155 201 1155 372.5 1316 c 128,-1,10
 544 1477 544 1477 786 1477 c 0,11,12
 858 1477 858 1477 936.5 1471 c 128,-1,13
 1015 1465 1015 1465 1095 1456 c 1,14,-1
 1929 1456 l 1,15,-1
 1914 1354 l 1,16,-1
 1164 1354 l 1,17,-1
 1082 807 l 1,18,-1
 1735 807 l 1,19,-1
 1720 705 l 1,20,-1
 1066 705 l 1,21,-1
 976 101 l 1,22,-1
 1731 101 l 1,23,-1
 1716 0 l 1,0,-1
578 81 m 0,24,25
 645 81 645 81 718.5 85 c 128,-1,26
 792 89 792 89 855 98 c 1,27,-1
 1044 1357 l 1,28,29
 982 1365 982 1365 913 1370 c 128,-1,30
 844 1375 844 1375 770 1375 c 0,31,32
 585 1375 585 1375 449 1241.5 c 128,-1,33
 313 1108 313 1108 280 882 c 2,34,-1
 234 576 l 2,35,36
 199 339 199 339 291.5 210 c 128,-1,37
 384 81 384 81 578 81 c 0,24,25
EndSplineSet
Validated: 33
EndChar

StartChar: oe
Encoding: 339 339 277
Width: 1890
GlyphClass: 1
Flags: W
LayerCount: 2
Fore
SplineSet
1266 -21 m 0,0,1
 1146 -21 1146 -21 1054.5 34.5 c 128,-1,2
 963 90 963 90 914 191 c 1,3,4
 836 88 836 88 727 33.5 c 128,-1,5
 618 -21 618 -21 488 -21 c 0,6,7
 279 -21 279 -21 166.5 133 c 128,-1,8
 54 287 54 287 90 524 c 2,9,-1
 95 557 l 2,10,11
 131 805 131 805 283 953.5 c 128,-1,12
 435 1102 435 1102 654 1102 c 0,13,14
 776 1102 776 1102 869 1044.5 c 128,-1,15
 962 987 962 987 1011 886 c 1,16,17
 1088 989 1088 989 1195.5 1045.5 c 128,-1,18
 1303 1102 1303 1102 1423 1102 c 0,19,20
 1613 1102 1613 1102 1704.5 974 c 128,-1,21
 1796 846 1796 846 1765 635 c 2,22,-1
 1751 542 l 1,23,-1
 1049 542 l 1,24,-1
 1047 524 l 2,25,26
 1038 470 1038 470 1024.5 421 c 128,-1,27
 1011 372 1011 372 992 327 c 1,28,29
 1011 211 1011 211 1085 145.5 c 128,-1,30
 1159 80 1159 80 1281 80 c 0,31,32
 1376 80 1376 80 1466.5 113 c 128,-1,33
 1557 146 1557 146 1619 200 c 1,34,-1
 1658 118 l 1,35,36
 1592 58 1592 58 1493.5 18.5 c 128,-1,37
 1395 -21 1395 -21 1266 -21 c 0,0,1
210 524 m 2,38,39
 180 329 180 329 255.5 204.5 c 128,-1,40
 331 80 331 80 503 80 c 0,41,42
 619 80 619 80 715 150.5 c 128,-1,43
 811 221 811 221 870 339 c 1,44,45
 864 378 864 378 865 420.5 c 128,-1,46
 866 463 866 463 873 509 c 2,47,-1
 882 564 l 2,48,49
 889 613 889 613 901.5 659 c 128,-1,50
 914 705 914 705 932 747 c 1,51,52
 910 863 910 863 835.5 931.5 c 128,-1,53
 761 1000 761 1000 639 1000 c 0,54,55
 478 1000 478 1000 360 869.5 c 128,-1,56
 242 739 242 739 215 557 c 2,57,-1
 210 524 l 2,38,39
1054 739 m 1,58,59
 1057 713 1057 713 1058.5 689.5 c 128,-1,60
 1060 666 1060 666 1060 644 c 1,61,-1
 1647 644 l 1,62,-1
 1650 669 l 1,63,64
 1672 818 1672 818 1611 909 c 128,-1,65
 1550 1000 1550 1000 1408 1000 c 0,66,67
 1298 1000 1298 1000 1204 928.5 c 128,-1,68
 1110 857 1110 857 1054 739 c 1,58,59
EndSplineSet
Validated: 33
EndChar

StartChar: Tbar
Encoding: 358 358 296
Width: 1224
GlyphClass: 1
Flags: W
LayerCount: 2
Fore
SplineSet
961 834 m 1,0,-1
 724 834 l 1,1,-1
 600 0 l 1,2,-1
 481 0 l 1,3,-1
 606 834 l 1,4,-1
 349 834 l 1,5,-1
 364 936 l 1,6,-1
 621 936 l 1,7,-1
 684 1354 l 1,8,-1
 171 1354 l 1,9,-1
 186 1456 l 1,10,-1
 1314 1456 l 1,11,-1
 1299 1354 l 1,12,-1
 802 1354 l 1,13,-1
 740 936 l 1,14,-1
 976 936 l 1,15,-1
 961 834 l 1,0,-1
EndSplineSet
Validated: 1
Substitution2: "'smcp' Lowercase to Small Capitals lookup 0 subtable" Tbar.smcp
EndChar

StartChar: tbar
Encoding: 359 359 297
Width: 659
GlyphClass: 1
Flags: W
LayerCount: 2
Fore
SplineSet
469 1359 m 1,0,-1
 427 1082 l 1,1,-1
 665 1082 l 1,2,-1
 651 984 l 1,3,-1
 413 984 l 1,4,-1
 373 719 l 1,5,-1
 659 719 l 1,6,-1
 644 617 l 1,7,-1
 357 617 l 1,8,-1
 307 279 l 2,9,10
 290 168 290 168 322 126 c 128,-1,11
 354 84 354 84 419 84 c 0,12,13
 440 84 440 84 462.5 87 c 128,-1,14
 485 90 485 90 511 95 c 1,15,-1
 516 6 l 1,16,17
 489 -7 489 -7 453 -14 c 128,-1,18
 417 -21 417 -21 382 -21 c 0,19,20
 272 -21 272 -21 217 51.5 c 128,-1,21
 162 124 162 124 186 279 c 2,22,-1
 236 617 l 1,23,-1
 32 617 l 1,24,-1
 47 719 l 1,25,-1
 252 719 l 1,26,-1
 291 984 l 1,27,-1
 105 984 l 1,28,-1
 119 1082 l 1,29,-1
 306 1082 l 1,30,-1
 348 1359 l 1,31,-1
 469 1359 l 1,0,-1
EndSplineSet
Validated: 33
Substitution2: "'smcp' Lowercase to Small Capitals lookup 0 subtable" Tbar.smcp
EndChar

StartChar: longs
Encoding: 383 383 321
Width: 465
GlyphClass: 1
Flags: W
LayerCount: 2
Fore
SplineSet
87 0 m 1,0,-1
 273 1240 l 2,1,2
 298 1409 298 1409 392 1495 c 128,-1,3
 486 1581 486 1581 634 1581 c 0,4,5
 665 1581 665 1581 699.5 1576 c 128,-1,6
 734 1571 734 1571 767 1562 c 1,7,-1
 737 1466 l 1,8,9
 713 1472 713 1472 689.5 1475.5 c 128,-1,10
 666 1479 666 1479 634 1479 c 0,11,12
 540 1479 540 1479 474.5 1415 c 128,-1,13
 409 1351 409 1351 392 1240 c 2,14,-1
 206 0 l 1,15,-1
 87 0 l 1,0,-1
EndSplineSet
Validated: 1
EndChar

StartChar: florin
Encoding: 402 402 322
Width: 670
GlyphClass: 1
Flags: W
LayerCount: 2
Fore
SplineSet
663 984 m 1,0,-1
 419 984 l 1,1,-1
 269 -89 l 2,2,3
 244 -262 244 -262 152.5 -349.5 c 128,-1,4
 61 -437 61 -437 -84 -437 c 0,5,6
 -112 -437 -112 -437 -138 -432 c 128,-1,7
 -164 -427 -164 -427 -193 -418 c 1,8,-1
 -165 -319 l 1,9,10
 -150 -324 -150 -324 -120.5 -329.5 c 128,-1,11
 -91 -335 -91 -335 -70 -335 c 0,12,13
 14 -335 14 -335 73 -269.5 c 128,-1,14
 132 -204 132 -204 149 -89 c 2,15,-1
 299 984 l 1,16,-1
 119 984 l 1,17,-1
 132 1082 l 1,18,-1
 312 1082 l 1,19,-1
 335 1240 l 2,20,21
 358 1409 358 1409 451 1495 c 128,-1,22
 544 1581 544 1581 692 1581 c 0,23,24
 723 1581 723 1581 757.5 1576 c 128,-1,25
 792 1571 792 1571 826 1562 c 1,26,-1
 797 1463 l 1,27,28
 773 1469 773 1469 748 1472.5 c 128,-1,29
 723 1476 723 1476 690 1476 c 0,30,31
 596 1476 596 1476 533 1413.5 c 128,-1,32
 470 1351 470 1351 455 1240 c 2,33,-1
 432 1082 l 1,34,-1
 676 1082 l 1,35,-1
 663 984 l 1,0,-1
EndSplineSet
Validated: 1
EndChar

StartChar: Ohorn
Encoding: 416 416 323
Width: 1429
GlyphClass: 1
Flags: W
LayerCount: 2
Fore
SplineSet
1260 609 m 2,0,1
 1216 316 1216 316 1038 147.5 c 128,-1,2
 860 -21 860 -21 597 -21 c 0,3,4
 351 -21 351 -21 219.5 154.5 c 128,-1,5
 88 330 88 330 130 609 c 2,6,-1
 166 846 l 2,7,8
 210 1138 210 1138 386 1307.5 c 128,-1,9
 562 1477 562 1477 821 1477 c 0,10,11
 952 1477 952 1477 1054.5 1424.5 c 128,-1,12
 1157 1372 1157 1372 1220 1278 c 1,13,14
 1363 1280 1363 1280 1457 1371 c 128,-1,15
 1551 1462 1551 1462 1576 1626 c 1,16,-1
 1688 1626 l 1,17,-1
 1691 1620 l 1,18,19
 1663 1420 1663 1420 1554.5 1309 c 128,-1,20
 1446 1198 1446 1198 1270 1180 c 1,21,22
 1296 1107 1296 1107 1303 1023 c 128,-1,23
 1310 939 1310 939 1296 846 c 2,24,-1
 1260 609 l 2,0,1
1177 848 m 2,25,26
 1214 1093 1214 1093 1116.5 1232.5 c 128,-1,27
 1019 1372 1019 1372 805 1372 c 0,28,29
 605 1372 605 1372 463 1226.5 c 128,-1,30
 321 1081 321 1081 286 848 c 2,31,-1
 250 609 l 2,32,33
 212 362 212 362 306.5 222.5 c 128,-1,34
 401 83 401 83 612 83 c 0,35,36
 817 83 817 83 961.5 228 c 128,-1,37
 1106 373 1106 373 1141 609 c 2,38,-1
 1177 848 l 2,25,26
EndSplineSet
Validated: 33
EndChar

StartChar: ohorn
Encoding: 417 417 324
Width: 1146
GlyphClass: 1
Flags: W
LayerCount: 2
Fore
SplineSet
95 557 m 2,0,1
 131 805 131 805 283 953.5 c 128,-1,2
 435 1102 435 1102 654 1102 c 0,3,4
 753 1102 753 1102 832.5 1064.5 c 128,-1,5
 912 1027 912 1027 967 958 c 1,6,7
 1079 966 1079 966 1150.5 1040 c 128,-1,8
 1222 1114 1222 1114 1241 1240 c 1,9,-1
 1344 1240 l 1,10,-1
 1347 1234 l 1,11,12
 1326 1080 1326 1080 1241 990 c 128,-1,13
 1156 900 1156 900 1015 879 c 1,14,15
 1046 811 1046 811 1055.5 729.5 c 128,-1,16
 1065 648 1065 648 1052 557 c 2,17,-1
 1047 524 l 2,18,19
 1009 275 1009 275 857.5 127 c 128,-1,20
 706 -21 706 -21 488 -21 c 0,21,22
 279 -21 279 -21 166.5 133 c 128,-1,23
 54 287 54 287 90 524 c 2,24,-1
 95 557 l 2,0,1
210 524 m 2,25,26
 180 329 180 329 255.5 204.5 c 128,-1,27
 331 80 331 80 503 80 c 0,28,29
 663 80 663 80 781 209.5 c 128,-1,30
 899 339 899 339 928 524 c 2,31,-1
 933 557 l 2,32,33
 961 749 961 749 884.5 874.5 c 128,-1,34
 808 1000 808 1000 639 1000 c 0,35,36
 478 1000 478 1000 360 869.5 c 128,-1,37
 242 739 242 739 215 557 c 2,38,-1
 210 524 l 2,25,26
EndSplineSet
Validated: 33
EndChar

StartChar: Uhorn
Encoding: 431 431 325
Width: 1395
GlyphClass: 1
Flags: W
LayerCount: 2
Fore
SplineSet
1347 1456 m 1,0,-1
 1318 1264 l 1,1,-1
 1323 1261 l 1,2,3
 1452 1273 1452 1273 1537 1363.5 c 128,-1,4
 1622 1454 1622 1454 1646 1607 c 1,5,-1
 1758 1607 l 1,6,-1
 1760 1601 l 1,7,8
 1732 1396 1732 1396 1614 1285 c 128,-1,9
 1496 1174 1496 1174 1302 1159 c 1,10,-1
 1202 489 l 2,11,12
 1165 240 1165 240 1000.5 109.5 c 128,-1,13
 836 -21 836 -21 601 -21 c 0,14,15
 382 -21 382 -21 253 115.5 c 128,-1,16
 124 252 124 252 160 489 c 2,17,-1
 305 1456 l 1,18,-1
 425 1456 l 1,19,-1
 280 489 l 2,20,21
 250 293 250 293 344.5 186.5 c 128,-1,22
 439 80 439 80 616 80 c 0,23,24
 787 80 787 80 921 191 c 128,-1,25
 1055 302 1055 302 1083 489 c 2,26,-1
 1228 1456 l 1,27,-1
 1347 1456 l 1,0,-1
EndSplineSet
Validated: 33
EndChar

StartChar: uhorn
Encoding: 432 432 326
Width: 1159
GlyphClass: 1
Flags: W
LayerCount: 2
Fore
SplineSet
1428 1250 m 1,0,-1
 1430 1244 l 1,1,2
 1406 1063 1406 1063 1306.5 970 c 128,-1,3
 1207 877 1207 877 1032 866 c 1,4,-1
 902 0 l 1,5,-1
 796 0 l 1,6,-1
 812 171 l 1,7,8
 746 78 746 78 651 28.5 c 128,-1,9
 556 -21 556 -21 436 -21 c 0,10,11
 271 -21 271 -21 188.5 96 c 128,-1,12
 106 213 106 213 142 455 c 2,13,-1
 236 1082 l 1,14,-1
 356 1082 l 1,15,-1
 262 453 l 2,16,17
 230 247 230 247 284 165 c 128,-1,18
 338 83 338 83 465 83 c 0,19,20
 597 83 597 83 688.5 146 c 128,-1,21
 780 209 780 209 830 317 c 1,22,-1
 944 1082 l 1,23,-1
 1064 1082 l 1,24,-1
 1046 962 l 1,25,-1
 1052 959 l 1,26,27
 1166 967 1166 967 1235 1041 c 128,-1,28
 1304 1115 1304 1115 1325 1250 c 1,29,-1
 1428 1250 l 1,0,-1
EndSplineSet
Validated: 33
EndChar

StartChar: uni0237
Encoding: 567 567 336
Width: 468
GlyphClass: 1
Flags: W
LayerCount: 2
Fore
SplineSet
380 1082 m 1,0,-1
 205 -89 l 2,1,2
 178 -262 178 -262 86.5 -349.5 c 128,-1,3
 -5 -437 -5 -437 -150 -437 c 0,4,5
 -178 -437 -178 -437 -204 -432 c 128,-1,6
 -230 -427 -230 -427 -259 -418 c 1,7,-1
 -231 -319 l 1,8,9
 -216 -324 -216 -324 -185.5 -329.5 c 128,-1,10
 -155 -335 -155 -335 -134 -335 c 0,11,12
 -50 -335 -50 -335 9 -269.5 c 128,-1,13
 68 -204 68 -204 86 -89 c 2,14,-1
 261 1082 l 1,15,-1
 380 1082 l 1,0,-1
EndSplineSet
Validated: 1
EndChar

StartChar: circumflex
Encoding: 710 710 338
Width: 880
GlyphClass: 1
Flags: W
LayerCount: 2
Fore
SplineSet
826 1270 m 1,0,-1
 823 1252 l 1,1,-1
 711 1252 l 1,2,-1
 569 1420 l 1,3,-1
 378 1252 l 1,4,-1
 268 1252 l 1,5,-1
 271 1273 l 1,6,-1
 531 1494 l 1,7,-1
 629 1494 l 1,8,-1
 826 1270 l 1,0,-1
EndSplineSet
Validated: 1
EndChar

StartChar: caron
Encoding: 711 711 339
Width: 836
GlyphClass: 1
Flags: W
LayerCount: 2
Fore
SplineSet
536 1325 m 1,0,-1
 727 1494 l 1,1,-1
 842 1494 l 1,2,-1
 840 1477 l 1,3,-1
 573 1252 l 1,4,-1
 476 1252 l 1,5,-1
 278 1477 l 1,6,-1
 280 1494 l 1,7,-1
 394 1494 l 1,8,-1
 536 1325 l 1,0,-1
EndSplineSet
Validated: 1
EndChar

StartChar: breve
Encoding: 728 728 340
Width: 865
GlyphClass: 1
Flags: W
LayerCount: 2
Fore
SplineSet
836 1456 m 1,0,-1
 838 1450 l 1,1,2
 825 1334 825 1334 739.5 1266 c 128,-1,3
 654 1198 654 1198 520 1198 c 0,4,5
 392 1198 392 1198 322 1269 c 128,-1,6
 252 1340 252 1340 272 1450 c 1,7,-1
 275 1456 l 1,8,-1
 369 1456 l 1,9,10
 357 1377 357 1377 395.5 1331 c 128,-1,11
 434 1285 434 1285 532 1285 c 0,12,13
 622 1285 622 1285 677 1333.5 c 128,-1,14
 732 1382 732 1382 743 1456 c 1,15,-1
 836 1456 l 1,0,-1
EndSplineSet
Validated: 33
EndChar

StartChar: dotaccent
Encoding: 729 729 341
Width: 487
GlyphClass: 1
Flags: W
LayerCount: 2
Fore
SplineSet
421 1288 m 1,0,-1
 270 1288 l 1,1,-1
 295 1456 l 1,2,-1
 446 1456 l 1,3,-1
 421 1288 l 1,0,-1
EndSplineSet
Validated: 1
EndChar

StartChar: ring
Encoding: 730 730 342
Width: 676
GlyphClass: 1
Flags: W
LayerCount: 2
Fore
SplineSet
305 1324 m 0,0,1
 314 1390 314 1390 366 1433.5 c 128,-1,2
 418 1477 418 1477 482 1477 c 0,3,4
 542 1477 542 1477 580.5 1432 c 128,-1,5
 619 1387 619 1387 610 1324 c 0,6,7
 599 1257 599 1257 549 1216 c 128,-1,8
 499 1175 499 1175 436 1175 c 0,9,10
 374 1175 374 1175 334.5 1217.5 c 128,-1,11
 295 1260 295 1260 305 1324 c 0,0,1
382 1324 m 0,12,13
 376 1290 376 1290 395 1268.5 c 128,-1,14
 414 1247 414 1247 447 1247 c 0,15,16
 477 1247 477 1247 502.5 1268.5 c 128,-1,17
 528 1290 528 1290 534 1324 c 0,18,19
 539 1359 539 1359 520.5 1381 c 128,-1,20
 502 1403 502 1403 470 1403 c 0,21,22
 439 1403 439 1403 413 1380 c 128,-1,23
 387 1357 387 1357 382 1324 c 0,12,13
EndSplineSet
Validated: 33
EndChar

StartChar: ogonek
Encoding: 731 731 343
Width: 512
GlyphClass: 1
Flags: W
LayerCount: 2
Fore
SplineSet
267 0 m 1,0,1
 186 -60 186 -60 140.5 -108 c 128,-1,2
 95 -156 95 -156 87 -212 c 0,3,4
 81 -244 81 -244 96.5 -270.5 c 128,-1,5
 112 -297 112 -297 163 -297 c 0,6,7
 194 -297 194 -297 220.5 -287.5 c 128,-1,8
 247 -278 247 -278 273 -265 c 1,9,-1
 285 -348 l 1,10,11
 252 -367 252 -367 213.5 -379.5 c 128,-1,12
 175 -392 175 -392 126 -392 c 0,13,14
 52 -392 52 -392 9 -347 c 128,-1,15
 -34 -302 -34 -302 -22 -223 c 0,16,17
 -11 -150 -11 -150 49.5 -83.5 c 128,-1,18
 110 -17 110 -17 212 37 c 1,19,-1
 267 0 l 1,0,1
EndSplineSet
Validated: 33
EndChar

StartChar: tilde
Encoding: 732 732 344
Width: 892
GlyphClass: 1
Flags: W
LayerCount: 2
Fore
SplineSet
899 1481 m 1,0,1
 886 1390 886 1390 824 1333.5 c 128,-1,2
 762 1277 762 1277 679 1277 c 0,3,4
 610 1277 610 1277 538.5 1332 c 128,-1,5
 467 1387 467 1387 412 1387 c 0,6,7
 367 1387 367 1387 329 1351.5 c 128,-1,8
 291 1316 291 1316 284 1263 c 1,9,-1
 206 1281 l 1,10,11
 218 1370 218 1370 280 1427 c 128,-1,12
 342 1484 342 1484 426 1484 c 0,13,14
 488 1484 488 1484 563.5 1429 c 128,-1,15
 639 1374 639 1374 692 1374 c 0,16,17
 736 1374 736 1374 775 1410 c 128,-1,18
 814 1446 814 1446 822 1501 c 1,19,-1
 899 1481 l 1,0,1
EndSplineSet
Validated: 1
EndChar

StartChar: hungarumlaut
Encoding: 733 733 345
Width: 773
GlyphClass: 1
Flags: W
LayerCount: 2
Fore
SplineSet
791 1518 m 1,0,-1
 935 1518 l 1,1,-1
 937 1512 l 1,2,-1
 602 1252 l 1,3,-1
 490 1252 l 1,4,-1
 488 1258 l 1,5,-1
 791 1518 l 1,0,-1
496 1518 m 1,6,-1
 629 1518 l 1,7,-1
 631 1512 l 1,8,-1
 347 1252 l 1,9,-1
 246 1252 l 1,10,-1
 243 1258 l 1,11,-1
 496 1518 l 1,6,-1
EndSplineSet
Validated: 1
EndChar

StartChar: uni02F3
Encoding: 755 755 346
Width: 655
GlyphClass: 1
Flags: W
LayerCount: 2
Fore
SplineSet
70 -226 m 0,0,1
 78 -167 78 -167 126.5 -129.5 c 128,-1,2
 175 -92 175 -92 236 -92 c 0,3,4
 292 -92 292 -92 329 -131 c 128,-1,5
 366 -170 366 -170 358 -226 c 0,6,7
 349 -284 349 -284 302.5 -320 c 128,-1,8
 256 -356 256 -356 197 -356 c 0,9,10
 139 -356 139 -356 100 -318 c 128,-1,11
 61 -280 61 -280 70 -226 c 0,0,1
142 -226 m 0,12,13
 138 -253 138 -253 157 -270.5 c 128,-1,14
 176 -288 176 -288 207 -288 c 0,15,16
 236 -288 236 -288 259.5 -270 c 128,-1,17
 283 -252 283 -252 287 -226 c 0,18,19
 291 -196 291 -196 273.5 -178.5 c 128,-1,20
 256 -161 256 -161 226 -161 c 256,21,22
 196 -161 196 -161 171 -179.5 c 128,-1,23
 146 -198 146 -198 142 -226 c 0,12,13
EndSplineSet
Validated: 33
EndChar

StartChar: hook
Encoding: 777 777 350
Width: 0
GlyphClass: 1
Flags: W
LayerCount: 2
Fore
SplineSet
-520 1234 m 1,0,-1
 -501 1359 l 1,1,2
 -409 1366 -409 1366 -368 1385.5 c 128,-1,3
 -327 1405 -327 1405 -320 1453 c 0,4,5
 -312 1501 -312 1501 -368.5 1524.5 c 128,-1,6
 -425 1548 -425 1548 -507 1548 c 1,7,-1
 -488 1625 l 1,8,9
 -350 1625 -350 1625 -279 1579.5 c 128,-1,10
 -208 1534 -208 1534 -220 1452 c 0,11,12
 -231 1378 -231 1378 -285.5 1340.5 c 128,-1,13
 -340 1303 -340 1303 -420 1296 c 1,14,-1
 -430 1234 l 1,15,-1
 -520 1234 l 1,0,-1
EndSplineSet
Validated: 33
EndChar

StartChar: uni030F
Encoding: 783 783 351
Width: 0
GlyphClass: 1
Flags: W
LayerCount: 2
Fore
SplineSet
-451 1257 m 1,0,-1
 -453 1252 l 1,1,-1
 -567 1252 l 1,2,-1
 -824 1512 l 1,3,-1
 -821 1518 l 1,4,-1
 -676 1518 l 1,5,-1
 -451 1257 l 1,0,-1
-203 1252 m 1,6,-1
 -312 1252 l 1,7,-1
 -522 1518 l 1,8,-1
 -381 1518 l 1,9,-1
 -203 1252 l 1,6,-1
EndSplineSet
Validated: 1
EndChar

StartChar: dotbelow
Encoding: 803 803 352
Width: 0
GlyphClass: 1
Flags: W
LayerCount: 2
Fore
SplineSet
-639 -315 m 1,0,-1
 -790 -315 l 1,1,-1
 -765 -147 l 1,2,-1
 -614 -147 l 1,3,-1
 -639 -315 l 1,0,-1
EndSplineSet
Validated: 1
EndChar

StartChar: tonos
Encoding: 900 900 353
Width: 519
GlyphClass: 1
Flags: W
LayerCount: 2
Fore
SplineSet
399 1529 m 1,0,-1
 552 1529 l 1,1,-1
 390 1305 l 1,2,-1
 334 1305 l 1,3,-1
 399 1529 l 1,0,-1
EndSplineSet
Validated: 1
EndChar

StartChar: dieresistonos
Encoding: 901 901 354
Width: 981
GlyphClass: 1
Flags: W
LayerCount: 2
Fore
SplineSet
931 1304 m 1,0,-1
 772 1304 l 1,1,-1
 794 1456 l 1,2,-1
 953 1456 l 1,3,-1
 931 1304 l 1,0,-1
439 1304 m 1,4,-1
 279 1304 l 1,5,-1
 301 1456 l 1,6,-1
 461 1456 l 1,7,-1
 439 1304 l 1,4,-1
654 1691 m 1,8,-1
 828 1691 l 1,9,-1
 673 1472 l 1,10,-1
 585 1472 l 1,11,-1
 654 1691 l 1,8,-1
EndSplineSet
Validated: 1
EndChar

StartChar: Gamma
Encoding: 915 915 366
Width: 1122
GlyphClass: 1
Flags: W
LayerCount: 2
Fore
SplineSet
1178 1354 m 1,0,-1
 422 1354 l 1,1,-1
 219 0 l 1,2,-1
 99 0 l 1,3,-1
 317 1456 l 1,4,-1
 1193 1456 l 1,5,-1
 1178 1354 l 1,0,-1
EndSplineSet
Validated: 1
EndChar

StartChar: Delta
Encoding: 916 916 367
AltUni2: 002206.ffffffff.0 002206.ffffffff.0
Width: 1427
GlyphClass: 1
Flags: W
LayerCount: 2
Fore
SplineSet
912 1456 m 1,0,-1
 1292 0 l 1,1,-1
 -35 0 l 1,2,-1
 799 1456 l 1,3,-1
 912 1456 l 1,0,-1
146 101 m 1,4,-1
 1141 101 l 1,5,-1
 836 1307 l 1,6,-1
 830 1308 l 1,7,-1
 146 101 l 1,4,-1
EndSplineSet
Validated: 1
EndChar

StartChar: Theta
Encoding: 920 920 371
Width: 1379
GlyphClass: 1
Flags: W
LayerCount: 2
Fore
SplineSet
987 676 m 1,0,-1
 433 676 l 1,1,-1
 449 777 l 1,2,-1
 1003 777 l 1,3,-1
 987 676 l 1,0,-1
1265 609 m 2,4,5
 1221 316 1221 316 1043 147.5 c 128,-1,6
 865 -21 865 -21 602 -21 c 0,7,8
 356 -21 356 -21 224.5 154.5 c 128,-1,9
 93 330 93 330 135 609 c 2,10,-1
 171 846 l 2,11,12
 215 1138 215 1138 391 1307.5 c 128,-1,13
 567 1477 567 1477 826 1477 c 0,14,15
 1076 1477 1076 1477 1209 1300.5 c 128,-1,16
 1342 1124 1342 1124 1301 846 c 2,17,-1
 1265 609 l 2,4,5
1182 848 m 2,18,19
 1219 1093 1219 1093 1121.5 1232.5 c 128,-1,20
 1024 1372 1024 1372 810 1372 c 0,21,22
 610 1372 610 1372 468 1226.5 c 128,-1,23
 326 1081 326 1081 291 848 c 2,24,-1
 255 609 l 2,25,26
 217 362 217 362 311.5 222.5 c 128,-1,27
 406 83 406 83 617 83 c 0,28,29
 822 83 822 83 966.5 228 c 128,-1,30
 1111 373 1111 373 1146 609 c 2,31,-1
 1182 848 l 2,18,19
EndSplineSet
Validated: 33
EndChar

StartChar: Lambda
Encoding: 923 923 374
Width: 1327
GlyphClass: 1
Flags: W
LayerCount: 2
Fore
SplineSet
775 1283 m 1,0,-1
 769 1284 l 1,1,-1
 114 0 l 1,2,-1
 -11 0 l 1,3,-1
 741 1456 l 1,4,-1
 855 1456 l 1,5,-1
 1171 0 l 1,6,-1
 1047 0 l 1,7,-1
 775 1283 l 1,0,-1
EndSplineSet
Validated: 1
EndChar

StartChar: Xi
Encoding: 926 926 377
Width: 1145
GlyphClass: 1
Flags: W
LayerCount: 2
Fore
SplineSet
52 101 m 1,0,-1
 971 101 l 1,1,-1
 956 0 l 1,2,-1
 37 0 l 1,3,-1
 52 101 l 1,0,-1
251 784 m 1,4,-1
 969 784 l 1,5,-1
 953 682 l 1,6,-1
 235 682 l 1,7,-1
 251 784 l 1,4,-1
266 1456 m 1,8,-1
 1148 1456 l 1,9,-1
 1133 1354 l 1,10,-1
 251 1354 l 1,11,-1
 266 1456 l 1,8,-1
EndSplineSet
Validated: 1
EndChar

StartChar: Pi
Encoding: 928 928 379
Width: 1438
GlyphClass: 1
Flags: W
LayerCount: 2
Fore
SplineSet
1173 0 m 1,0,-1
 1053 0 l 1,1,-1
 1256 1354 l 1,2,-1
 428 1354 l 1,3,-1
 225 0 l 1,4,-1
 105 0 l 1,5,-1
 323 1456 l 1,6,-1
 1391 1456 l 1,7,-1
 1173 0 l 1,0,-1
EndSplineSet
Validated: 1
EndChar

StartChar: Sigma
Encoding: 931 931 381
Width: 1145
GlyphClass: 1
Flags: W
LayerCount: 2
Fore
SplineSet
734 743 m 1,0,-1
 153 107 l 1,1,-1
 155 102 l 1,2,-1
 1005 102 l 1,3,-1
 990 0 l 1,4,-1
 -17 0 l 1,5,-1
 -3 93 l 1,6,-1
 613 759 l 1,7,-1
 187 1363 l 1,8,-1
 201 1456 l 1,9,-1
 1153 1456 l 1,10,-1
 1138 1354 l 1,11,-1
 343 1354 l 1,12,-1
 740 779 l 1,13,-1
 734 743 l 1,0,-1
EndSplineSet
Validated: 1
EndChar

StartChar: Phi
Encoding: 934 934 384
Width: 1433
GlyphClass: 1
Flags: W
LayerCount: 2
Fore
SplineSet
881 1227 m 1,0,1
 1115 1220 1115 1220 1252 1076 c 128,-1,2
 1389 932 1389 932 1357 721 c 0,3,4
 1323 495 1323 495 1149.5 355.5 c 128,-1,5
 976 216 976 216 728 211 c 1,6,-1
 697 0 l 1,7,-1
 577 0 l 1,8,-1
 608 211 l 1,9,10
 373 217 373 217 237 361 c 128,-1,11
 101 505 101 505 134 719 c 0,12,13
 166 941 166 941 339 1081 c 128,-1,14
 512 1221 512 1221 761 1227 c 1,15,-1
 795 1456 l 1,16,-1
 915 1456 l 1,17,-1
 881 1227 l 1,0,1
1238 721 m 0,18,19
 1265 904 1265 904 1167 1012 c 128,-1,20
 1069 1120 1069 1120 870 1120 c 1,21,-1
 864 1118 l 1,22,-1
 744 320 l 1,23,-1
 749 317 l 1,24,25
 939 318 939 318 1074.5 431 c 128,-1,26
 1210 544 1210 544 1238 721 c 0,18,19
253 719 m 0,27,28
 225 533 225 533 322 425.5 c 128,-1,29
 419 318 419 318 618 317 c 1,30,-1
 624 319 l 1,31,-1
 744 1117 l 1,32,-1
 739 1120 l 1,33,34
 549 1118 549 1118 413.5 1005 c 128,-1,35
 278 892 278 892 253 719 c 0,27,28
EndSplineSet
Validated: 33
EndChar

StartChar: Psi
Encoding: 936 936 386
Width: 1422
GlyphClass: 1
Flags: W
LayerCount: 2
Fore
SplineSet
750 460 m 1,0,-1
 756 457 l 1,1,2
 931 467 931 467 1062.5 585.5 c 128,-1,3
 1194 704 1194 704 1223 896 c 2,4,-1
 1307 1456 l 1,5,-1
 1427 1456 l 1,6,-1
 1343 896 l 2,7,8
 1304 640 1304 640 1139.5 500.5 c 128,-1,9
 975 361 975 361 734 348 c 1,10,-1
 682 0 l 1,11,-1
 561 0 l 1,12,-1
 613 349 l 1,13,14
 390 364 390 364 266 509 c 128,-1,15
 142 654 142 654 178 896 c 2,16,-1
 262 1456 l 1,17,-1
 382 1456 l 1,18,-1
 298 896 l 2,19,20
 268 695 268 695 358 581 c 128,-1,21
 448 467 448 467 623 457 c 1,22,-1
 629 459 l 1,23,-1
 779 1456 l 1,24,-1
 900 1456 l 1,25,-1
 750 460 l 1,0,-1
EndSplineSet
Validated: 33
EndChar

StartChar: Omega
Encoding: 937 937 387
AltUni2: 002126.ffffffff.0 002126.ffffffff.0
Width: 1341
GlyphClass: 1
Flags: W
LayerCount: 2
Fore
SplineSet
674 35 m 1,0,-1
 684 101 l 1,1,-1
 686 116 l 1,2,3
 838 165 838 165 953.5 316 c 128,-1,4
 1069 467 1069 467 1109 727 c 2,5,-1
 1127 846 l 2,6,7
 1164 1094 1164 1094 1072.5 1234.5 c 128,-1,8
 981 1375 981 1375 788 1375 c 0,9,10
 604 1375 604 1375 465.5 1228.5 c 128,-1,11
 327 1082 327 1082 292 846 c 2,12,-1
 274 727 l 2,13,14
 233 455 233 455 305 310 c 128,-1,15
 377 165 377 165 520 116 c 1,16,-1
 518 101 l 1,17,-1
 508 35 l 1,18,-1
 503 0 l 1,19,-1
 40 0 l 1,20,-1
 55 101 l 1,21,-1
 367 101 l 1,22,23
 243 188 243 188 183 351.5 c 128,-1,24
 123 515 123 515 155 727 c 2,25,-1
 173 844 l 2,26,27
 216 1138 216 1138 388.5 1307.5 c 128,-1,28
 561 1477 561 1477 804 1477 c 0,29,30
 1033 1477 1033 1477 1160.5 1300 c 128,-1,31
 1288 1123 1288 1123 1247 844 c 2,32,-1
 1229 727 l 2,33,34
 1196 507 1196 507 1089.5 346.5 c 128,-1,35
 983 186 983 186 835 101 c 1,36,-1
 1147 101 l 1,37,-1
 1132 0 l 1,38,-1
 669 0 l 1,39,-1
 674 35 l 1,0,-1
EndSplineSet
Validated: 33
EndChar

StartChar: alpha
Encoding: 945 945 395
Width: 1153
GlyphClass: 1
Flags: W
LayerCount: 2
Fore
SplineSet
1055 1081 m 1,0,-1
 931 254 l 2,1,2
 916 157 916 157 937 122 c 128,-1,3
 958 87 958 87 1008 87 c 0,4,5
 1022 87 1022 87 1036.5 89 c 128,-1,6
 1051 91 1051 91 1067 95 c 1,7,-1
 1070 2 l 1,8,9
 1045 -11 1045 -11 1021 -16 c 128,-1,10
 997 -21 997 -21 970 -21 c 0,11,12
 894 -21 894 -21 852 18.5 c 128,-1,13
 810 58 810 58 805 144 c 1,14,15
 737 65 737 65 645.5 22 c 128,-1,16
 554 -21 554 -21 441 -21 c 0,17,18
 254 -21 254 -21 162.5 125.5 c 128,-1,19
 71 272 71 272 108 511 c 2,20,-1
 111 532 l 2,21,22
 151 801 151 801 282 951.5 c 128,-1,23
 413 1102 413 1102 611 1102 c 0,24,25
 721 1102 721 1102 799.5 1054 c 128,-1,26
 878 1006 878 1006 922 919 c 1,27,-1
 983 1081 l 1,28,-1
 1055 1081 l 1,0,-1
228 511 m 2,29,30
 197 308 197 308 258 194 c 128,-1,31
 319 80 319 80 478 80 c 0,32,33
 585 80 585 80 670 130.5 c 128,-1,34
 755 181 755 181 814 268 c 1,35,-1
 894 802 l 1,36,37
 866 890 866 890 800 945 c 128,-1,38
 734 1000 734 1000 618 1000 c 0,39,40
 466 1000 466 1000 363.5 868 c 128,-1,41
 261 736 261 736 231 532 c 2,42,-1
 228 511 l 2,29,30
EndSplineSet
Validated: 33
EndChar

StartChar: beta
Encoding: 946 946 396
Width: 1213
GlyphClass: 1
Flags: W
LayerCount: 2
Fore
SplineSet
736 1477 m 0,0,1
 914 1477 914 1477 1013 1368.5 c 128,-1,2
 1112 1260 1112 1260 1087 1093 c 0,3,4
 1071 987 1071 987 1007 905.5 c 128,-1,5
 943 824 943 824 842 780 c 1,6,7
 970 740 970 740 1030.5 639 c 128,-1,8
 1091 538 1091 538 1071 404 c 0,9,10
 1039 196 1039 196 900.5 87.5 c 128,-1,11
 762 -21 762 -21 557 -21 c 0,12,13
 464 -21 464 -21 375.5 12.5 c 128,-1,14
 287 46 287 46 233 111 c 1,15,-1
 157 -399 l 1,16,-1
 37 -399 l 1,17,-1
 256 1063 l 2,18,19
 283 1244 283 1244 422 1360.5 c 128,-1,20
 561 1477 561 1477 736 1477 c 0,0,1
539 823 m 1,21,-1
 633 823 l 2,22,23
 778 823 778 823 863.5 896 c 128,-1,24
 949 969 949 969 969 1098 c 0,25,26
 985 1215 985 1215 922.5 1295 c 128,-1,27
 860 1375 860 1375 720 1375 c 0,28,29
 599 1375 599 1375 497 1285 c 128,-1,30
 395 1195 395 1195 376 1063 c 2,31,-1
 252 235 l 1,32,33
 286 163 286 163 369 121.5 c 128,-1,34
 452 80 452 80 563 80 c 0,35,36
 718 80 718 80 823 167 c 128,-1,37
 928 254 928 254 950 400 c 0,38,39
 972 545 972 545 898 633 c 128,-1,40
 824 721 824 721 667 721 c 2,41,-1
 524 721 l 1,42,-1
 536 803 l 1,43,-1
 539 823 l 1,21,-1
EndSplineSet
Validated: 33
EndChar

StartChar: gamma
Encoding: 947 947 397
Width: 1002
GlyphClass: 1
Flags: W
LayerCount: 2
Fore
SplineSet
921 1082 m 1,0,-1
 1045 1082 l 1,1,-1
 488 31 l 1,2,-1
 422 -416 l 1,3,-1
 302 -416 l 1,4,-1
 368 32 l 1,5,-1
 126 1082 l 1,6,-1
 250 1082 l 1,7,-1
 427 271 l 1,8,-1
 444 145 l 1,9,-1
 449 144 l 1,10,-1
 506 271 l 1,11,-1
 921 1082 l 1,0,-1
EndSplineSet
Validated: 1
EndChar

StartChar: delta
Encoding: 948 948 398
Width: 1140
GlyphClass: 1
Flags: W
LayerCount: 2
Fore
SplineSet
1081 1456 m 1,0,-1
 1066 1356 l 1,1,-1
 497 1356 l 1,2,-1
 495 1350 l 1,3,-1
 913 1022 l 2,4,5
 999 954 999 954 1036 828.5 c 128,-1,6
 1073 703 1073 703 1052 557 c 2,7,-1
 1047 524 l 2,8,9
 1009 275 1009 275 857.5 127 c 128,-1,10
 706 -21 706 -21 488 -21 c 0,11,12
 279 -21 279 -21 166.5 133 c 128,-1,13
 54 287 54 287 90 524 c 2,14,-1
 95 557 l 2,15,16
 130 792 130 792 270.5 937.5 c 128,-1,17
 411 1083 411 1083 614 1098 c 0,18,19
 623 1098 623 1098 632 1097.5 c 128,-1,20
 641 1097 641 1097 645 1097 c 2,21,-1
 647 1103 l 1,22,-1
 320 1371 l 1,23,-1
 332 1456 l 1,24,-1
 1081 1456 l 1,0,-1
639 1000 m 0,25,26
 478 1000 478 1000 360 869.5 c 128,-1,27
 242 739 242 739 215 557 c 2,28,-1
 210 524 l 2,29,30
 180 329 180 329 255.5 204.5 c 128,-1,31
 331 80 331 80 503 80 c 0,32,33
 663 80 663 80 781 209.5 c 128,-1,34
 899 339 899 339 928 524 c 2,35,-1
 933 557 l 2,36,37
 961 749 961 749 884.5 874.5 c 128,-1,38
 808 1000 808 1000 639 1000 c 0,25,26
EndSplineSet
Validated: 33
EndChar

StartChar: epsilon
Encoding: 949 949 399
Width: 1113
GlyphClass: 1
Flags: W
LayerCount: 2
Fore
SplineSet
729 524 m 1,0,-1
 726 502 l 1,1,-1
 541 502 l 2,2,3
 388 502 388 502 298 451 c 128,-1,4
 208 400 208 400 192 295 c 0,5,6
 177 195 177 195 253 138.5 c 128,-1,7
 329 82 329 82 482 82 c 0,8,9
 622 82 622 82 727 148 c 128,-1,10
 832 214 832 214 847 310 c 1,11,-1
 957 310 l 1,12,-1
 958 304 l 1,13,14
 939 142 939 142 796 62 c 128,-1,15
 653 -18 653 -18 467 -18 c 0,16,17
 277 -18 277 -18 163.5 67 c 128,-1,18
 50 152 50 152 72 297 c 0,19,20
 86 399 86 399 153 464 c 128,-1,21
 220 529 220 529 337 557 c 1,22,23
 245 591 245 591 199 654 c 128,-1,24
 153 717 153 717 165 794 c 0,25,26
 187 946 187 946 311 1022.5 c 128,-1,27
 435 1099 435 1099 635 1099 c 0,28,29
 809 1099 809 1099 924 1014 c 128,-1,30
 1039 929 1039 929 1014 796 c 1,31,-1
 1012 790 l 1,32,-1
 902 790 l 1,33,34
 915 885 915 885 834.5 941.5 c 128,-1,35
 754 998 754 998 620 998 c 0,36,37
 475 998 475 998 387 940.5 c 128,-1,38
 299 883 299 883 286 796 c 0,39,40
 272 701 272 701 336 651.5 c 128,-1,41
 400 602 400 602 556 602 c 2,42,-1
 741 602 l 1,43,-1
 737 579 l 1,44,-1
 738 579 l 1,45,-1
 735 561 l 1,46,-1
 730 524 l 1,47,-1
 729 524 l 1,0,-1
EndSplineSet
Validated: 33
EndChar

StartChar: zeta
Encoding: 950 950 400
Width: 1020
GlyphClass: 1
Flags: W
LayerCount: 2
Fore
SplineSet
1063 1456 m 1,0,-1
 1052 1383 l 1,1,-1
 580 874 l 2,2,3
 432 719 432 719 361.5 602 c 128,-1,4
 291 485 291 485 273 363 c 0,5,6
 255 242 255 242 316 171.5 c 128,-1,7
 377 101 377 101 519 101 c 2,8,-1
 589 101 l 2,9,10
 714 101 714 101 776 45 c 128,-1,11
 838 -11 838 -11 824 -112 c 0,12,13
 808 -210 808 -210 722.5 -287.5 c 128,-1,14
 637 -365 637 -365 541 -400 c 1,15,-1
 509 -313 l 1,16,17
 574 -288 574 -288 636 -236 c 128,-1,18
 698 -184 698 -184 709 -116 c 0,19,20
 717 -57 717 -57 684 -28.5 c 128,-1,21
 651 0 651 0 566 0 c 2,22,-1
 486 0 l 2,23,24
 304 0 304 0 217.5 105 c 128,-1,25
 131 210 131 210 154 360 c 0,26,27
 171 480 171 480 251.5 620.5 c 128,-1,28
 332 761 332 761 497 932 c 2,29,-1
 898 1348 l 1,30,-1
 895 1354 l 1,31,-1
 196 1354 l 1,32,-1
 211 1456 l 1,33,-1
 1063 1456 l 1,0,-1
EndSplineSet
Validated: 33
EndChar

StartChar: eta
Encoding: 951 951 401
Width: 1140
GlyphClass: 1
Flags: W
LayerCount: 2
Fore
SplineSet
331 906 m 1,0,1
 397 1001 397 1001 491.5 1051.5 c 128,-1,2
 586 1102 586 1102 706 1102 c 0,3,4
 877 1102 877 1102 955.5 996 c 128,-1,5
 1034 890 1034 890 1000 659 c 2,6,-1
 839 -415 l 1,7,-1
 719 -415 l 1,8,-1
 880 658 l 2,9,10
 908 852 908 852 851.5 926 c 128,-1,11
 795 1000 795 1000 664 1000 c 0,12,13
 544 1000 544 1000 455.5 937.5 c 128,-1,14
 367 875 367 875 314 770 c 1,15,-1
 198 0 l 1,16,-1
 78 0 l 1,17,-1
 240 1082 l 1,18,-1
 346 1082 l 1,19,-1
 331 906 l 1,0,1
EndSplineSet
Validated: 33
EndChar

StartChar: theta
Encoding: 952 952 402
Width: 1174
GlyphClass: 1
Flags: W
LayerCount: 2
Fore
SplineSet
1023 514 m 2,0,1
 984 255 984 255 844.5 117 c 128,-1,2
 705 -21 705 -21 492 -21 c 0,3,4
 290 -21 290 -21 185.5 124 c 128,-1,5
 81 269 81 269 118 514 c 2,6,-1
 182 942 l 2,7,8
 220 1199 220 1199 361 1338 c 128,-1,9
 502 1477 502 1477 715 1477 c 0,10,11
 917 1477 917 1477 1020.5 1331.5 c 128,-1,12
 1124 1186 1124 1186 1087 942 c 2,13,-1
 1023 514 l 2,0,1
276 775 m 1,14,-1
 942 775 l 1,15,-1
 970 961 l 2,16,17
 999 1158 999 1158 930 1266.5 c 128,-1,18
 861 1375 861 1375 699 1375 c 0,19,20
 545 1375 545 1375 438.5 1262 c 128,-1,21
 332 1149 332 1149 304 961 c 2,22,-1
 276 775 l 1,14,-1
926 673 m 1,23,-1
 260 673 l 1,24,-1
 234 496 l 2,25,26
 205 300 205 300 275.5 190 c 128,-1,27
 346 80 346 80 507 80 c 0,28,29
 660 80 660 80 766 194.5 c 128,-1,30
 872 309 872 309 900 496 c 2,31,-1
 926 673 l 1,23,-1
EndSplineSet
Validated: 33
EndChar

StartChar: iota
Encoding: 953 953 403
Width: 614
GlyphClass: 1
Flags: W
LayerCount: 2
Fore
SplineSet
384 1081 m 1,0,-1
 263 274 l 2,1,2
 246 163 246 163 277.5 123 c 128,-1,3
 309 83 309 83 379 83 c 0,4,5
 404 83 404 83 429 87.5 c 128,-1,6
 454 92 454 92 482 100 c 1,7,-1
 494 11 l 1,8,9
 457 -7 457 -7 420.5 -14 c 128,-1,10
 384 -21 384 -21 342 -21 c 0,11,12
 223 -21 223 -21 171.5 50 c 128,-1,13
 120 121 120 121 144 279 c 2,14,-1
 264 1081 l 1,15,-1
 384 1081 l 1,0,-1
EndSplineSet
Validated: 33
EndChar

StartChar: lambda
Encoding: 955 955 405
Width: 1140
GlyphClass: 1
Flags: W
LayerCount: 2
Fore
SplineSet
107 0 m 1,0,-1
 -26 0 l 1,1,-1
 544 1053 l 1,2,-1
 508 1214 l 1,3,4
 491 1309 491 1309 456 1362.5 c 128,-1,5
 421 1416 421 1416 352 1416 c 0,6,7
 342 1416 342 1416 320.5 1413.5 c 128,-1,8
 299 1411 299 1411 284 1410 c 1,9,-1
 293 1505 l 1,10,11
 308 1509 308 1509 336.5 1513.5 c 128,-1,12
 365 1518 365 1518 385 1518 c 0,13,14
 499 1518 499 1518 552.5 1439 c 128,-1,15
 606 1360 606 1360 627 1254 c 2,16,-1
 843 289 l 2,17,18
 860 199 860 199 890.5 147 c 128,-1,19
 921 95 921 95 972 95 c 0,20,21
 984 95 984 95 1000.5 96.5 c 128,-1,22
 1017 98 1017 98 1031 101 c 1,23,-1
 1020 0 l 1,24,25
 1008 -4 1008 -4 985.5 -7.5 c 128,-1,26
 963 -11 963 -11 949 -11 c 0,27,28
 851 -11 851 -11 799.5 61.5 c 128,-1,29
 748 134 748 134 723 252 c 2,30,-1
 579 899 l 1,31,-1
 573 899 l 1,32,-1
 522 784 l 1,33,-1
 107 0 l 1,0,-1
EndSplineSet
Validated: 1
EndChar

StartChar: xi
Encoding: 958 958 408
Width: 1046
GlyphClass: 1
Flags: W
LayerCount: 2
Fore
SplineSet
1047 1456 m 1,0,-1
 1032 1354 l 1,1,-1
 779 1354 l 1,2,3
 618 1349 618 1349 520 1278 c 128,-1,4
 422 1207 422 1207 407 1099 c 0,5,6
 390 985 390 985 466 927 c 128,-1,7
 542 869 542 869 727 869 c 2,8,-1
 858 869 l 1,9,-1
 854 846 l 1,10,-1
 855 846 l 1,11,-1
 843 766 l 1,12,-1
 712 766 l 2,13,14
 519 766 519 766 383 677 c 128,-1,15
 247 588 247 588 221 413 c 0,16,17
 198 262 198 262 297 177 c 128,-1,18
 396 92 396 92 588 92 c 2,19,-1
 639 92 l 2,20,21
 775 92 775 92 842 33 c 128,-1,22
 909 -26 909 -26 894 -132 c 0,23,24
 878 -227 878 -227 793 -301.5 c 128,-1,25
 708 -376 708 -376 613 -409 c 1,26,-1
 581 -321 l 1,27,28
 647 -298 647 -298 708 -249.5 c 128,-1,29
 769 -201 769 -201 780 -136 c 0,30,31
 789 -72 789 -72 753.5 -40 c 128,-1,32
 718 -8 718 -8 628 -8 c 2,33,-1
 573 -8 l 2,34,35
 340 -8 340 -8 206 105.5 c 128,-1,36
 72 219 72 219 102 417 c 0,37,38
 125 577 125 577 225.5 678 c 128,-1,39
 326 779 326 779 490 820 c 1,40,41
 381 858 381 858 326 931.5 c 128,-1,42
 271 1005 271 1005 285 1095 c 0,43,44
 298 1184 298 1184 344.5 1248.5 c 128,-1,45
 391 1313 391 1313 467 1354 c 1,46,-1
 222 1354 l 1,47,-1
 237 1456 l 1,48,-1
 1047 1456 l 1,0,-1
EndSplineSet
Validated: 33
EndChar

StartChar: pi
Encoding: 960 960 410
Width: 1186
GlyphClass: 1
Flags: W
LayerCount: 2
Fore
SplineSet
1181 979 m 1,0,-1
 969 979 l 1,1,-1
 864 274 l 2,2,3
 847 163 847 163 878.5 123 c 128,-1,4
 910 83 910 83 980 83 c 0,5,6
 1005 83 1005 83 1030 87.5 c 128,-1,7
 1055 92 1055 92 1083 100 c 1,8,-1
 1095 11 l 1,9,10
 1058 -7 1058 -7 1021.5 -14 c 128,-1,11
 985 -21 985 -21 943 -21 c 0,12,13
 824 -21 824 -21 772.5 50 c 128,-1,14
 721 121 721 121 745 279 c 2,15,-1
 849 979 l 1,16,-1
 427 979 l 1,17,-1
 281 0 l 1,18,-1
 161 0 l 1,19,-1
 307 979 l 1,20,-1
 148 979 l 1,21,-1
 163 1082 l 1,22,-1
 1196 1082 l 1,23,-1
 1181 979 l 1,0,-1
EndSplineSet
Validated: 33
EndChar

StartChar: rho
Encoding: 961 961 411
Width: 1140
GlyphClass: 1
Flags: W
LayerCount: 2
Fore
SplineSet
1024 511 m 2,0,1
 986 259 986 259 857 119 c 128,-1,2
 728 -21 728 -21 533 -21 c 0,3,4
 425 -21 425 -21 345 21 c 128,-1,5
 265 63 265 63 219 140 c 1,6,-1
 136 -416 l 1,7,-1
 16 -416 l 1,8,-1
 168 599 l 1,9,-1
 169 608 l 1,10,11
 205 851 205 851 345 976.5 c 128,-1,12
 485 1102 485 1102 677 1102 c 0,13,14
 876 1102 876 1102 970.5 945.5 c 128,-1,15
 1065 789 1065 789 1027 532 c 2,16,-1
 1024 511 l 2,0,1
907 532 m 2,17,18
 939 747 939 747 879.5 873.5 c 128,-1,19
 820 1000 820 1000 662 1000 c 0,20,21
 510 1000 510 1000 410 876.5 c 128,-1,22
 310 753 310 753 287 596 c 2,23,-1
 238 270 l 1,24,25
 267 182 267 182 336.5 131 c 128,-1,26
 406 80 406 80 521 80 c 0,27,28
 671 80 671 80 772.5 199 c 128,-1,29
 874 318 874 318 904 511 c 2,30,-1
 907 532 l 2,17,18
EndSplineSet
Validated: 33
EndChar

StartChar: sigma1
Encoding: 962 962 412
Width: 1095
GlyphClass: 1
Flags: W
LayerCount: 2
Fore
SplineSet
658 1102 m 0,0,1
 828 1102 828 1102 929.5 999.5 c 128,-1,2
 1031 897 1031 897 1001 720 c 1,3,-1
 999 715 l 1,4,-1
 891 715 l 1,5,6
 912 852 912 852 843 926 c 128,-1,7
 774 1000 774 1000 643 1000 c 0,8,9
 484 1000 484 1000 373 871.5 c 128,-1,10
 262 743 262 743 235 562 c 2,11,-1
 229 520 l 2,12,13
 201 335 201 335 281 221.5 c 128,-1,14
 361 108 361 108 549 89 c 0,15,16
 697 72 697 72 760 21 c 128,-1,17
 823 -30 823 -30 808 -134 c 0,18,19
 792 -229 792 -229 707 -303 c 128,-1,20
 622 -377 622 -377 525 -411 c 1,21,-1
 493 -324 l 1,22,23
 560 -300 560 -300 621 -251.5 c 128,-1,24
 682 -203 682 -203 692 -139 c 0,25,26
 701 -78 701 -78 661.5 -49.5 c 128,-1,27
 622 -21 622 -21 521 -11 c 0,28,29
 288 13 288 13 181 153 c 128,-1,30
 74 293 74 293 109 520 c 2,31,-1
 115 562 l 2,32,33
 151 804 151 804 297 953 c 128,-1,34
 443 1102 443 1102 658 1102 c 0,0,1
EndSplineSet
Validated: 33
EndChar

StartChar: sigma
Encoding: 963 963 413
Width: 1140
GlyphClass: 1
Flags: W
LayerCount: 2
Fore
SplineSet
1198 979 m 1,0,-1
 885 979 l 1,1,2
 984 910 984 910 1027 797 c 128,-1,3
 1070 684 1070 684 1049 539 c 2,4,-1
 1044 506 l 2,5,6
 1009 272 1009 272 856.5 125.5 c 128,-1,7
 704 -21 704 -21 488 -21 c 0,8,9
 279 -21 279 -21 166.5 133 c 128,-1,10
 54 287 54 287 90 524 c 2,11,-1
 95 557 l 2,12,13
 130 795 130 795 281.5 938.5 c 128,-1,14
 433 1082 433 1082 651 1082 c 2,15,-1
 1213 1082 l 1,16,-1
 1198 979 l 1,0,-1
210 524 m 2,17,18
 180 329 180 329 255.5 204.5 c 128,-1,19
 331 80 331 80 503 80 c 0,20,21
 663 80 663 80 781 209.5 c 128,-1,22
 899 339 899 339 928 524 c 2,23,-1
 933 557 l 2,24,25
 960 739 960 739 883 859 c 128,-1,26
 806 979 806 979 636 979 c 0,27,28
 475 979 475 979 357.5 854.5 c 128,-1,29
 240 730 240 730 215 557 c 2,30,-1
 210 524 l 2,17,18
EndSplineSet
Validated: 33
EndChar

StartChar: tau
Encoding: 964 964 414
Width: 1047
GlyphClass: 1
Flags: W
LayerCount: 2
Fore
SplineSet
1036 980 m 1,0,-1
 642 980 l 1,1,-1
 496 0 l 1,2,-1
 376 0 l 1,3,-1
 522 980 l 1,4,-1
 144 980 l 1,5,-1
 159 1082 l 1,6,-1
 1051 1082 l 1,7,-1
 1036 980 l 1,0,-1
EndSplineSet
Validated: 1
EndChar

StartChar: upsilon
Encoding: 965 965 415
Width: 1140
GlyphClass: 1
Flags: W
LayerCount: 2
Fore
SplineSet
357 1082 m 1,0,-1
 267 478 l 2,1,2
 235 265 235 265 300.5 172.5 c 128,-1,3
 366 80 366 80 508 80 c 0,4,5
 667 80 667 80 765 211 c 128,-1,6
 863 342 863 342 891 529 c 0,7,8
 911 673 911 673 900.5 810 c 128,-1,9
 890 947 890 947 857 1082 c 1,10,-1
 987 1082 l 1,11,12
 1017 957 1017 957 1026.5 829 c 128,-1,13
 1036 701 1036 701 1011 531 c 0,14,15
 972 274 972 274 846.5 126.5 c 128,-1,16
 721 -21 721 -21 498 -21 c 0,17,18
 303 -21 303 -21 205.5 103 c 128,-1,19
 108 227 108 227 147 480 c 2,20,-1
 237 1082 l 1,21,-1
 357 1082 l 1,0,-1
EndSplineSet
Validated: 33
EndChar

StartChar: phi
Encoding: 966 966 416
Width: 1404
GlyphClass: 1
Flags: W
LayerCount: 2
Fore
SplineSet
838 1082 m 1,0,-1
 689 91 l 1,1,-1
 695 88 l 1,2,3
 891 101 891 101 1019.5 229 c 128,-1,4
 1148 357 1148 357 1174 524 c 0,5,6
 1199 709 1199 709 1104 844 c 128,-1,7
 1009 979 1009 979 823 979 c 1,8,-1
 837 1075 l 1,9,-1
 843 1076 l 1,10,11
 1061 1080 1061 1080 1194.5 921.5 c 128,-1,12
 1328 763 1328 763 1293 525 c 0,13,14
 1258 296 1258 296 1100 146.5 c 128,-1,15
 942 -3 942 -3 673 -19 c 1,16,-1
 604 -478 l 1,17,-1
 484 -478 l 1,18,-1
 553 -18 l 1,19,20
 298 0 298 0 188.5 157.5 c 128,-1,21
 79 315 79 315 116 554 c 0,22,23
 141 724 141 724 195 840.5 c 128,-1,24
 249 957 249 957 335 1082 c 1,25,-1
 465 1082 l 1,26,27
 376 951 376 951 316 820 c 128,-1,28
 256 689 256 689 236 553 c 0,29,30
 206 360 206 360 280 231.5 c 128,-1,31
 354 103 354 103 563 90 c 1,32,-1
 569 91 l 1,33,-1
 718 1082 l 1,34,-1
 838 1082 l 1,0,-1
EndSplineSet
Validated: 33
EndChar

StartChar: chi
Encoding: 967 967 417
Width: 1140
GlyphClass: 1
Flags: W
LayerCount: 2
Fore
SplineSet
242 1093 m 0,0,1
 347 1093 347 1093 400.5 1019.5 c 128,-1,2
 454 946 454 946 487 839 c 2,3,-1
 581 507 l 1,4,-1
 587 506 l 1,5,-1
 974 1082 l 1,6,-1
 1099 1082 l 1,7,-1
 621 368 l 1,8,-1
 762 -127 l 2,9,10
 796 -233 796 -233 819 -277 c 128,-1,11
 842 -321 842 -321 891 -321 c 0,12,13
 903 -321 903 -321 918.5 -319 c 128,-1,14
 934 -317 934 -317 950 -315 c 1,15,-1
 939 -415 l 1,16,17
 927 -419 927 -419 905 -423 c 128,-1,18
 883 -427 883 -427 867 -427 c 0,19,20
 779 -427 779 -427 731 -365 c 128,-1,21
 683 -303 683 -303 644 -163 c 2,22,-1
 532 225 l 1,23,-1
 526 226 l 1,24,-1
 98 -414 l 1,25,-1
 -30 -414 l 1,26,-1
 492 364 l 1,27,-1
 367 797 l 2,28,29
 335 900 335 900 306 945.5 c 128,-1,30
 277 991 277 991 210 991 c 0,31,32
 198 991 198 991 175 989 c 128,-1,33
 152 987 152 987 141 985 c 1,34,-1
 150 1081 l 1,35,36
 166 1085 166 1085 194 1089 c 128,-1,37
 222 1093 222 1093 242 1093 c 0,0,1
EndSplineSet
Validated: 1
EndChar

StartChar: psi
Encoding: 968 968 418
Width: 1400
GlyphClass: 1
Flags: W
LayerCount: 2
Fore
SplineSet
833 1081 m 1,0,-1
 685 91 l 1,1,-1
 691 89 l 1,2,3
 902 102 902 102 1025 243 c 128,-1,4
 1148 384 1148 384 1178 578 c 0,5,6
 1195 708 1195 708 1176.5 833.5 c 128,-1,7
 1158 959 1158 959 1113 1082 c 1,8,-1
 1244 1082 l 1,9,10
 1286 968 1286 968 1302.5 851 c 128,-1,11
 1319 734 1319 734 1297 579 c 0,12,13
 1256 310 1256 310 1103 152.5 c 128,-1,14
 950 -5 950 -5 668 -19 c 1,15,-1
 605 -443 l 1,16,-1
 486 -443 l 1,17,-1
 549 -18 l 1,18,19
 317 0 317 0 201.5 151.5 c 128,-1,20
 86 303 86 303 130 593 c 2,21,-1
 203 1082 l 1,22,-1
 323 1082 l 1,23,-1
 250 591 l 2,24,25
 211 338 211 338 295.5 218.5 c 128,-1,26
 380 99 380 99 559 89 c 1,27,-1
 565 91 l 1,28,-1
 714 1081 l 1,29,-1
 833 1081 l 1,0,-1
EndSplineSet
Validated: 33
EndChar

StartChar: omega
Encoding: 969 969 419
Width: 1758
GlyphClass: 1
Flags: W
LayerCount: 2
Fore
SplineSet
490 1082 m 1,0,1
 398 946 398 946 335.5 809 c 128,-1,2
 273 672 273 672 250 529 c 0,3,4
 220 330 220 330 272 205 c 128,-1,5
 324 80 324 80 470 80 c 0,6,7
 594 80 594 80 686.5 177.5 c 128,-1,8
 779 275 779 275 810 478 c 2,9,-1
 854 770 l 1,10,-1
 975 770 l 1,11,-1
 931 478 l 2,12,13
 899 265 899 265 959.5 172.5 c 128,-1,14
 1020 80 1020 80 1151 80 c 0,15,16
 1289 80 1289 80 1382.5 209.5 c 128,-1,17
 1476 339 1476 339 1505 529 c 0,18,19
 1525 673 1525 673 1504 809.5 c 128,-1,20
 1483 946 1483 946 1431 1082 c 1,21,-1
 1561 1082 l 1,22,23
 1610 957 1610 957 1630 829.5 c 128,-1,24
 1650 702 1650 702 1625 531 c 0,25,26
 1587 279 1587 279 1464 129 c 128,-1,27
 1341 -21 1341 -21 1142 -21 c 0,28,29
 1019 -21 1019 -21 939 44 c 128,-1,30
 859 109 859 109 836 238 c 1,31,32
 776 105 776 105 678 42 c 128,-1,33
 580 -21 580 -21 449 -21 c 0,34,35
 259 -21 259 -21 177 135 c 128,-1,36
 95 291 95 291 132 531 c 0,37,38
 158 710 158 710 214.5 833 c 128,-1,39
 271 956 271 956 360 1082 c 1,40,-1
 490 1082 l 1,0,1
EndSplineSet
Validated: 33
EndChar

StartChar: uni03D1
Encoding: 977 977 425
Width: 1259
GlyphClass: 2
Flags: W
LayerCount: 2
Fore
SplineSet
616 1036 m 1,0,-1
 626 1098 l 2,1,2
 651 1268 651 1268 755 1372.5 c 128,-1,3
 859 1477 859 1477 989 1477 c 0,4,5
 1133 1477 1133 1477 1199 1379.5 c 128,-1,6
 1265 1282 1265 1282 1238 1098 c 2,7,-1
 1155 549 l 2,8,9
 1116 286 1116 286 946.5 132.5 c 128,-1,10
 777 -21 777 -21 550 -21 c 256,11,12
 323 -21 323 -21 209 132.5 c 128,-1,13
 95 286 95 286 135 549 c 2,14,-1
 241 1252 l 1,15,-1
 361 1254 l 1,16,-1
 255 549 l 2,17,18
 224 340 224 340 310 211.5 c 128,-1,19
 396 83 396 83 565 83 c 0,20,21
 757 83 757 83 879 199.5 c 128,-1,22
 1001 316 1001 316 1036 549 c 2,23,-1
 1041 585 l 1,24,25
 818 593 818 593 702 714.5 c 128,-1,26
 586 836 586 836 616 1036 c 1,27,-1
 616 1036 l 1,0,-1
1119 1098 m 2,28,29
 1139 1231 1139 1231 1100 1301.5 c 128,-1,30
 1061 1372 1061 1372 973 1372 c 0,31,32
 886 1372 886 1372 826 1305.5 c 128,-1,33
 766 1239 766 1239 746 1098 c 2,34,-1
 736 1034 l 2,35,36
 714 892 714 892 801.5 795 c 128,-1,37
 889 698 889 698 1057 690 c 1,38,-1
 1119 1098 l 2,28,29
EndSplineSet
Validated: 37
EndChar

StartChar: uni03D2
Encoding: 978 978 426
Width: 1098
GlyphClass: 1
Flags: W
LayerCount: 2
Fore
SplineSet
886 1239 m 2,0,1
 955 1363 955 1363 1023.5 1415 c 128,-1,2
 1092 1467 1092 1467 1179 1467 c 0,3,4
 1208 1467 1208 1467 1234.5 1460 c 128,-1,5
 1261 1453 1261 1453 1281 1441 c 1,6,-1
 1244 1347 l 1,7,8
 1235 1352 1235 1352 1218.5 1357 c 128,-1,9
 1202 1362 1202 1362 1182 1362 c 0,10,11
 1136 1362 1136 1362 1091.5 1332.5 c 128,-1,12
 1047 1303 1047 1303 997 1219 c 2,13,-1
 622 600 l 1,14,-1
 533 0 l 1,15,-1
 413 0 l 1,16,-1
 503 601 l 1,17,-1
 312 1219 l 2,18,19
 286 1304 286 1304 251 1333 c 128,-1,20
 216 1362 216 1362 169 1362 c 0,21,22
 149 1362 149 1362 131.5 1357 c 128,-1,23
 114 1352 114 1352 104 1347 c 1,24,-1
 95 1441 l 1,25,26
 119 1453 119 1453 146.5 1460 c 128,-1,27
 174 1467 174 1467 204 1467 c 0,28,29
 286 1467 286 1467 341 1414 c 128,-1,30
 396 1361 396 1361 429 1239 c 2,31,-1
 555 813 l 1,32,-1
 574 702 l 1,33,-1
 580 701 l 1,34,-1
 633 813 l 1,35,-1
 886 1239 l 2,0,1
EndSplineSet
Validated: 1
EndChar

StartChar: uni03D6
Encoding: 982 982 427
Width: 1610
GlyphClass: 1
Flags: W
LayerCount: 2
Fore
SplineSet
1640 979 m 1,0,-1
 1473 979 l 1,1,2
 1500 880 1500 880 1507.5 772 c 128,-1,3
 1515 664 1515 664 1495 531 c 0,4,5
 1457 279 1457 279 1343 129 c 128,-1,6
 1229 -21 1229 -21 1050 -21 c 0,7,8
 934 -21 934 -21 859.5 42.5 c 128,-1,9
 785 106 785 106 763 232 c 1,10,11
 705 102 705 102 613 40.5 c 128,-1,12
 521 -21 521 -21 398 -21 c 0,13,14
 226 -21 226 -21 154 135 c 128,-1,15
 82 291 82 291 119 531 c 0,16,17
 139 670 139 670 178 777 c 128,-1,18
 217 884 217 884 273 979 c 1,19,-1
 123 979 l 1,20,-1
 138 1082 l 1,21,-1
 1655 1082 l 1,22,-1
 1640 979 l 1,0,-1
1375 529 m 0,23,24
 1391 645 1391 645 1381.5 757 c 128,-1,25
 1372 869 1372 869 1342 979 c 1,26,-1
 405 979 l 1,27,28
 341 868 341 868 298 756 c 128,-1,29
 255 644 255 644 237 529 c 0,30,31
 207 330 207 330 250 205 c 128,-1,32
 293 80 293 80 419 80 c 0,33,34
 534 80 534 80 620.5 177 c 128,-1,35
 707 274 707 274 738 478 c 2,36,-1
 778 747 l 1,37,-1
 899 747 l 1,38,-1
 859 478 l 2,39,40
 827 265 827 265 882 172.5 c 128,-1,41
 937 80 937 80 1060 80 c 0,42,43
 1178 80 1178 80 1262 210 c 128,-1,44
 1346 340 1346 340 1375 529 c 0,23,24
EndSplineSet
Validated: 33
EndChar

StartChar: uni0402
Encoding: 1026 1026 430
Width: 1548
GlyphClass: 1
Flags: W
LayerCount: 2
Fore
SplineSet
1319 1354 m 1,0,-1
 822 1354 l 1,1,-1
 748 859 l 1,2,-1
 938 859 l 2,3,4
 1165 859 1165 859 1296 741.5 c 128,-1,5
 1427 624 1427 624 1394 399 c 0,6,7
 1374 266 1374 266 1263.5 133 c 128,-1,8
 1153 0 1153 0 955 -34 c 1,9,-1
 937 57 l 1,10,11
 1094 91 1094 91 1174 185 c 128,-1,12
 1254 279 1254 279 1274 399 c 0,13,14
 1302 573 1302 573 1203.5 663 c 128,-1,15
 1105 753 1105 753 922 753 c 2,16,-1
 732 753 l 1,17,-1
 620 0 l 1,18,-1
 501 0 l 1,19,-1
 703 1354 l 1,20,-1
 191 1354 l 1,21,-1
 206 1456 l 1,22,-1
 1334 1456 l 1,23,-1
 1319 1354 l 1,0,-1
EndSplineSet
Validated: 33
EndChar

StartChar: uni0404
Encoding: 1028 1028 432
Width: 1353
GlyphClass: 1
Flags: W
LayerCount: 2
Fore
SplineSet
1193 456 m 1,0,-1
 1195 450 l 1,1,2
 1166 227 1166 227 1005.5 103.5 c 128,-1,3
 845 -20 845 -20 607 -20 c 0,4,5
 373 -20 373 -20 246 157 c 128,-1,6
 119 334 119 334 161 610 c 2,7,-1
 196 847 l 2,8,9
 239 1135 239 1135 412.5 1306.5 c 128,-1,10
 586 1478 586 1478 832 1478 c 0,11,12
 1060 1478 1060 1478 1188 1352 c 128,-1,13
 1316 1226 1316 1226 1279 1009 c 1,14,-1
 1276 1003 l 1,15,-1
 1164 1003 l 1,16,17
 1192 1185 1192 1185 1099.5 1280.5 c 128,-1,18
 1007 1376 1007 1376 816 1376 c 0,19,20
 633 1376 633 1376 491 1227 c 128,-1,21
 349 1078 349 1078 315 849 c 2,22,-1
 306 788 l 1,23,-1
 871 788 l 1,24,-1
 856 687 l 1,25,-1
 291 687 l 1,26,-1
 280 610 l 2,27,28
 243 368 243 368 336 224.5 c 128,-1,29
 429 81 429 81 622 81 c 0,30,31
 804 81 804 81 929 178 c 128,-1,32
 1054 275 1054 275 1082 456 c 1,33,-1
 1193 456 l 1,0,-1
EndSplineSet
Validated: 33
EndChar

StartChar: uni0405
Encoding: 1029 1029 433
Width: 1236
GlyphClass: 1
Flags: W
LayerCount: 2
Fore
SplineSet
980 354 m 0,0,1
 997 470 997 470 920.5 540.5 c 128,-1,2
 844 611 844 611 637 676 c 1,3,4
 414 740 414 740 306.5 835.5 c 128,-1,5
 199 931 199 931 224 1095 c 0,6,7
 249 1268 249 1268 400 1372.5 c 128,-1,8
 551 1477 551 1477 765 1477 c 256,9,10
 979 1477 979 1477 1099.5 1354.5 c 128,-1,11
 1220 1232 1220 1232 1188 1047 c 1,12,-1
 1185 1041 l 1,13,-1
 1073 1041 l 1,14,15
 1095 1191 1095 1191 1005.5 1283 c 128,-1,16
 916 1375 916 1375 749 1375 c 0,17,18
 586 1375 586 1375 474 1293.5 c 128,-1,19
 362 1212 362 1212 345 1097 c 0,20,21
 327 982 327 982 403.5 913 c 128,-1,22
 480 844 480 844 693 781 c 0,23,24
 913 714 913 714 1019 616 c 128,-1,25
 1125 518 1125 518 1101 356 c 0,26,27
 1074 179 1074 179 919.5 79 c 128,-1,28
 765 -21 765 -21 547 -21 c 0,29,30
 339 -21 339 -21 192 89 c 128,-1,31
 45 199 45 199 81 408 c 1,32,-1
 83 414 l 1,33,-1
 195 414 l 1,34,35
 168 238 168 238 281.5 159 c 128,-1,36
 395 80 395 80 562 80 c 0,37,38
 723 80 723 80 842.5 157 c 128,-1,39
 962 234 962 234 980 354 c 0,0,1
EndSplineSet
Validated: 33
EndChar

StartChar: uni0409
Encoding: 1033 1033 437
Width: 2205
GlyphClass: 1
Flags: W
LayerCount: 2
Fore
SplineSet
1388 1456 m 1,0,-1
 1296 846 l 1,1,-1
 1662 846 l 2,2,3
 1882 846 1882 846 1994 727.5 c 128,-1,4
 2106 609 2106 609 2078 423 c 0,5,6
 2048 227 2048 227 1907 113.5 c 128,-1,7
 1766 0 1766 0 1535 0 c 2,8,-1
 1050 0 l 1,9,-1
 1252 1354 l 1,10,-1
 691 1354 l 1,11,-1
 589 797 l 2,12,13
 506 360 506 360 383 180 c 128,-1,14
 260 0 260 0 13 0 c 2,15,-1
 -28 0 l 1,16,-1
 -13 101 l 1,17,-1
 24 101 l 2,18,19
 193 101 193 101 293 251.5 c 128,-1,20
 393 402 393 402 469 797 c 2,21,-1
 590 1456 l 1,22,-1
 1388 1456 l 1,0,-1
1281 745 m 1,23,-1
 1185 101 l 1,24,-1
 1550 101 l 2,25,26
 1722 101 1722 101 1830.5 195.5 c 128,-1,27
 1939 290 1939 290 1960 425 c 0,28,29
 1980 563 1980 563 1903.5 654 c 128,-1,30
 1827 745 1827 745 1647 745 c 2,31,-1
 1281 745 l 1,23,-1
EndSplineSet
Validated: 33
EndChar

StartChar: uni040A
Encoding: 1034 1034 438
Width: 2205
GlyphClass: 1
Flags: W
LayerCount: 2
Fore
SplineSet
339 785 m 1,0,-1
 1167 785 l 1,1,-1
 1268 1456 l 1,2,-1
 1388 1456 l 1,3,-1
 1293 824 l 1,4,-1
 1659 824 l 2,5,6
 1879 824 1879 824 1991.5 710 c 128,-1,7
 2104 596 2104 596 2077 414 c 0,8,9
 2048 222 2048 222 1907 111 c 128,-1,10
 1766 0 1766 0 1535 0 c 2,11,-1
 1050 0 l 1,12,-1
 1152 684 l 1,13,-1
 324 684 l 1,14,-1
 222 0 l 1,15,-1
 102 0 l 1,16,-1
 320 1456 l 1,17,-1
 440 1456 l 1,18,-1
 339 785 l 1,0,-1
1278 722 m 1,19,-1
 1186 106 l 1,20,-1
 1551 106 l 2,21,22
 1724 106 1724 106 1831 195.5 c 128,-1,23
 1938 285 1938 285 1958 416 c 0,24,25
 1978 550 1978 550 1901 636 c 128,-1,26
 1824 722 1824 722 1643 722 c 2,27,-1
 1278 722 l 1,19,-1
EndSplineSet
Validated: 33
EndChar

StartChar: uni040B
Encoding: 1035 1035 439
Width: 1635
GlyphClass: 1
Flags: W
LayerCount: 2
Fore
SplineSet
1335 1354 m 1,0,-1
 838 1354 l 1,1,-1
 776 939 l 1,2,-1
 1055 939 l 2,3,4
 1285 939 1285 939 1394.5 825.5 c 128,-1,5
 1504 712 1504 712 1468 465 c 2,6,-1
 1398 0 l 1,7,-1
 1279 0 l 1,8,-1
 1349 465 l 2,9,10
 1380 671 1380 671 1304 754 c 128,-1,11
 1228 837 1228 837 1040 837 c 2,12,-1
 761 837 l 1,13,-1
 636 0 l 1,14,-1
 517 0 l 1,15,-1
 719 1354 l 1,16,-1
 207 1354 l 1,17,-1
 222 1456 l 1,18,-1
 1350 1456 l 1,19,-1
 1335 1354 l 1,0,-1
EndSplineSet
Validated: 33
EndChar

StartChar: uni040F
Encoding: 1039 1039 443
Width: 1433
GlyphClass: 1
Flags: W
LayerCount: 2
Fore
SplineSet
320 1456 m 1,0,-1
 440 1456 l 1,1,-1
 237 101 l 1,2,-1
 1065 101 l 1,3,-1
 1268 1456 l 1,4,-1
 1388 1456 l 1,5,-1
 1170 0 l 1,6,-1
 701 0 l 1,7,-1
 648 -353 l 1,8,-1
 529 -353 l 1,9,-1
 582 0 l 1,10,-1
 102 0 l 1,11,-1
 320 1456 l 1,0,-1
EndSplineSet
Validated: 1
EndChar

StartChar: uni0411
Encoding: 1041 1041 445
Width: 1285
GlyphClass: 1
Flags: W
LayerCount: 2
Fore
SplineSet
1178 1354 m 1,0,-1
 422 1354 l 1,1,-1
 345 842 l 1,2,-1
 709 842 l 2,3,4
 929 842 929 842 1042 725 c 128,-1,5
 1155 608 1155 608 1127 423 c 0,6,7
 1097 227 1097 227 955.5 113.5 c 128,-1,8
 814 0 814 0 583 0 c 2,9,-1
 99 0 l 1,10,-1
 317 1456 l 1,11,-1
 1193 1456 l 1,12,-1
 1178 1354 l 1,0,-1
329 740 m 1,13,-1
 234 101 l 1,14,-1
 598 101 l 2,15,16
 771 101 771 101 878.5 195 c 128,-1,17
 986 289 986 289 1007 425 c 0,18,19
 1027 562 1027 562 951 651 c 128,-1,20
 875 740 875 740 694 740 c 2,21,-1
 329 740 l 1,13,-1
EndSplineSet
Validated: 33
EndChar

StartChar: uni0414
Encoding: 1044 1044 448
Width: 1494
GlyphClass: 1
Flags: W
LayerCount: 2
Fore
SplineSet
1207 101 m 1,0,-1
 1363 101 l 1,1,-1
 1295 -353 l 1,2,-1
 1175 -353 l 1,3,-1
 1228 0 l 1,4,-1
 93 0 l 1,5,-1
 40 -353 l 1,6,-1
 -79 -353 l 1,7,-1
 -11 101 l 1,8,-1
 55 101 l 2,9,10
 189 101 189 101 310.5 316.5 c 128,-1,11
 432 532 432 532 516 932 c 1,12,-1
 632 1456 l 1,13,-1
 1410 1456 l 1,14,-1
 1207 101 l 1,0,-1
637 932 m 2,15,16
 573 630 573 630 485 418.5 c 128,-1,17
 397 207 397 207 282 101 c 1,18,-1
 1087 101 l 1,19,-1
 1274 1354 l 1,20,-1
 729 1354 l 1,21,-1
 637 932 l 2,15,16
EndSplineSet
Validated: 1
EndChar

StartChar: uni0416
Encoding: 1046 1046 450
Width: 1648
GlyphClass: 1
Flags: W
LayerCount: 2
Fore
SplineSet
990 695 m 1,0,-1
 909 695 l 1,1,-1
 805 0 l 1,2,-1
 686 0 l 1,3,-1
 790 695 l 1,4,-1
 705 695 l 1,5,-1
 99 0 l 1,6,-1
 -46 0 l 1,7,-1
 -48 5 l 1,8,-1
 605 752 l 1,9,-1
 203 1456 l 1,10,-1
 347 1456 l 1,11,-1
 713 797 l 1,12,-1
 805 797 l 1,13,-1
 904 1456 l 1,14,-1
 1023 1456 l 1,15,-1
 924 797 l 1,16,-1
 1014 797 l 1,17,-1
 1577 1456 l 1,18,-1
 1713 1456 l 1,19,-1
 1715 1451 l 1,20,-1
 1106 753 l 1,21,-1
 1540 0 l 1,22,-1
 1389 0 l 1,23,-1
 990 695 l 1,0,-1
EndSplineSet
Validated: 1
EndChar

StartChar: uni0417
Encoding: 1047 1047 451
Width: 1352
GlyphClass: 1
Flags: W
LayerCount: 2
Fore
SplineSet
1288 1073 m 0,0,1
 1270 959 1270 959 1183 872.5 c 128,-1,2
 1096 786 1096 786 955 744 c 1,3,4
 1097 704 1097 704 1163 615 c 128,-1,5
 1229 526 1229 526 1209 395 c 0,6,7
 1179 193 1179 193 1008 86 c 128,-1,8
 837 -21 837 -21 581 -21 c 0,9,10
 368 -21 368 -21 220.5 87.5 c 128,-1,11
 73 196 73 196 109 398 c 1,12,-1
 111 404 l 1,13,-1
 224 404 l 1,14,15
 202 258 202 258 304 169 c 128,-1,16
 406 80 406 80 596 80 c 0,17,18
 798 80 798 80 932.5 165 c 128,-1,19
 1067 250 1067 250 1089 391 c 0,20,21
 1113 552 1113 552 1014 621.5 c 128,-1,22
 915 691 915 691 693 691 c 2,23,-1
 509 691 l 1,24,-1
 511 709 l 1,25,-1
 521 773 l 1,26,-1
 524 794 l 1,27,-1
 708 794 l 2,28,29
 914 794 914 794 1031.5 869.5 c 128,-1,30
 1149 945 1149 945 1170 1077 c 0,31,32
 1190 1215 1190 1215 1096.5 1295 c 128,-1,33
 1003 1375 1003 1375 790 1375 c 0,34,35
 625 1375 625 1375 494 1290.5 c 128,-1,36
 363 1206 363 1206 344 1075 c 1,37,-1
 234 1075 l 1,38,-1
 232 1081 l 1,39,40
 254 1264 254 1264 418.5 1370.5 c 128,-1,41
 583 1477 583 1477 806 1477 c 0,42,43
 1049 1477 1049 1477 1183 1371 c 128,-1,44
 1317 1265 1317 1265 1288 1073 c 0,0,1
EndSplineSet
Validated: 33
EndChar

StartChar: uni0418
Encoding: 1048 1048 452
Width: 1444
GlyphClass: 1
Flags: W
LayerCount: 2
Fore
SplineSet
1279 1456 m 1,0,-1
 1398 1456 l 1,1,-1
 1180 0 l 1,2,-1
 1061 0 l 1,3,-1
 1247 1244 l 1,4,-1
 1242 1246 l 1,5,-1
 227 0 l 1,6,-1
 107 0 l 1,7,-1
 325 1456 l 1,8,-1
 445 1456 l 1,9,-1
 259 214 l 1,10,-1
 264 212 l 1,11,-1
 1279 1456 l 1,0,-1
EndSplineSet
Validated: 1
EndChar

StartChar: uni041B
Encoding: 1051 1051 455
Width: 1433
GlyphClass: 1
Flags: W
LayerCount: 2
Fore
SplineSet
1388 1456 m 1,0,-1
 1170 0 l 1,1,-1
 1050 0 l 1,2,-1
 1252 1354 l 1,3,-1
 627 1354 l 1,4,-1
 525 797 l 2,5,6
 445 361 445 361 332.5 180.5 c 128,-1,7
 220 0 220 0 2 0 c 2,8,-1
 -39 0 l 1,9,-1
 -24 101 l 1,10,-1
 13 101 l 2,11,12
 156 101 156 101 244.5 251.5 c 128,-1,13
 333 402 333 402 405 797 c 2,14,-1
 526 1456 l 1,15,-1
 1388 1456 l 1,0,-1
EndSplineSet
Validated: 1
EndChar

StartChar: uni0423
Encoding: 1059 1059 463
Width: 1324
GlyphClass: 1
Flags: W
LayerCount: 2
Fore
SplineSet
612 660 m 1,0,-1
 654 513 l 1,1,-1
 660 512 l 1,2,-1
 1241 1456 l 1,3,-1
 1382 1456 l 1,4,-1
 618 248 l 2,5,6
 543 130 543 130 450.5 54.5 c 128,-1,7
 358 -21 358 -21 212 -21 c 0,8,9
 157 -21 157 -21 96.5 -8 c 128,-1,10
 36 5 36 5 10 24 c 1,11,-1
 43 119 l 1,12,13
 74 103 74 103 124.5 91.5 c 128,-1,14
 175 80 175 80 219 80 c 0,15,16
 308 80 308 80 379.5 134 c 128,-1,17
 451 188 451 188 507 275 c 2,18,-1
 576 382 l 1,19,-1
 191 1456 l 1,20,-1
 329 1456 l 1,21,-1
 612 660 l 1,0,-1
EndSplineSet
Validated: 1
EndChar

StartChar: uni0426
Encoding: 1062 1062 466
Width: 1475
GlyphClass: 1
Flags: W
LayerCount: 2
Fore
SplineSet
317 1456 m 1,0,-1
 437 1456 l 1,1,-1
 234 102 l 1,2,-1
 1062 102 l 1,3,-1
 1265 1456 l 1,4,-1
 1385 1456 l 1,5,-1
 1185 121 l 1,6,-1
 1300 121 l 1,7,-1
 1229 -355 l 1,8,-1
 1109 -355 l 1,9,-1
 1162 0 l 1,10,-1
 99 0 l 1,11,-1
 317 1456 l 1,0,-1
EndSplineSet
Validated: 1
EndChar

StartChar: uni0427
Encoding: 1063 1063 467
Width: 1358
GlyphClass: 1
Flags: W
LayerCount: 2
Fore
SplineSet
1313 1456 m 1,0,-1
 1095 0 l 1,1,-1
 975 0 l 1,2,-1
 1074 664 l 1,3,4
 969 635 969 635 872 620.5 c 128,-1,5
 775 606 775 606 667 606 c 0,6,7
 436 606 436 606 325.5 712 c 128,-1,8
 215 818 215 818 251 1053 c 2,9,-1
 311 1456 l 1,10,-1
 431 1456 l 1,11,-1
 371 1053 l 2,12,13
 342 859 342 859 418 783.5 c 128,-1,14
 494 708 494 708 682 708 c 0,15,16
 780 708 780 708 883 722.5 c 128,-1,17
 986 737 986 737 1089 766 c 1,18,-1
 1193 1456 l 1,19,-1
 1313 1456 l 1,0,-1
EndSplineSet
Validated: 33
EndChar

StartChar: uni0428
Encoding: 1064 1064 468
Width: 2057
GlyphClass: 1
Flags: W
LayerCount: 2
Fore
SplineSet
435 1456 m 1,0,-1
 232 101 l 1,1,-1
 900 101 l 1,2,-1
 1103 1456 l 1,3,-1
 1223 1456 l 1,4,-1
 1020 101 l 1,5,-1
 1687 101 l 1,6,-1
 1890 1456 l 1,7,-1
 2009 1456 l 1,8,-1
 1791 0 l 1,9,-1
 97 0 l 1,10,-1
 315 1456 l 1,11,-1
 435 1456 l 1,0,-1
EndSplineSet
Validated: 1
EndChar

StartChar: uni0429
Encoding: 1065 1065 469
Width: 2088
GlyphClass: 1
Flags: W
LayerCount: 2
Fore
SplineSet
435 1456 m 1,0,-1
 232 101 l 1,1,-1
 900 101 l 1,2,-1
 1103 1456 l 1,3,-1
 1223 1456 l 1,4,-1
 1020 101 l 1,5,-1
 1687 101 l 1,6,-1
 1890 1456 l 1,7,-1
 2009 1456 l 1,8,-1
 1809 119 l 1,9,-1
 1917 119 l 1,10,-1
 1846 -355 l 1,11,-1
 1726 -355 l 1,12,-1
 1779 0 l 1,13,-1
 97 0 l 1,14,-1
 315 1456 l 1,15,-1
 435 1456 l 1,0,-1
EndSplineSet
Validated: 1
EndChar

StartChar: uni042A
Encoding: 1066 1066 470
Width: 1527
GlyphClass: 1
Flags: W
LayerCount: 2
Fore
SplineSet
122 1456 m 1,0,-1
 600 1456 l 1,1,-1
 508 842 l 1,2,-1
 872 842 l 2,3,4
 1092 842 1092 842 1205 725 c 128,-1,5
 1318 608 1318 608 1290 423 c 0,6,7
 1260 227 1260 227 1118.5 113.5 c 128,-1,8
 977 0 977 0 746 0 c 2,9,-1
 262 0 l 1,10,-1
 464 1354 l 1,11,-1
 107 1354 l 1,12,-1
 122 1456 l 1,0,-1
492 740 m 1,13,-1
 397 101 l 1,14,-1
 761 101 l 2,15,16
 934 101 934 101 1041.5 195 c 128,-1,17
 1149 289 1149 289 1170 425 c 0,18,19
 1190 562 1190 562 1114 651 c 128,-1,20
 1038 740 1038 740 857 740 c 2,21,-1
 492 740 l 1,13,-1
EndSplineSet
Validated: 33
EndChar

StartChar: uni042B
Encoding: 1067 1067 471
Width: 1694
GlyphClass: 1
Flags: W
LayerCount: 2
Fore
SplineSet
345 842 m 1,0,-1
 709 842 l 2,1,2
 929 842 929 842 1042 725 c 128,-1,3
 1155 608 1155 608 1127 423 c 0,4,5
 1097 227 1097 227 955.5 113.5 c 128,-1,6
 814 0 814 0 583 0 c 2,7,-1
 99 0 l 1,8,-1
 317 1456 l 1,9,-1
 437 1456 l 1,10,-1
 345 842 l 1,0,-1
329 740 m 1,11,-1
 234 101 l 1,12,-1
 598 101 l 2,13,14
 771 101 771 101 878.5 195 c 128,-1,15
 986 289 986 289 1007 425 c 0,16,17
 1027 562 1027 562 951 651 c 128,-1,18
 875 740 875 740 694 740 c 2,19,-1
 329 740 l 1,11,-1
1455 0 m 1,20,-1
 1335 0 l 1,21,-1
 1553 1456 l 1,22,-1
 1673 1456 l 1,23,-1
 1455 0 l 1,20,-1
EndSplineSet
Validated: 33
EndChar

StartChar: uni042C
Encoding: 1068 1068 472
Width: 1254
GlyphClass: 1
Flags: W
LayerCount: 2
Fore
SplineSet
345 842 m 1,0,-1
 709 842 l 2,1,2
 929 842 929 842 1042 725 c 128,-1,3
 1155 608 1155 608 1127 423 c 0,4,5
 1097 227 1097 227 955.5 113.5 c 128,-1,6
 814 0 814 0 583 0 c 2,7,-1
 99 0 l 1,8,-1
 317 1456 l 1,9,-1
 437 1456 l 1,10,-1
 345 842 l 1,0,-1
329 740 m 1,11,-1
 234 101 l 1,12,-1
 598 101 l 2,13,14
 771 101 771 101 878.5 195 c 128,-1,15
 986 289 986 289 1007 425 c 0,16,17
 1027 562 1027 562 951 651 c 128,-1,18
 875 740 875 740 694 740 c 2,19,-1
 329 740 l 1,11,-1
EndSplineSet
Validated: 33
EndChar

StartChar: uni042D
Encoding: 1069 1069 473
Width: 1352
GlyphClass: 1
Flags: W
LayerCount: 2
Fore
SplineSet
239 1001 m 1,0,-1
 237 1007 l 1,1,2
 266 1229 266 1229 427 1353.5 c 128,-1,3
 588 1478 588 1478 826 1478 c 0,4,5
 1058 1478 1058 1478 1185.5 1300 c 128,-1,6
 1313 1122 1313 1122 1272 847 c 2,7,-1
 1237 610 l 2,8,9
 1192 321 1192 321 1018.5 150.5 c 128,-1,10
 845 -20 845 -20 601 -20 c 0,11,12
 372 -20 372 -20 244 105 c 128,-1,13
 116 230 116 230 153 448 c 1,14,-1
 156 454 l 1,15,-1
 268 454 l 1,16,17
 240 270 240 270 332 175.5 c 128,-1,18
 424 81 424 81 616 81 c 0,19,20
 799 81 799 81 940.5 229.5 c 128,-1,21
 1082 378 1082 378 1117 608 c 2,22,-1
 1131 705 l 1,23,-1
 553 705 l 1,24,-1
 568 807 l 1,25,-1
 1147 807 l 1,26,-1
 1153 847 l 2,27,28
 1189 1088 1189 1088 1096 1232 c 128,-1,29
 1003 1376 1003 1376 810 1376 c 0,30,31
 627 1376 627 1376 502 1278.5 c 128,-1,32
 377 1181 377 1181 350 1001 c 1,33,-1
 239 1001 l 1,0,-1
EndSplineSet
Validated: 33
EndChar

StartChar: uni042E
Encoding: 1070 1070 474
Width: 1864
GlyphClass: 1
Flags: W
LayerCount: 2
Fore
SplineSet
1745 609 m 2,0,1
 1701 316 1701 316 1523 147.5 c 128,-1,2
 1345 -21 1345 -21 1082 -21 c 0,3,4
 836 -21 836 -21 704.5 154.5 c 128,-1,5
 573 330 573 330 615 609 c 2,6,-1
 623 664 l 1,7,-1
 356 664 l 1,8,-1
 257 0 l 1,9,-1
 137 0 l 1,10,-1
 355 1456 l 1,11,-1
 475 1456 l 1,12,-1
 371 765 l 1,13,-1
 639 765 l 1,14,-1
 651 846 l 2,15,16
 695 1138 695 1138 871 1307.5 c 128,-1,17
 1047 1477 1047 1477 1306 1477 c 0,18,19
 1556 1477 1556 1477 1689 1300.5 c 128,-1,20
 1822 1124 1822 1124 1781 846 c 2,21,-1
 1745 609 l 2,0,1
1662 848 m 2,22,23
 1699 1093 1699 1093 1601.5 1232.5 c 128,-1,24
 1504 1372 1504 1372 1290 1372 c 0,25,26
 1090 1372 1090 1372 948 1226.5 c 128,-1,27
 806 1081 806 1081 771 848 c 2,28,-1
 735 609 l 2,29,30
 697 362 697 362 791.5 222.5 c 128,-1,31
 886 83 886 83 1097 83 c 0,32,33
 1302 83 1302 83 1446.5 228 c 128,-1,34
 1591 373 1591 373 1626 609 c 2,35,-1
 1662 848 l 2,22,23
EndSplineSet
Validated: 33
EndChar

StartChar: uni042F
Encoding: 1071 1071 475
Width: 1205
GlyphClass: 1
Flags: W
LayerCount: 2
Fore
SplineSet
121 0 m 1,0,-1
 -9 0 l 1,1,-1
 439 671 l 1,2,3
 300 715 300 715 239 806.5 c 128,-1,4
 178 898 178 898 200 1038 c 0,5,6
 229 1234 229 1234 381 1345 c 128,-1,7
 533 1456 533 1456 755 1456 c 2,8,-1
 1199 1456 l 1,9,-1
 981 0 l 1,10,-1
 861 0 l 1,11,-1
 956 635 l 1,12,-1
 536 635 l 1,13,-1
 121 0 l 1,0,-1
1064 1354 m 1,14,-1
 740 1354 l 2,15,16
 555 1354 555 1354 449 1274 c 128,-1,17
 343 1194 343 1194 320 1040 c 0,18,19
 300 907 300 907 380.5 822.5 c 128,-1,20
 461 738 461 738 614 738 c 2,21,-1
 971 738 l 1,22,-1
 1064 1354 l 1,14,-1
EndSplineSet
Validated: 33
EndChar

StartChar: uni0431
Encoding: 1073 1073 477
Width: 1127
GlyphClass: 1
Flags: W
LayerCount: 2
Fore
SplineSet
677 1102 m 0,0,1
 878 1102 878 1102 985.5 947.5 c 128,-1,2
 1093 793 1093 793 1058 557 c 2,3,-1
 1053 524 l 2,4,5
 1015 275 1015 275 863.5 127 c 128,-1,6
 712 -21 712 -21 493 -21 c 0,7,8
 285 -21 285 -21 172.5 133 c 128,-1,9
 60 287 60 287 96 524 c 2,10,-1
 98 537 l 1,11,-1
 145 854 l 2,12,13
 189 1145 189 1145 345 1278 c 128,-1,14
 501 1411 501 1411 767 1422 c 0,15,16
 913 1427 913 1427 994 1456.5 c 128,-1,17
 1075 1486 1075 1486 1085 1553 c 1,18,-1
 1176 1553 l 1,19,-1
 1178 1547 l 1,20,21
 1164 1416 1164 1416 1061.5 1367 c 128,-1,22
 959 1318 959 1318 762 1315 c 0,23,24
 552 1311 552 1311 420.5 1208 c 128,-1,25
 289 1105 289 1105 272 908 c 1,26,-1
 275 902 l 1,27,28
 339 991 339 991 447 1046.5 c 128,-1,29
 555 1102 555 1102 677 1102 c 0,0,1
644 1000 m 0,30,31
 483 1000 483 1000 365.5 869.5 c 128,-1,32
 248 739 248 739 221 557 c 2,33,-1
 216 524 l 2,34,35
 186 329 186 329 261.5 204.5 c 128,-1,36
 337 80 337 80 508 80 c 0,37,38
 669 80 669 80 786.5 209.5 c 128,-1,39
 904 339 904 339 933 524 c 2,40,-1
 938 557 l 2,41,42
 966 749 966 749 890 874.5 c 128,-1,43
 814 1000 814 1000 644 1000 c 0,30,31
EndSplineSet
Validated: 33
EndChar

StartChar: uni0432
Encoding: 1074 1074 478
Width: 1140
GlyphClass: 1
Flags: W
LayerCount: 2
Fore
SplineSet
84 0 m 1,0,-1
 246 1082 l 1,1,-1
 643 1082 l 2,2,3
 838 1082 838 1082 942.5 1009 c 128,-1,4
 1047 936 1047 936 1026 793 c 0,5,6
 1013 707 1013 707 954.5 645 c 128,-1,7
 896 583 896 583 800 556 c 1,8,9
 902 536 902 536 955 464 c 128,-1,10
 1008 392 1008 392 995 300 c 0,11,12
 972 148 972 148 855 74 c 128,-1,13
 738 0 738 0 550 0 c 2,14,-1
 84 0 l 1,0,-1
278 498 m 1,15,-1
 219 100 l 1,16,-1
 565 100 l 2,17,18
 694 100 694 100 777.5 152.5 c 128,-1,19
 861 205 861 205 876 302 c 0,20,21
 890 395 890 395 824.5 446.5 c 128,-1,22
 759 498 759 498 625 498 c 2,23,-1
 278 498 l 1,15,-1
293 598 m 1,24,-1
 582 598 l 2,25,26
 721 598 721 598 806.5 647 c 128,-1,27
 892 696 892 696 907 790 c 0,28,29
 921 891 921 891 851.5 935.5 c 128,-1,30
 782 980 782 980 628 980 c 2,31,-1
 351 980 l 1,32,-1
 293 598 l 1,24,-1
EndSplineSet
Validated: 33
EndChar

StartChar: uni0433
Encoding: 1075 1075 479
Width: 858
GlyphClass: 1
Flags: W
LayerCount: 2
Fore
SplineSet
893 979 m 1,0,-1
 344 979 l 1,1,-1
 198 0 l 1,2,-1
 78 0 l 1,3,-1
 240 1082 l 1,4,-1
 908 1082 l 1,5,-1
 893 979 l 1,0,-1
EndSplineSet
Validated: 1
EndChar

StartChar: uni0434
Encoding: 1076 1076 480
Width: 1200
GlyphClass: 1
Flags: W
LayerCount: 2
Fore
SplineSet
89 101 m 2,0,1
 165 101 165 101 235.5 254.5 c 128,-1,2
 306 408 306 408 362 691 c 2,3,-1
 443 1082 l 1,4,-1
 1092 1082 l 1,5,-1
 945 101 l 1,6,-1
 1047 101 l 1,7,-1
 979 -352 l 1,8,-1
 859 -352 l 1,9,-1
 912 0 l 1,10,-1
 95 0 l 1,11,-1
 42 -352 l 1,12,-1
 -72 -352 l 1,13,-1
 -4 101 l 1,14,-1
 89 101 l 2,0,1
482 691 m 2,15,16
 438 476 438 476 387.5 329.5 c 128,-1,17
 337 183 337 183 271 101 c 1,18,-1
 825 101 l 1,19,-1
 956 970 l 1,20,-1
 540 970 l 1,21,-1
 482 691 l 2,15,16
EndSplineSet
Validated: 1
EndChar

StartChar: uni0436
Encoding: 1078 1078 482
Width: 1492
GlyphClass: 1
Flags: W
LayerCount: 2
Fore
SplineSet
890 500 m 1,0,-1
 799 500 l 1,1,-1
 724 0 l 1,2,-1
 604 0 l 1,3,-1
 679 500 l 1,4,-1
 590 500 l 1,5,-1
 106 0 l 1,6,-1
 -38 0 l 1,7,-1
 -41 6 l 1,8,-1
 497 560 l 1,9,-1
 166 1082 l 1,10,-1
 311 1082 l 1,11,-1
 604 607 l 1,12,-1
 695 607 l 1,13,-1
 766 1082 l 1,14,-1
 886 1082 l 1,15,-1
 815 607 l 1,16,-1
 908 607 l 1,17,-1
 1343 1082 l 1,18,-1
 1482 1082 l 1,19,-1
 1485 1076 l 1,20,-1
 1000 560 l 1,21,-1
 1377 0 l 1,22,-1
 1224 0 l 1,23,-1
 890 500 l 1,0,-1
EndSplineSet
Validated: 1
EndChar

StartChar: uni0437
Encoding: 1079 1079 483
Width: 1113
GlyphClass: 1
Flags: W
LayerCount: 2
Fore
SplineSet
388 604 m 1,0,-1
 572 604 l 2,1,2
 719 604 719 604 802 655 c 128,-1,3
 885 706 885 706 899 796 c 0,4,5
 913 888 913 888 846 943 c 128,-1,6
 779 998 779 998 627 998 c 0,7,8
 499 998 499 998 398 939 c 128,-1,9
 297 880 297 880 284 790 c 1,10,-1
 175 790 l 1,11,-1
 173 796 l 1,12,13
 188 936 188 936 322.5 1017.5 c 128,-1,14
 457 1099 457 1099 642 1099 c 0,15,16
 831 1099 831 1099 936 1019 c 128,-1,17
 1041 939 1041 939 1020 794 c 0,18,19
 1007 712 1007 712 944 649 c 128,-1,20
 881 586 881 586 778 554 c 1,21,22
 881 522 881 522 930 456.5 c 128,-1,23
 979 391 979 391 965 297 c 0,24,25
 941 144 941 144 807 63 c 128,-1,26
 673 -18 673 -18 474 -18 c 0,27,28
 297 -18 297 -18 174 65.5 c 128,-1,29
 51 149 51 149 81 304 c 1,30,-1
 83 310 l 1,31,-1
 194 310 l 1,32,33
 178 210 178 210 259.5 146 c 128,-1,34
 341 82 341 82 489 82 c 0,35,36
 634 82 634 82 731.5 141 c 128,-1,37
 829 200 829 200 843 295 c 0,38,39
 859 405 859 405 787.5 452.5 c 128,-1,40
 716 500 716 500 556 500 c 2,41,-1
 372 500 l 1,42,-1
 384 579 l 1,43,-1
 388 604 l 1,0,-1
EndSplineSet
Validated: 33
EndChar

StartChar: uni0438
Encoding: 1080 1080 484
Width: 1140
GlyphClass: 1
Flags: W
LayerCount: 2
Fore
SplineSet
944 1082 m 1,0,-1
 1064 1082 l 1,1,-1
 902 0 l 1,2,-1
 782 0 l 1,3,-1
 913 882 l 1,4,-1
 908 884 l 1,5,-1
 198 0 l 1,6,-1
 78 0 l 1,7,-1
 240 1082 l 1,8,-1
 360 1082 l 1,9,-1
 228 201 l 1,10,-1
 233 199 l 1,11,-1
 944 1082 l 1,0,-1
EndSplineSet
Validated: 1
EndChar

StartChar: uni043A
Encoding: 1082 1082 486
Width: 1080
GlyphClass: 1
Flags: W
LayerCount: 2
Fore
SplineSet
415 496 m 1,0,-1
 277 496 l 1,1,-1
 203 0 l 1,2,-1
 82 0 l 1,3,-1
 244 1082 l 1,4,-1
 365 1082 l 1,5,-1
 293 602 l 1,6,-1
 427 602 l 1,7,-1
 926 1082 l 1,8,-1
 1069 1082 l 1,9,-1
 1071 1076 l 1,10,-1
 527 557 l 1,11,-1
 964 0 l 1,12,-1
 807 0 l 1,13,-1
 415 496 l 1,0,-1
EndSplineSet
Validated: 1
EndChar

StartChar: uni043B
Encoding: 1083 1083 487
Width: 1127
GlyphClass: 1
Flags: W
LayerCount: 2
Fore
SplineSet
1064 1082 m 1,0,-1
 902 0 l 1,1,-1
 782 0 l 1,2,-1
 928 979 l 1,3,-1
 469 979 l 1,4,-1
 414 604 l 2,5,6
 364 274 364 274 270.5 137 c 128,-1,7
 177 0 177 0 -1 0 c 2,8,-1
 -45 0 l 1,9,-1
 -27 107 l 1,10,-1
 11 108 l 2,11,12
 117 108 117 108 185 220 c 128,-1,13
 253 332 253 332 295 604 c 2,14,-1
 366 1082 l 1,15,-1
 1064 1082 l 1,0,-1
EndSplineSet
Validated: 1
EndChar

StartChar: uni043C
Encoding: 1084 1084 488
Width: 1500
GlyphClass: 1
Flags: W
LayerCount: 2
Fore
SplineSet
696 169 m 1,0,-1
 702 168 l 1,1,-1
 1266 1082 l 1,2,-1
 1414 1082 l 1,3,-1
 1252 0 l 1,4,-1
 1132 0 l 1,5,-1
 1263 873 l 1,6,-1
 1257 875 l 1,7,-1
 716 0 l 1,8,-1
 631 0 l 1,9,-1
 347 893 l 1,10,-1
 341 893 l 1,11,-1
 208 0 l 1,12,-1
 88 0 l 1,13,-1
 250 1082 l 1,14,-1
 407 1082 l 1,15,-1
 696 169 l 1,0,-1
EndSplineSet
Validated: 1
EndChar

StartChar: uni043D
Encoding: 1085 1085 489
Width: 1140
GlyphClass: 1
Flags: W
LayerCount: 2
Fore
SplineSet
901 0 m 1,0,-1
 781 0 l 1,1,-1
 855 496 l 1,2,-1
 272 496 l 1,3,-1
 198 0 l 1,4,-1
 78 0 l 1,5,-1
 240 1082 l 1,6,-1
 360 1082 l 1,7,-1
 287 597 l 1,8,-1
 870 597 l 1,9,-1
 943 1082 l 1,10,-1
 1063 1082 l 1,11,-1
 901 0 l 1,0,-1
EndSplineSet
Validated: 1
EndChar

StartChar: uni043F
Encoding: 1087 1087 491
Width: 1140
GlyphClass: 1
Flags: W
LayerCount: 2
Fore
SplineSet
902 0 m 1,0,-1
 782 0 l 1,1,-1
 928 979 l 1,2,-1
 344 979 l 1,3,-1
 198 0 l 1,4,-1
 78 0 l 1,5,-1
 240 1082 l 1,6,-1
 1064 1082 l 1,7,-1
 902 0 l 1,0,-1
EndSplineSet
Validated: 1
EndChar

StartChar: uni0441
Encoding: 1089 1089 493
Width: 1054
GlyphClass: 1
Flags: W
LayerCount: 2
Fore
SplineSet
486 80 m 0,0,1
 597 80 597 80 697.5 148.5 c 128,-1,2
 798 217 798 217 817 337 c 1,3,-1
 923 337 l 1,4,-1
 925 331 l 1,5,6
 905 174 905 174 769.5 76.5 c 128,-1,7
 634 -21 634 -21 471 -21 c 0,8,9
 263 -21 263 -21 161 132.5 c 128,-1,10
 59 286 59 286 95 520 c 2,11,-1
 101 562 l 2,12,13
 137 806 137 806 278.5 954 c 128,-1,14
 420 1102 420 1102 638 1102 c 0,15,16
 806 1102 806 1102 909 996 c 128,-1,17
 1012 890 1012 890 983 720 c 1,18,-1
 981 715 l 1,19,-1
 873 715 l 1,20,21
 893 850 893 850 820.5 925 c 128,-1,22
 748 1000 748 1000 623 1000 c 0,23,24
 460 1000 460 1000 354.5 873 c 128,-1,25
 249 746 249 746 221 562 c 2,26,-1
 215 520 l 2,27,28
 185 323 185 323 249 201.5 c 128,-1,29
 313 80 313 80 486 80 c 0,0,1
EndSplineSet
Validated: 33
EndChar

StartChar: uni0442
Encoding: 1090 1090 494
Width: 1037
GlyphClass: 1
Flags: W
LayerCount: 2
Fore
SplineSet
1032 980 m 1,0,-1
 637 980 l 1,1,-1
 491 0 l 1,2,-1
 371 0 l 1,3,-1
 517 980 l 1,4,-1
 139 980 l 1,5,-1
 154 1082 l 1,6,-1
 1047 1082 l 1,7,-1
 1032 980 l 1,0,-1
EndSplineSet
Validated: 1
EndChar

StartChar: uni0444
Encoding: 1092 1092 496
Width: 1835
GlyphClass: 1
Flags: W
LayerCount: 2
Fore
SplineSet
111 532 m 2,0,1
 151 801 151 801 282 951.5 c 128,-1,2
 413 1102 413 1102 611 1102 c 0,3,4
 716 1102 716 1102 792.5 1058.5 c 128,-1,5
 869 1015 869 1015 914 935 c 1,6,-1
 1008 1560 l 1,7,-1
 1128 1560 l 1,8,-1
 1034 935 l 1,9,10
 1102 1015 1102 1015 1192.5 1058.5 c 128,-1,11
 1283 1102 1283 1102 1394 1102 c 0,12,13
 1582 1102 1582 1102 1672 945 c 128,-1,14
 1762 788 1762 788 1724 532 c 2,15,-1
 1721 511 l 2,16,17
 1683 259 1683 259 1553.5 119 c 128,-1,18
 1424 -21 1424 -21 1228 -21 c 0,19,20
 1119 -21 1119 -21 1040 20.5 c 128,-1,21
 961 62 961 62 915 138 c 1,22,-1
 832 -416 l 1,23,-1
 712 -416 l 1,24,-1
 794 131 l 1,25,26
 726 57 726 57 637.5 18 c 128,-1,27
 549 -21 549 -21 441 -21 c 0,28,29
 254 -21 254 -21 162.5 125.5 c 128,-1,30
 71 272 71 272 108 511 c 2,31,-1
 111 532 l 2,0,1
1605 532 m 2,32,33
 1637 745 1637 745 1574 872.5 c 128,-1,34
 1511 1000 1511 1000 1352 1000 c 0,35,36
 1237 1000 1237 1000 1152.5 941.5 c 128,-1,37
 1068 883 1068 883 1013 791 c 1,38,-1
 934 267 l 1,39,40
 963 180 963 180 1032.5 130 c 128,-1,41
 1102 80 1102 80 1216 80 c 0,42,43
 1367 80 1367 80 1469.5 199.5 c 128,-1,44
 1572 319 1572 319 1602 511 c 2,45,-1
 1605 532 l 2,32,33
228 511 m 2,46,47
 197 308 197 308 258 194 c 128,-1,48
 319 80 319 80 478 80 c 0,49,50
 586 80 586 80 671 131 c 128,-1,51
 756 182 756 182 814 269 c 1,52,-1
 894 802 l 1,53,54
 866 890 866 890 800 945 c 128,-1,55
 734 1000 734 1000 618 1000 c 0,56,57
 466 1000 466 1000 363.5 868 c 128,-1,58
 261 736 261 736 231 532 c 2,59,-1
 228 511 l 2,46,47
EndSplineSet
Validated: 33
EndChar

StartChar: uni0446
Encoding: 1094 1094 498
Width: 1164
GlyphClass: 1
Flags: W
LayerCount: 2
Fore
SplineSet
240 1082 m 1,0,-1
 360 1082 l 1,1,-1
 213 101 l 1,2,-1
 797 101 l 1,3,-1
 944 1082 l 1,4,-1
 1064 1082 l 1,5,-1
 917 101 l 1,6,-1
 1007 101 l 1,7,-1
 939 -351 l 1,8,-1
 820 -351 l 1,9,-1
 873 0 l 1,10,-1
 78 0 l 1,11,-1
 240 1082 l 1,0,-1
EndSplineSet
Validated: 1
EndChar

StartChar: uni0447
Encoding: 1095 1095 499
Width: 1126
GlyphClass: 1
Flags: W
LayerCount: 2
Fore
SplineSet
887 0 m 1,0,-1
 767 0 l 1,1,-1
 835 455 l 1,2,3
 763 430 763 430 688 415.5 c 128,-1,4
 613 401 613 401 545 401 c 0,5,6
 342 401 342 401 250.5 495.5 c 128,-1,7
 159 590 159 590 192 808 c 2,8,-1
 233 1082 l 1,9,-1
 353 1082 l 1,10,-1
 312 808 l 2,11,12
 286 632 286 632 344.5 568 c 128,-1,13
 403 504 403 504 561 504 c 0,14,15
 632 505 632 505 707.5 519 c 128,-1,16
 783 533 783 533 850 556 c 1,17,-1
 929 1082 l 1,18,-1
 1049 1082 l 1,19,-1
 887 0 l 1,0,-1
EndSplineSet
Validated: 33
EndChar

StartChar: uni0448
Encoding: 1096 1096 500
Width: 1617
GlyphClass: 1
Flags: W
LayerCount: 2
Fore
SplineSet
360 1082 m 1,0,-1
 213 101 l 1,1,-1
 695 101 l 1,2,-1
 842 1082 l 1,3,-1
 962 1082 l 1,4,-1
 815 101 l 1,5,-1
 1291 101 l 1,6,-1
 1438 1082 l 1,7,-1
 1558 1082 l 1,8,-1
 1396 0 l 1,9,-1
 78 0 l 1,10,-1
 240 1082 l 1,11,-1
 360 1082 l 1,0,-1
EndSplineSet
Validated: 1
EndChar

StartChar: uni0449
Encoding: 1097 1097 501
Width: 1656
GlyphClass: 1
Flags: W
LayerCount: 2
Fore
SplineSet
1457 -125 m 1,0,-1
 1401 -125 l 1,1,-1
 1403 -116 l 1,2,-1
 1459 -116 l 1,3,-1
 1457 -125 l 1,0,-1
360 1082 m 1,4,-1
 213 101 l 1,5,-1
 695 101 l 1,6,-1
 842 1082 l 1,7,-1
 962 1082 l 1,8,-1
 815 101 l 1,9,-1
 1291 101 l 1,10,-1
 1438 1082 l 1,11,-1
 1558 1082 l 1,12,-1
 1396 0 l 1,13,-1
 78 0 l 1,14,-1
 240 1082 l 1,15,-1
 360 1082 l 1,4,-1
EndSplineSet
Validated: 1
EndChar

StartChar: uni044A
Encoding: 1098 1098 502
Width: 1296
GlyphClass: 1
Flags: W
LayerCount: 2
Fore
SplineSet
117 1082 m 1,0,-1
 568 1082 l 1,1,-1
 503 649 l 1,2,-1
 812 649 l 2,3,4
 992 649 992 649 1086.5 558 c 128,-1,5
 1181 467 1181 467 1160 326 c 0,6,7
 1137 177 1137 177 1020 88.5 c 128,-1,8
 903 0 903 0 715 0 c 2,9,-1
 286 0 l 1,10,-1
 432 980 l 1,11,-1
 102 980 l 1,12,-1
 117 1082 l 1,0,-1
488 547 m 1,13,-1
 421 101 l 1,14,-1
 730 101 l 2,15,16
 863 101 863 101 944 165.5 c 128,-1,17
 1025 230 1025 230 1040 324 c 0,18,19
 1054 419 1054 419 995 483 c 128,-1,20
 936 547 936 547 797 547 c 2,21,-1
 488 547 l 1,13,-1
EndSplineSet
Validated: 33
EndChar

StartChar: uni044B
Encoding: 1099 1099 503
Width: 1546
GlyphClass: 1
Flags: W
LayerCount: 2
Fore
SplineSet
325 649 m 1,0,-1
 634 649 l 2,1,2
 814 649 814 649 908.5 558 c 128,-1,3
 1003 467 1003 467 982 326 c 0,4,5
 959 177 959 177 842 88.5 c 128,-1,6
 725 0 725 0 537 0 c 2,7,-1
 108 0 l 1,8,-1
 270 1082 l 1,9,-1
 390 1082 l 1,10,-1
 325 649 l 1,0,-1
310 547 m 1,11,-1
 243 101 l 1,12,-1
 552 101 l 2,13,14
 685 101 685 101 766 165.5 c 128,-1,15
 847 230 847 230 862 324 c 0,16,17
 876 419 876 419 817 483 c 128,-1,18
 758 547 758 547 619 547 c 2,19,-1
 310 547 l 1,11,-1
1290 0 m 1,20,-1
 1170 0 l 1,21,-1
 1332 1082 l 1,22,-1
 1452 1082 l 1,23,-1
 1290 0 l 1,20,-1
EndSplineSet
Validated: 33
EndChar

StartChar: uni044C
Encoding: 1100 1100 504
Width: 1095
GlyphClass: 1
Flags: W
LayerCount: 2
Fore
SplineSet
305 649 m 1,0,-1
 614 649 l 2,1,2
 794 649 794 649 888.5 558 c 128,-1,3
 983 467 983 467 962 326 c 0,4,5
 939 177 939 177 822 88.5 c 128,-1,6
 705 0 705 0 517 0 c 2,7,-1
 88 0 l 1,8,-1
 250 1082 l 1,9,-1
 370 1082 l 1,10,-1
 305 649 l 1,0,-1
290 547 m 1,11,-1
 223 101 l 1,12,-1
 532 101 l 2,13,14
 665 101 665 101 746 165.5 c 128,-1,15
 827 230 827 230 842 324 c 0,16,17
 856 419 856 419 797 483 c 128,-1,18
 738 547 738 547 599 547 c 2,19,-1
 290 547 l 1,11,-1
EndSplineSet
Validated: 33
EndChar

StartChar: uni044D
Encoding: 1101 1101 505
Width: 1095
GlyphClass: 1
Flags: W
LayerCount: 2
Fore
SplineSet
587 1000 m 0,0,1
 475 1000 475 1000 375.5 931.5 c 128,-1,2
 276 863 276 863 259 744 c 1,3,-1
 152 744 l 1,4,-1
 150 750 l 1,5,6
 168 906 168 906 302.5 1004 c 128,-1,7
 437 1102 437 1102 602 1102 c 0,8,9
 806 1102 806 1102 912 947 c 128,-1,10
 1018 792 1018 792 983 562 c 2,11,-1
 977 520 l 2,12,13
 940 276 940 276 794.5 127.5 c 128,-1,14
 649 -21 649 -21 435 -21 c 0,15,16
 267 -21 267 -21 164 84.5 c 128,-1,17
 61 190 61 190 91 361 c 1,18,-1
 93 366 l 1,19,-1
 202 366 l 1,20,21
 181 229 181 229 252.5 154.5 c 128,-1,22
 324 80 324 80 450 80 c 0,23,24
 602 80 602 80 710.5 199.5 c 128,-1,25
 819 319 819 319 848 490 c 1,26,-1
 845 496 l 1,27,-1
 363 496 l 1,28,-1
 379 597 l 1,29,-1
 867 597 l 1,30,31
 886 776 886 776 816.5 888 c 128,-1,32
 747 1000 747 1000 587 1000 c 0,0,1
EndSplineSet
Validated: 33
EndChar

StartChar: uni044E
Encoding: 1102 1102 506
Width: 1664
GlyphClass: 1
Flags: W
LayerCount: 2
Fore
SplineSet
296 589 m 1,0,-1
 606 589 l 1,1,2
 649 823 649 823 799 962.5 c 128,-1,3
 949 1102 949 1102 1160 1102 c 0,4,5
 1368 1102 1368 1102 1480.5 947.5 c 128,-1,6
 1593 793 1593 793 1558 557 c 2,7,-1
 1553 524 l 2,8,9
 1515 275 1515 275 1363.5 127 c 128,-1,10
 1212 -21 1212 -21 994 -21 c 0,11,12
 793 -21 793 -21 680.5 121.5 c 128,-1,13
 568 264 568 264 591 488 c 1,14,-1
 281 488 l 1,15,-1
 208 0 l 1,16,-1
 88 0 l 1,17,-1
 250 1082 l 1,18,-1
 370 1082 l 1,19,-1
 296 589 l 1,0,-1
716 524 m 2,20,21
 686 329 686 329 761.5 204.5 c 128,-1,22
 837 80 837 80 1009 80 c 0,23,24
 1169 80 1169 80 1287 209.5 c 128,-1,25
 1405 339 1405 339 1434 524 c 2,26,-1
 1439 557 l 2,27,28
 1467 749 1467 749 1390.5 874.5 c 128,-1,29
 1314 1000 1314 1000 1145 1000 c 0,30,31
 984 1000 984 1000 866 869.5 c 128,-1,32
 748 739 748 739 721 557 c 2,33,-1
 716 524 l 2,20,21
EndSplineSet
Validated: 33
EndChar

StartChar: uni044F
Encoding: 1103 1103 507
Width: 1129
GlyphClass: 1
Flags: W
LayerCount: 2
Fore
SplineSet
1045 1082 m 1,0,-1
 883 0 l 1,1,-1
 763 0 l 1,2,-1
 828 436 l 1,3,-1
 492 436 l 1,4,-1
 163 0 l 1,5,-1
 31 0 l 1,6,-1
 371 451 l 1,7,8
 266 481 266 481 215.5 564 c 128,-1,9
 165 647 165 647 183 759 c 0,10,11
 205 906 205 906 320 994 c 128,-1,12
 435 1082 435 1082 619 1082 c 2,13,-1
 1045 1082 l 1,0,-1
303 757 m 0,14,15
 288 662 288 662 337.5 600 c 128,-1,16
 387 538 387 538 506 538 c 2,17,-1
 844 538 l 1,18,-1
 910 980 l 1,19,-1
 604 980 l 2,20,21
 476 980 476 980 396 914.5 c 128,-1,22
 316 849 316 849 303 757 c 0,14,15
EndSplineSet
Validated: 33
EndChar

StartChar: uni0452
Encoding: 1106 1106 510
Width: 1141
GlyphClass: 1
Flags: W
LayerCount: 2
Fore
SplineSet
647 1254 m 1,0,-1
 386 1254 l 1,1,-1
 333 905 l 1,2,3
 402 1000 402 1000 499.5 1051 c 128,-1,4
 597 1102 597 1102 717 1102 c 0,5,6
 882 1102 882 1102 960.5 995 c 128,-1,7
 1039 888 1039 888 1006 667 c 2,8,-1
 971 434 l 1,9,-1
 893 -89 l 2,10,11
 866 -262 866 -262 774 -349.5 c 128,-1,12
 682 -437 682 -437 536 -437 c 0,13,14
 504 -437 504 -437 474.5 -432 c 128,-1,15
 445 -427 445 -427 416 -418 c 1,16,-1
 445 -320 l 1,17,18
 460 -325 460 -325 493.5 -330 c 128,-1,19
 527 -335 527 -335 552 -335 c 0,20,21
 636 -335 636 -335 695.5 -269.5 c 128,-1,22
 755 -204 755 -204 773 -89 c 2,23,-1
 786 0 l 1,24,-1
 851 434 l 1,25,-1
 886 669 l 2,26,27
 913 852 913 852 856.5 925 c 128,-1,28
 800 998 800 998 675 998 c 0,29,30
 552 998 552 998 460 934 c 128,-1,31
 368 870 368 870 312 764 c 1,32,-1
 198 0 l 1,33,-1
 78 0 l 1,34,-1
 266 1254 l 1,35,-1
 57 1254 l 1,36,-1
 69 1335 l 1,37,-1
 278 1335 l 1,38,-1
 312 1560 l 1,39,-1
 432 1560 l 1,40,-1
 398 1335 l 1,41,-1
 659 1335 l 1,42,-1
 647 1254 l 1,0,-1
EndSplineSet
Validated: 33
EndChar

StartChar: uni0454
Encoding: 1108 1108 512
Width: 1095
GlyphClass: 1
Flags: W
LayerCount: 2
Fore
SplineSet
486 80 m 0,0,1
 597 80 597 80 697.5 148.5 c 128,-1,2
 798 217 798 217 817 337 c 1,3,-1
 923 337 l 1,4,-1
 925 331 l 1,5,6
 905 174 905 174 769.5 76.5 c 128,-1,7
 634 -21 634 -21 471 -21 c 0,8,9
 263 -21 263 -21 161 132.5 c 128,-1,10
 59 286 59 286 95 520 c 2,11,-1
 101 562 l 2,12,13
 137 806 137 806 278.5 954 c 128,-1,14
 420 1102 420 1102 638 1102 c 0,15,16
 806 1102 806 1102 909 996 c 128,-1,17
 1012 890 1012 890 983 720 c 1,18,-1
 981 715 l 1,19,-1
 873 715 l 1,20,21
 893 850 893 850 820.5 925 c 128,-1,22
 748 1000 748 1000 623 1000 c 0,23,24
 467 1000 467 1000 363.5 883.5 c 128,-1,25
 260 767 260 767 231 598 c 1,26,-1
 234 592 l 1,27,-1
 730 592 l 1,28,-1
 715 491 l 1,29,-1
 211 491 l 1,30,31
 188 305 188 305 254 192.5 c 128,-1,32
 320 80 320 80 486 80 c 0,0,1
EndSplineSet
Validated: 33
EndChar

StartChar: uni0459
Encoding: 1113 1113 517
Width: 1772
GlyphClass: 1
Flags: W
LayerCount: 2
Fore
SplineSet
1064 1082 m 1,0,-1
 999 649 l 1,1,-1
 1309 649 l 2,2,3
 1488 649 1488 649 1582.5 558 c 128,-1,4
 1677 467 1677 467 1656 326 c 0,5,6
 1633 177 1633 177 1516.5 88.5 c 128,-1,7
 1400 0 1400 0 1212 0 c 2,8,-1
 782 0 l 1,9,-1
 928 979 l 1,10,-1
 486 979 l 1,11,-1
 431 604 l 2,12,13
 381 275 381 275 286 137.5 c 128,-1,14
 191 0 191 0 11 0 c 2,15,-1
 -32 0 l 1,16,-1
 -15 103 l 1,17,-1
 22 103 l 2,18,19
 129 103 129 103 199.5 217.5 c 128,-1,20
 270 332 270 332 312 604 c 2,21,-1
 383 1082 l 1,22,-1
 1064 1082 l 1,0,-1
984 548 m 1,23,-1
 917 100 l 1,24,-1
 1227 100 l 2,25,26
 1359 100 1359 100 1440.5 167 c 128,-1,27
 1522 234 1522 234 1536 328 c 0,28,29
 1550 423 1550 423 1491.5 485.5 c 128,-1,30
 1433 548 1433 548 1294 548 c 2,31,-1
 984 548 l 1,23,-1
EndSplineSet
Validated: 33
EndChar

StartChar: uni045A
Encoding: 1114 1114 518
Width: 1772
GlyphClass: 1
Flags: W
LayerCount: 2
Fore
SplineSet
295 652 m 1,0,-1
 878 652 l 1,1,-1
 943 1082 l 1,2,-1
 1063 1082 l 1,3,-1
 998 649 l 1,4,-1
 1308 649 l 2,5,6
 1488 649 1488 649 1582.5 558 c 128,-1,7
 1677 467 1677 467 1656 326 c 0,8,9
 1633 177 1633 177 1516 88.5 c 128,-1,10
 1399 0 1399 0 1211 0 c 2,11,-1
 781 0 l 1,12,-1
 863 551 l 1,13,-1
 280 551 l 1,14,-1
 198 0 l 1,15,-1
 78 0 l 1,16,-1
 240 1082 l 1,17,-1
 360 1082 l 1,18,-1
 295 652 l 1,0,-1
983 548 m 1,19,-1
 916 100 l 1,20,-1
 1226 100 l 2,21,22
 1359 100 1359 100 1440.5 167 c 128,-1,23
 1522 234 1522 234 1536 328 c 0,24,25
 1550 423 1550 423 1491.5 485.5 c 128,-1,26
 1433 548 1433 548 1293 548 c 2,27,-1
 983 548 l 1,19,-1
EndSplineSet
Validated: 33
EndChar

StartChar: uni045B
Encoding: 1115 1115 519
Width: 1141
GlyphClass: 1
Flags: W
LayerCount: 2
Fore
SplineSet
717 1249 m 1,0,-1
 385 1249 l 1,1,-1
 334 905 l 1,2,3
 402 1000 402 1000 499.5 1051 c 128,-1,4
 597 1102 597 1102 717 1102 c 0,5,6
 882 1102 882 1102 960.5 995 c 128,-1,7
 1039 888 1039 888 1006 667 c 2,8,-1
 906 0 l 1,9,-1
 786 0 l 1,10,-1
 886 669 l 2,11,12
 913 852 913 852 856.5 925 c 128,-1,13
 800 998 800 998 675 998 c 0,14,15
 552 998 552 998 460 934 c 128,-1,16
 368 870 368 870 312 764 c 1,17,-1
 198 0 l 1,18,-1
 78 0 l 1,19,-1
 265 1249 l 1,20,-1
 105 1249 l 1,21,-1
 121 1351 l 1,22,-1
 281 1351 l 1,23,-1
 312 1560 l 1,24,-1
 432 1560 l 1,25,-1
 401 1351 l 1,26,-1
 733 1351 l 1,27,-1
 717 1249 l 1,0,-1
EndSplineSet
Validated: 33
EndChar

StartChar: uni045F
Encoding: 1119 1119 523
Width: 1140
GlyphClass: 1
Flags: W
LayerCount: 2
Fore
SplineSet
360 1082 m 1,0,-1
 213 101 l 1,1,-1
 797 101 l 1,2,-1
 944 1082 l 1,3,-1
 1064 1082 l 1,4,-1
 902 0 l 1,5,-1
 553 0 l 1,6,-1
 500 -353 l 1,7,-1
 381 -353 l 1,8,-1
 434 0 l 1,9,-1
 78 0 l 1,10,-1
 240 1082 l 1,11,-1
 360 1082 l 1,0,-1
EndSplineSet
Validated: 1
EndChar

StartChar: uni0460
Encoding: 1120 1120 524
Width: 1941
GlyphClass: 1
Flags: W
LayerCount: 2
Fore
SplineSet
1219 1426 m 1,0,1
 1282 1450 1282 1450 1354.5 1463.5 c 128,-1,2
 1427 1477 1427 1477 1508 1477 c 0,3,4
 1709 1477 1709 1477 1819.5 1305.5 c 128,-1,5
 1930 1134 1930 1134 1891 867 c 2,6,-1
 1851 600 l 2,7,8
 1808 314 1808 314 1646.5 146.5 c 128,-1,9
 1485 -21 1485 -21 1268 -21 c 0,10,11
 1148 -21 1148 -21 1058.5 14.5 c 128,-1,12
 969 50 969 50 914 104 c 1,13,14
 845 50 845 50 745.5 14.5 c 128,-1,15
 646 -21 646 -21 521 -21 c 0,16,17
 313 -21 313 -21 197.5 153.5 c 128,-1,18
 82 328 82 328 123 600 c 2,19,-1
 163 867 l 2,20,21
 205 1147 205 1147 361.5 1312 c 128,-1,22
 518 1477 518 1477 731 1477 c 0,23,24
 808 1477 808 1477 878.5 1463.5 c 128,-1,25
 949 1450 949 1450 1004 1426 c 1,26,-1
 954 1325 l 1,27,28
 909 1348 909 1348 848.5 1361.5 c 128,-1,29
 788 1375 788 1375 715 1375 c 0,30,31
 561 1375 561 1375 438 1231.5 c 128,-1,32
 315 1088 315 1088 283 869 c 2,33,-1
 243 600 l 2,34,35
 207 363 207 363 287.5 221.5 c 128,-1,36
 368 80 368 80 536 80 c 0,37,38
 654 80 654 80 741 119.5 c 128,-1,39
 828 159 828 159 868 209 c 1,40,-1
 927 606 l 1,41,-1
 672 606 l 1,42,-1
 687 708 l 1,43,-1
 1319 708 l 1,44,-1
 1304 606 l 1,45,-1
 1048 606 l 1,46,-1
 989 211 l 1,47,48
 1011 159 1011 159 1084 119.5 c 128,-1,49
 1157 80 1157 80 1283 80 c 0,50,51
 1441 80 1441 80 1569.5 227 c 128,-1,52
 1698 374 1698 374 1732 600 c 2,53,-1
 1772 869 l 2,54,55
 1807 1099 1807 1099 1730 1237 c 128,-1,56
 1653 1375 1653 1375 1492 1375 c 0,57,58
 1420 1375 1420 1375 1354.5 1361.5 c 128,-1,59
 1289 1348 1289 1348 1239 1325 c 1,60,-1
 1219 1426 l 1,0,1
EndSplineSet
Validated: 33
EndChar

StartChar: uni0461
Encoding: 1121 1121 525
Width: 1386
GlyphClass: 1
Flags: W
LayerCount: 2
Fore
SplineSet
427 271 m 1,0,-1
 444 145 l 1,1,-1
 449 144 l 1,2,-1
 506 271 l 1,3,-1
 718 674 l 1,4,-1
 645 1082 l 1,5,-1
 768 1082 l 1,6,-1
 891 271 l 1,7,-1
 911 123 l 1,8,-1
 917 121 l 1,9,-1
 955 191 l 1,10,11
 1074 360 1074 360 1159 592 c 128,-1,12
 1244 824 1244 824 1295 1082 c 1,13,-1
 1414 1082 l 1,14,15
 1357 784 1357 784 1237 511 c 128,-1,16
 1117 238 1117 238 936 0 c 1,17,-1
 840 0 l 1,18,-1
 748 508 l 1,19,-1
 742 509 l 1,20,-1
 472 0 l 1,21,-1
 376 0 l 1,22,-1
 126 1082 l 1,23,-1
 250 1082 l 1,24,-1
 427 271 l 1,0,-1
EndSplineSet
Validated: 1
EndChar

StartChar: uni0462
Encoding: 1122 1122 526
Width: 1254
GlyphClass: 1
Flags: W
LayerCount: 2
Fore
SplineSet
698 1127 m 1,0,-1
 387 1127 l 1,1,-1
 345 842 l 1,2,-1
 709 842 l 2,3,4
 929 842 929 842 1042 725 c 128,-1,5
 1155 608 1155 608 1127 423 c 0,6,7
 1097 227 1097 227 955.5 113.5 c 128,-1,8
 814 0 814 0 583 0 c 2,9,-1
 99 0 l 1,10,-1
 267 1127 l 1,11,-1
 86 1127 l 1,12,-1
 101 1229 l 1,13,-1
 283 1229 l 1,14,-1
 317 1456 l 1,15,-1
 437 1456 l 1,16,-1
 403 1229 l 1,17,-1
 713 1229 l 1,18,-1
 698 1127 l 1,0,-1
329 740 m 1,19,-1
 234 101 l 1,20,-1
 598 101 l 2,21,22
 771 101 771 101 878.5 195 c 128,-1,23
 986 289 986 289 1007 425 c 0,24,25
 1027 562 1027 562 951 651 c 128,-1,26
 875 740 875 740 694 740 c 2,27,-1
 329 740 l 1,19,-1
EndSplineSet
Validated: 33
EndChar

StartChar: uni0463
Encoding: 1123 1123 527
Width: 1095
GlyphClass: 1
Flags: W
LayerCount: 2
Fore
SplineSet
698 1102 m 1,0,-1
 373 1102 l 1,1,-1
 305 649 l 1,2,-1
 614 649 l 2,3,4
 794 649 794 649 888.5 558 c 128,-1,5
 983 467 983 467 962 326 c 0,6,7
 939 177 939 177 822 88.5 c 128,-1,8
 705 0 705 0 517 0 c 2,9,-1
 88 0 l 1,10,-1
 253 1102 l 1,11,-1
 56 1102 l 1,12,-1
 72 1204 l 1,13,-1
 268 1204 l 1,14,-1
 322 1562 l 1,15,-1
 442 1562 l 1,16,-1
 388 1204 l 1,17,-1
 714 1204 l 1,18,-1
 698 1102 l 1,0,-1
290 547 m 1,19,-1
 223 101 l 1,20,-1
 532 101 l 2,21,22
 665 101 665 101 746 165.5 c 128,-1,23
 827 230 827 230 842 324 c 0,24,25
 856 419 856 419 797 483 c 128,-1,26
 738 547 738 547 599 547 c 2,27,-1
 290 547 l 1,19,-1
EndSplineSet
Validated: 33
EndChar

StartChar: uni0464
Encoding: 1124 1124 528
Width: 1830
GlyphClass: 1
Flags: W
LayerCount: 2
Fore
SplineSet
1223 671 m 1,0,-1
 739 671 l 1,1,-1
 730 610 l 2,2,3
 693 368 693 368 786 224.5 c 128,-1,4
 879 81 879 81 1072 81 c 0,5,6
 1254 81 1254 81 1379 178 c 128,-1,7
 1504 275 1504 275 1532 456 c 1,8,-1
 1643 456 l 1,9,-1
 1645 450 l 1,10,11
 1616 227 1616 227 1455.5 103.5 c 128,-1,12
 1295 -20 1295 -20 1057 -20 c 0,13,14
 823 -20 823 -20 696 157 c 128,-1,15
 569 334 569 334 611 610 c 2,16,-1
 620 671 l 1,17,-1
 358 671 l 1,18,-1
 258 0 l 1,19,-1
 138 0 l 1,20,-1
 356 1456 l 1,21,-1
 476 1456 l 1,22,-1
 373 772 l 1,23,-1
 635 772 l 1,24,-1
 646 847 l 2,25,26
 689 1135 689 1135 862.5 1306.5 c 128,-1,27
 1036 1478 1036 1478 1282 1478 c 0,28,29
 1510 1478 1510 1478 1638 1352 c 128,-1,30
 1766 1226 1766 1226 1729 1009 c 1,31,-1
 1726 1003 l 1,32,-1
 1614 1003 l 1,33,34
 1642 1185 1642 1185 1549.5 1280.5 c 128,-1,35
 1457 1376 1457 1376 1266 1376 c 0,36,37
 1083 1376 1083 1376 941 1227 c 128,-1,38
 799 1078 799 1078 765 849 c 2,39,-1
 754 772 l 1,40,-1
 1238 772 l 1,41,-1
 1223 671 l 1,0,-1
EndSplineSet
Validated: 33
EndChar

StartChar: uni0465
Encoding: 1125 1125 529
Width: 1523
GlyphClass: 1
Flags: W
LayerCount: 2
Fore
SplineSet
984 499 m 1,0,-1
 638 499 l 1,1,2
 613 310 613 310 678.5 195 c 128,-1,3
 744 80 744 80 912 80 c 0,4,5
 1023 80 1023 80 1123.5 148.5 c 128,-1,6
 1224 217 1224 217 1243 337 c 1,7,-1
 1349 337 l 1,8,-1
 1351 331 l 1,9,10
 1331 174 1331 174 1195.5 76.5 c 128,-1,11
 1060 -21 1060 -21 897 -21 c 0,12,13
 694 -21 694 -21 591.5 126 c 128,-1,14
 489 273 489 273 518 499 c 1,15,-1
 280 499 l 1,16,-1
 206 0 l 1,17,-1
 86 0 l 1,18,-1
 248 1082 l 1,19,-1
 368 1082 l 1,20,-1
 296 601 l 1,21,-1
 534 601 l 1,22,23
 577 829 577 829 716 965.5 c 128,-1,24
 855 1102 855 1102 1064 1102 c 0,25,26
 1232 1102 1232 1102 1335 996 c 128,-1,27
 1438 890 1438 890 1409 720 c 1,28,-1
 1407 715 l 1,29,-1
 1299 715 l 1,30,31
 1319 850 1319 850 1246.5 925 c 128,-1,32
 1174 1000 1174 1000 1049 1000 c 0,33,34
 895 1000 895 1000 792.5 886.5 c 128,-1,35
 690 773 690 773 659 607 c 1,36,-1
 662 601 l 1,37,-1
 999 601 l 1,38,-1
 984 499 l 1,0,-1
EndSplineSet
Validated: 33
EndChar

StartChar: uni0466
Encoding: 1126 1126 530
Width: 1229
GlyphClass: 1
Flags: W
LayerCount: 2
Fore
SplineSet
914 475 m 1,0,-1
 672 475 l 1,1,-1
 601 0 l 1,2,-1
 482 0 l 1,3,-1
 553 475 l 1,4,-1
 325 475 l 1,5,-1
 82 0 l 1,6,-1
 -42 0 l 1,7,-1
 711 1456 l 1,8,-1
 824 1456 l 1,9,-1
 1137 0 l 1,10,-1
 1013 0 l 1,11,-1
 914 475 l 1,0,-1
379 581 m 1,12,-1
 892 581 l 1,13,-1
 746 1284 l 1,14,-1
 740 1285 l 1,15,-1
 379 581 l 1,12,-1
EndSplineSet
Validated: 1
EndChar

StartChar: uni0467
Encoding: 1127 1127 531
Width: 1080
GlyphClass: 1
Flags: W
LayerCount: 2
Fore
SplineSet
736 347 m 1,0,-1
 565 347 l 1,1,-1
 513 0 l 1,2,-1
 393 0 l 1,3,-1
 445 347 l 1,4,-1
 266 347 l 1,5,-1
 69 0 l 1,6,-1
 -55 0 l 1,7,-1
 559 1082 l 1,8,-1
 664 1082 l 1,9,-1
 955 0 l 1,10,-1
 831 0 l 1,11,-1
 736 347 l 1,0,-1
324 449 m 1,12,-1
 708 449 l 1,13,-1
 609 809 l 1,14,-1
 591 929 l 1,15,-1
 585 929 l 1,16,-1
 530 809 l 1,17,-1
 324 449 l 1,12,-1
EndSplineSet
Validated: 1
EndChar

StartChar: uni0468
Encoding: 1128 1128 532
Width: 1798
GlyphClass: 1
Flags: W
LayerCount: 2
Fore
SplineSet
363 581 m 1,0,-1
 787 581 l 1,1,-1
 1240 1456 l 1,2,-1
 1353 1456 l 1,3,-1
 1666 0 l 1,4,-1
 1542 0 l 1,5,-1
 1443 475 l 1,6,-1
 1201 475 l 1,7,-1
 1130 0 l 1,8,-1
 1011 0 l 1,9,-1
 1082 475 l 1,10,-1
 854 475 l 1,11,-1
 611 0 l 1,12,-1
 487 0 l 1,13,-1
 732 475 l 1,14,-1
 347 475 l 1,15,-1
 276 0 l 1,16,-1
 156 0 l 1,17,-1
 374 1456 l 1,18,-1
 494 1456 l 1,19,-1
 363 581 l 1,0,-1
908 581 m 1,20,-1
 1421 581 l 1,21,-1
 1275 1284 l 1,22,-1
 1269 1285 l 1,23,-1
 908 581 l 1,20,-1
EndSplineSet
Validated: 1
EndChar

StartChar: uni0469
Encoding: 1129 1129 533
Width: 1542
GlyphClass: 1
Flags: W
LayerCount: 2
Fore
SplineSet
308 449 m 1,0,-1
 647 449 l 1,1,-1
 1006 1082 l 1,2,-1
 1111 1082 l 1,3,-1
 1402 0 l 1,4,-1
 1278 0 l 1,5,-1
 1183 347 l 1,6,-1
 1012 347 l 1,7,-1
 960 0 l 1,8,-1
 840 0 l 1,9,-1
 892 347 l 1,10,-1
 713 347 l 1,11,-1
 516 0 l 1,12,-1
 392 0 l 1,13,-1
 589 347 l 1,14,-1
 293 347 l 1,15,-1
 241 0 l 1,16,-1
 121 0 l 1,17,-1
 283 1082 l 1,18,-1
 403 1082 l 1,19,-1
 308 449 l 1,0,-1
771 449 m 1,20,-1
 1155 449 l 1,21,-1
 1056 809 l 1,22,-1
 1038 929 l 1,23,-1
 1032 929 l 1,24,-1
 977 809 l 1,25,-1
 771 449 l 1,20,-1
EndSplineSet
Validated: 1
EndChar

StartChar: uni046A
Encoding: 1130 1130 534
Width: 1669
GlyphClass: 1
Flags: W
LayerCount: 2
Fore
SplineSet
1007 780 m 1,0,-1
 1103 780 l 2,1,2
 1313 780 1313 780 1415.5 684 c 128,-1,3
 1518 588 1518 588 1487 380 c 2,4,-1
 1430 0 l 1,5,-1
 1310 0 l 1,6,-1
 1367 380 l 2,7,8
 1392 551 1392 551 1326 614.5 c 128,-1,9
 1260 678 1260 678 1088 678 c 2,10,-1
 926 678 l 1,11,-1
 914 662 l 1,12,-1
 815 0 l 1,13,-1
 695 0 l 1,14,-1
 795 667 l 1,15,-1
 790 678 l 1,16,-1
 624 678 l 2,17,18
 460 678 460 678 370 610.5 c 128,-1,19
 280 543 280 543 256 380 c 2,20,-1
 199 0 l 1,21,-1
 78 0 l 1,22,-1
 135 380 l 2,23,24
 167 599 167 599 292.5 689.5 c 128,-1,25
 418 780 418 780 639 780 c 2,26,-1
 740 780 l 1,27,-1
 409 1456 l 1,28,-1
 1541 1456 l 1,29,-1
 1007 780 l 1,0,-1
864 780 m 1,30,-1
 882 780 l 1,31,-1
 1323 1354 l 1,32,-1
 596 1354 l 1,33,-1
 864 780 l 1,30,-1
EndSplineSet
Validated: 33
EndChar

StartChar: uni046B
Encoding: 1131 1131 535
Width: 1447
GlyphClass: 1
Flags: W
LayerCount: 2
Fore
SplineSet
1181 1082 m 1,0,-1
 1264 1082 l 1,1,-1
 1267 1077 l 1,2,-1
 872 594 l 1,3,4
 1072 593 1072 593 1170 497.5 c 128,-1,5
 1268 402 1268 402 1237 195 c 2,6,-1
 1208 0 l 1,7,-1
 1088 0 l 1,8,-1
 1117 195 l 2,9,10
 1143 365 1143 365 1081 428.5 c 128,-1,11
 1019 492 1019 492 856 492 c 2,12,-1
 789 492 l 1,13,-1
 776 476 l 1,14,-1
 705 0 l 1,15,-1
 586 0 l 1,16,-1
 658 482 l 1,17,-1
 653 492 l 1,18,-1
 579 492 l 2,19,20
 423 492 423 492 337.5 424.5 c 128,-1,21
 252 357 252 357 228 195 c 2,22,-1
 199 0 l 1,23,-1
 78 0 l 1,24,-1
 107 195 l 2,25,26
 139 414 139 414 260.5 504 c 128,-1,27
 382 594 382 594 594 594 c 2,28,-1
 600 594 l 1,29,-1
 347 1082 l 1,30,-1
 455 1082 l 1,31,-1
 455 1083 l 1,32,-1
 1181 1083 l 1,33,-1
 1181 1082 l 1,0,-1
726 594 m 1,34,-1
 745 594 l 1,35,-1
 1049 975 l 1,36,-1
 1046 980 l 1,37,-1
 534 980 l 1,38,-1
 726 594 l 1,34,-1
EndSplineSet
Validated: 33
EndChar

StartChar: uni046C
Encoding: 1132 1132 536
Width: 2214
GlyphClass: 1
Flags: W
LayerCount: 2
Fore
SplineSet
1219 677 m 1,0,-1
 317 677 l 1,1,-1
 332 779 l 1,2,-1
 1234 779 l 1,3,-1
 1219 677 l 1,0,-1
257 0 m 1,4,-1
 137 0 l 1,5,-1
 355 1456 l 1,6,-1
 475 1456 l 1,7,-1
 257 0 l 1,4,-1
1574 780 m 1,8,-1
 1670 780 l 2,9,10
 1880 780 1880 780 1982.5 684 c 128,-1,11
 2085 588 2085 588 2054 380 c 2,12,-1
 1997 0 l 1,13,-1
 1877 0 l 1,14,-1
 1934 380 l 2,15,16
 1959 551 1959 551 1893 614.5 c 128,-1,17
 1827 678 1827 678 1655 678 c 2,18,-1
 1493 678 l 1,19,-1
 1481 662 l 1,20,-1
 1382 0 l 1,21,-1
 1262 0 l 1,22,-1
 1362 667 l 1,23,-1
 1357 678 l 1,24,-1
 1191 678 l 2,25,26
 1027 678 1027 678 937 610.5 c 128,-1,27
 847 543 847 543 823 380 c 2,28,-1
 766 0 l 1,29,-1
 645 0 l 1,30,-1
 702 380 l 2,31,32
 734 599 734 599 859.5 689.5 c 128,-1,33
 985 780 985 780 1206 780 c 2,34,-1
 1307 780 l 1,35,-1
 976 1456 l 1,36,-1
 2108 1456 l 1,37,-1
 1574 780 l 1,8,-1
1431 780 m 1,38,-1
 1449 780 l 1,39,-1
 1890 1354 l 1,40,-1
 1163 1354 l 1,41,-1
 1431 780 l 1,38,-1
EndSplineSet
Validated: 37
EndChar

StartChar: uni046D
Encoding: 1133 1133 537
Width: 1899
GlyphClass: 1
Flags: W
LayerCount: 2
Fore
SplineSet
1104 492 m 1,0,-1
 215 492 l 1,1,-1
 230 594 l 1,2,-1
 1119 594 l 1,3,-1
 1104 492 l 1,0,-1
208 0 m 1,4,-1
 88 0 l 1,5,-1
 250 1082 l 1,6,-1
 370 1082 l 1,7,-1
 208 0 l 1,4,-1
1687 1082 m 1,8,-1
 1770 1082 l 1,9,-1
 1773 1077 l 1,10,-1
 1378 594 l 1,11,12
 1578 593 1578 593 1676 497.5 c 128,-1,13
 1774 402 1774 402 1743 195 c 2,14,-1
 1714 0 l 1,15,-1
 1594 0 l 1,16,-1
 1623 195 l 2,17,18
 1649 365 1649 365 1587 428.5 c 128,-1,19
 1525 492 1525 492 1362 492 c 2,20,-1
 1295 492 l 1,21,-1
 1282 476 l 1,22,-1
 1211 0 l 1,23,-1
 1092 0 l 1,24,-1
 1164 482 l 1,25,-1
 1159 492 l 1,26,-1
 1085 492 l 2,27,28
 929 492 929 492 843.5 424.5 c 128,-1,29
 758 357 758 357 734 195 c 2,30,-1
 705 0 l 1,31,-1
 584 0 l 1,32,-1
 613 195 l 2,33,34
 645 414 645 414 766.5 504 c 128,-1,35
 888 594 888 594 1100 594 c 2,36,-1
 1106 594 l 1,37,-1
 853 1082 l 1,38,-1
 961 1082 l 1,39,-1
 961 1083 l 1,40,-1
 1687 1083 l 1,41,-1
 1687 1082 l 1,8,-1
1232 594 m 1,42,-1
 1251 594 l 1,43,-1
 1555 975 l 1,44,-1
 1552 980 l 1,45,-1
 1040 980 l 1,46,-1
 1232 594 l 1,42,-1
EndSplineSet
Validated: 37
EndChar

StartChar: uni046E
Encoding: 1134 1134 538
Width: 1054
GlyphClass: 1
Flags: W
LayerCount: 2
Fore
SplineSet
362 797 m 1,0,-1
 494 797 l 2,1,2
 680 797 680 797 786 871 c 128,-1,3
 892 945 892 945 913 1077 c 0,4,5
 931 1205 931 1205 854 1279.5 c 128,-1,6
 777 1354 777 1354 599 1354 c 2,7,-1
 278 1354 l 1,8,-1
 293 1456 l 1,9,-1
 614 1456 l 2,10,11
 822 1456 822 1456 940 1354 c 128,-1,12
 1058 1252 1058 1252 1032 1073 c 0,13,14
 1014 958 1014 958 932 872.5 c 128,-1,15
 850 787 850 787 718 746 c 1,16,17
 851 707 851 707 912 617.5 c 128,-1,18
 973 528 973 528 953 396 c 0,19,20
 924 200 924 200 767 95.5 c 128,-1,21
 610 -9 610 -9 389 -9 c 2,22,-1
 322 -9 l 2,23,24
 234 -9 234 -9 186.5 -42 c 128,-1,25
 139 -75 139 -75 130 -137 c 0,26,27
 119 -205 119 -205 165.5 -252 c 128,-1,28
 212 -299 212 -299 274 -322 c 1,29,-1
 216 -409 l 1,30,31
 129 -376 129 -376 65.5 -301.5 c 128,-1,32
 2 -227 2 -227 17 -133 c 0,33,34
 33 -21 33 -21 114.5 35.5 c 128,-1,35
 196 92 196 92 340 92 c 2,36,-1
 404 92 l 2,37,38
 572 92 572 92 692 174.5 c 128,-1,39
 812 257 812 257 833 392 c 0,40,41
 857 553 857 553 767.5 623.5 c 128,-1,42
 678 694 678 694 478 694 c 2,43,-1
 346 694 l 1,44,-1
 349 713 l 1,45,-1
 358 774 l 1,46,-1
 362 797 l 1,0,-1
677 1716 m 1,47,-1
 868 1885 l 1,48,-1
 983 1885 l 1,49,-1
 981 1868 l 1,50,-1
 714 1643 l 1,51,-1
 617 1643 l 1,52,-1
 419 1868 l 1,53,-1
 421 1885 l 1,54,-1
 535 1885 l 1,55,-1
 677 1716 l 1,47,-1
EndSplineSet
Validated: 33
EndChar

StartChar: uni046F
Encoding: 1135 1135 539
Width: 992
GlyphClass: 1
Flags: W
LayerCount: 2
Fore
SplineSet
513 1082 m 2,0,1
 697 1082 697 1082 805 1005 c 128,-1,2
 913 928 913 928 893 794 c 0,3,4
 880 711 880 711 816.5 647.5 c 128,-1,5
 753 584 753 584 648 551 c 1,6,7
 754 519 754 519 804.5 456 c 128,-1,8
 855 393 855 393 842 304 c 0,9,10
 819 154 819 154 680 72.5 c 128,-1,11
 541 -9 541 -9 344 -9 c 2,12,-1
 299 -9 l 2,13,14
 212 -9 212 -9 164.5 -42 c 128,-1,15
 117 -75 117 -75 108 -137 c 0,16,17
 97 -205 97 -205 143.5 -252 c 128,-1,18
 190 -299 190 -299 252 -322 c 1,19,-1
 193 -409 l 1,20,21
 106 -376 106 -376 43.5 -301.5 c 128,-1,22
 -19 -227 -19 -227 -6 -133 c 0,23,24
 10 -21 10 -21 91.5 35.5 c 128,-1,25
 173 92 173 92 318 92 c 2,26,-1
 359 92 l 2,27,28
 504 92 504 92 605 149 c 128,-1,29
 706 206 706 206 721 300 c 0,30,31
 737 406 737 406 657.5 452 c 128,-1,32
 578 498 578 498 403 498 c 2,33,-1
 272 498 l 1,34,-1
 278 538 l 1,35,-1
 287 601 l 1,36,-1
 418 601 l 2,37,38
 579 601 579 601 669.5 653 c 128,-1,39
 760 705 760 705 774 798 c 0,40,41
 786 881 786 881 717.5 930 c 128,-1,42
 649 979 649 979 498 979 c 2,43,-1
 206 979 l 1,44,-1
 221 1082 l 1,45,-1
 513 1082 l 2,0,1
553 1372 m 1,46,-1
 744 1541 l 1,47,-1
 859 1541 l 1,48,-1
 857 1524 l 1,49,-1
 590 1299 l 1,50,-1
 493 1299 l 1,51,-1
 295 1524 l 1,52,-1
 297 1541 l 1,53,-1
 411 1541 l 1,54,-1
 553 1372 l 1,46,-1
EndSplineSet
Validated: 33
EndChar

